999
"DXF R12 Output" (www.mydxf.blogspot.com)
 0 
SECTION
 2 
HEADER
 9 
$ACADVER
 1 
AC1009
 9 
$EXTMIN
 10 
 0 
 20 
 0 
 9 
$EXTMAX
 10 
 8.5 
 20 
 11 
 0 
ENDSEC
 0 
SECTION
 2 
ENTITIES
0
POLYLINE
8
Layer 1
62
7
70
0
10
0.000000
20
0.000000
66
1
0
VERTEX
8
Layer 1
10
201.146315
20
166.771836
70
0
0
VERTEX
8
Layer 1
10
201.146315
20
144.271864
70
0
0
SEQEND
8
Layer 1
0
POLYLINE
8
Layer 1
62
7
70
1
10
0.000000
20
0.000000
66
1
0
VERTEX
8
Layer 1
10
116.146423
20
186.771810
70
0
0
VERTEX
8
Layer 1
10
286.146197
20
186.771810
70
0
0
VERTEX
8
Layer 1
10
286.146197
20
101.771918
70
0
0
VERTEX
8
Layer 1
10
116.146423
20
101.771918
70
0
0
VERTEX
8
Layer 1
10
116.146423
20
186.771810
70
0
0
SEQEND
8
Layer 1
0
POLYLINE
8
Layer 1
62
7
70
0
10
0.000000
20
0.000000
66
1
0
VERTEX
8
Layer 1
10
223.646287
20
121.771893
70
0
0
VERTEX
8
Layer 1
10
178.646344
20
121.771893
70
0
0
VERTEX
8
Layer 1
10
178.646344
20
166.771836
70
0
0
VERTEX
8
Layer 1
10
223.646287
20
166.771836
70
0
0
VERTEX
8
Layer 1
10
223.646287
20
121.771893
70
0
0
SEQEND
8
Layer 1
0
POLYLINE
8
Layer 1
62
7
70
0
10
0.000000
20
0.000000
66
1
0
VERTEX
8
Layer 1
10
281.226091
20
56.780717
70
0
0
VERTEX
8
Layer 1
10
111.226309
20
56.780717
70
0
0
VERTEX
8
Layer 1
10
111.226309
20
86.780680
70
0
0
VERTEX
8
Layer 1
10
281.226091
20
86.780680
70
0
0
VERTEX
8
Layer 1
10
281.226091
20
56.780717
70
0
0
SEQEND
8
Layer 1
0
POLYLINE
8
Layer 1
62
7
70
0
10
0.000000
20
0.000000
66
1
0
VERTEX
8
Layer 1
10
281.226091
20
22.779759
70
0
0
VERTEX
8
Layer 1
10
111.226309
20
22.779759
70
0
0
VERTEX
8
Layer 1
10
111.226309
20
52.779722
70
0
0
VERTEX
8
Layer 1
10
281.226091
20
52.779722
70
0
0
VERTEX
8
Layer 1
10
281.226091
20
22.779759
70
0
0
SEQEND
8
Layer 1
0
POLYLINE
8
Layer 1
62
7
70
1
10
0.000000
20
0.000000
66
1
0
VERTEX
8
Layer 1
10
19.766940
20
182.328480
70
0
0
VERTEX
8
Layer 1
10
89.766852
20
182.328480
70
0
0
VERTEX
8
Layer 1
10
89.766852
20
112.328568
70
0
0
VERTEX
8
Layer 1
10
19.766940
20
112.328568
70
0
0
VERTEX
8
Layer 1
10
19.766940
20
182.328480
70
0
0
SEQEND
8
Layer 1
0
POLYLINE
8
Layer 1
62
7
70
1
10
0.000000
20
0.000000
66
1
0
VERTEX
8
Layer 1
10
19.766940
20
92.328594
70
0
0
VERTEX
8
Layer 1
10
89.766852
20
92.328594
70
0
0
VERTEX
8
Layer 1
10
89.766852
20
22.328682
70
0
0
VERTEX
8
Layer 1
10
19.766940
20
22.328682
70
0
0
VERTEX
8
Layer 1
10
19.766940
20
92.328594
70
0
0
SEQEND
8
Layer 1
0
POLYLINE
8
Layer 1
62
7
70
0
10
0.000000
20
0.000000
66
1
0
VERTEX
8
Layer 1
10
54.766884
20
142.327993
70
0
0
VERTEX
8
Layer 1
10
53.759211
20
142.429575
70
0
0
VERTEX
8
Layer 1
10
52.820661
20
142.720917
70
0
0
VERTEX
8
Layer 1
10
51.971340
20
143.181913
70
0
0
VERTEX
8
Layer 1
10
51.231354
20
143.792457
70
0
0
VERTEX
8
Layer 1
10
50.620810
20
144.532443
70
0
0
VERTEX
8
Layer 1
10
50.159814
20
145.381764
70
0
0
VERTEX
8
Layer 1
10
49.868472
20
146.320314
70
0
0
VERTEX
8
Layer 1
10
49.766890
20
147.327987
70
0
0
VERTEX
8
Layer 1
10
49.868472
20
148.335660
70
0
0
VERTEX
8
Layer 1
10
50.159814
20
149.274211
70
0
0
VERTEX
8
Layer 1
10
50.620810
20
150.123531
70
0
0
VERTEX
8
Layer 1
10
51.231354
20
150.863517
70
0
0
VERTEX
8
Layer 1
10
51.971340
20
151.474061
70
0
0
VERTEX
8
Layer 1
10
52.820661
20
151.935057
70
0
0
VERTEX
8
Layer 1
10
53.759211
20
152.226399
70
0
0
VERTEX
8
Layer 1
10
54.766884
20
152.327981
70
0
0
VERTEX
8
Layer 1
10
55.774557
20
152.226399
70
0
0
VERTEX
8
Layer 1
10
56.713108
20
151.935057
70
0
0
VERTEX
8
Layer 1
10
57.562428
20
151.474061
70
0
0
VERTEX
8
Layer 1
10
58.302414
20
150.863517
70
0
0
VERTEX
8
Layer 1
10
58.912958
20
150.123531
70
0
0
VERTEX
8
Layer 1
10
59.373954
20
149.274211
70
0
0
VERTEX
8
Layer 1
10
59.665296
20
148.335660
70
0
0
VERTEX
8
Layer 1
10
59.766878
20
147.327987
70
0
0
VERTEX
8
Layer 1
10
59.669917
20
146.347982
70
0
0
VERTEX
8
Layer 1
10
59.386276
20
145.414572
70
0
0
VERTEX
8
Layer 1
10
58.926821
20
144.553988
70
0
0
VERTEX
8
Layer 1
10
58.302414
20
143.792457
70
0
0
VERTEX
8
Layer 1
10
57.540883
20
143.168051
70
0
0
VERTEX
8
Layer 1
10
56.680299
20
142.708595
70
0
0
VERTEX
8
Layer 1
10
55.746890
20
142.424954
70
0
0
VERTEX
8
Layer 1
10
54.766884
20
142.327993
70
0
0
VERTEX
8
Layer 1
10
54.766884
20
142.327993
70
0
0
SEQEND
8
Layer 1
0
POLYLINE
8
Layer 1
62
7
70
0
10
0.000000
20
0.000000
66
1
0
VERTEX
8
Layer 1
10
64.766875
20
142.327993
70
0
0
VERTEX
8
Layer 1
10
63.759202
20
142.429575
70
0
0
VERTEX
8
Layer 1
10
62.820652
20
142.720917
70
0
0
VERTEX
8
Layer 1
10
61.971331
20
143.181913
70
0
0
VERTEX
8
Layer 1
10
61.231345
20
143.792457
70
0
0
VERTEX
8
Layer 1
10
60.620802
20
144.532443
70
0
0
VERTEX
8
Layer 1
10
60.159805
20
145.381764
70
0
0
VERTEX
8
Layer 1
10
59.868463
20
146.320314
70
0
0
VERTEX
8
Layer 1
10
59.766881
20
147.327987
70
0
0
VERTEX
8
Layer 1
10
59.868463
20
148.335660
70
0
0
VERTEX
8
Layer 1
10
60.159805
20
149.274211
70
0
0
VERTEX
8
Layer 1
10
60.620802
20
150.123531
70
0
0
VERTEX
8
Layer 1
10
61.231345
20
150.863517
70
0
0
VERTEX
8
Layer 1
10
61.971331
20
151.474061
70
0
0
VERTEX
8
Layer 1
10
62.820652
20
151.935057
70
0
0
VERTEX
8
Layer 1
10
63.759202
20
152.226399
70
0
0
VERTEX
8
Layer 1
10
64.766875
20
152.327981
70
0
0
VERTEX
8
Layer 1
10
65.774549
20
152.226399
70
0
0
VERTEX
8
Layer 1
10
66.713099
20
151.935057
70
0
0
VERTEX
8
Layer 1
10
67.562420
20
151.474061
70
0
0
VERTEX
8
Layer 1
10
68.302405
20
150.863517
70
0
0
VERTEX
8
Layer 1
10
68.912949
20
150.123531
70
0
0
VERTEX
8
Layer 1
10
69.373945
20
149.274211
70
0
0
VERTEX
8
Layer 1
10
69.665287
20
148.335660
70
0
0
VERTEX
8
Layer 1
10
69.766870
20
147.327987
70
0
0
VERTEX
8
Layer 1
10
69.669908
20
146.347982
70
0
0
VERTEX
8
Layer 1
10
69.386268
20
145.414572
70
0
0
VERTEX
8
Layer 1
10
68.926812
20
144.553988
70
0
0
VERTEX
8
Layer 1
10
68.302405
20
143.792457
70
0
0
VERTEX
8
Layer 1
10
67.540875
20
143.168051
70
0
0
VERTEX
8
Layer 1
10
66.680290
20
142.708595
70
0
0
VERTEX
8
Layer 1
10
65.746881
20
142.424954
70
0
0
VERTEX
8
Layer 1
10
64.766875
20
142.327993
70
0
0
VERTEX
8
Layer 1
10
64.766875
20
142.327993
70
0
0
SEQEND
8
Layer 1
0
POLYLINE
8
Layer 1
62
7
70
0
10
0.000000
20
0.000000
66
1
0
VERTEX
8
Layer 1
10
44.766911
20
142.327993
70
0
0
VERTEX
8
Layer 1
10
43.759238
20
142.429575
70
0
0
VERTEX
8
Layer 1
10
42.820688
20
142.720917
70
0
0
VERTEX
8
Layer 1
10
41.971367
20
143.181913
70
0
0
VERTEX
8
Layer 1
10
41.231382
20
143.792457
70
0
0
VERTEX
8
Layer 1
10
40.620838
20
144.532443
70
0
0
VERTEX
8
Layer 1
10
40.159841
20
145.381764
70
0
0
VERTEX
8
Layer 1
10
39.868499
20
146.320314
70
0
0
VERTEX
8
Layer 1
10
39.766917
20
147.327987
70
0
0
VERTEX
8
Layer 1
10
39.868499
20
148.335660
70
0
0
VERTEX
8
Layer 1
10
40.159841
20
149.274211
70
0
0
VERTEX
8
Layer 1
10
40.620838
20
150.123531
70
0
0
VERTEX
8
Layer 1
10
41.231382
20
150.863517
70
0
0
VERTEX
8
Layer 1
10
41.971367
20
151.474061
70
0
0
VERTEX
8
Layer 1
10
42.820688
20
151.935057
70
0
0
VERTEX
8
Layer 1
10
43.759238
20
152.226399
70
0
0
VERTEX
8
Layer 1
10
44.766911
20
152.327981
70
0
0
VERTEX
8
Layer 1
10
45.774585
20
152.226399
70
0
0
VERTEX
8
Layer 1
10
46.713135
20
151.935057
70
0
0
VERTEX
8
Layer 1
10
47.562456
20
151.474061
70
0
0
VERTEX
8
Layer 1
10
48.302441
20
150.863517
70
0
0
VERTEX
8
Layer 1
10
48.912985
20
150.123531
70
0
0
VERTEX
8
Layer 1
10
49.373981
20
149.274211
70
0
0
VERTEX
8
Layer 1
10
49.665324
20
148.335660
70
0
0
VERTEX
8
Layer 1
10
49.766906
20
147.327987
70
0
0
VERTEX
8
Layer 1
10
49.669945
20
146.347982
70
0
0
VERTEX
8
Layer 1
10
49.386304
20
145.414572
70
0
0
VERTEX
8
Layer 1
10
48.926848
20
144.553988
70
0
0
VERTEX
8
Layer 1
10
48.302441
20
143.792457
70
0
0
VERTEX
8
Layer 1
10
47.540911
20
143.168051
70
0
0
VERTEX
8
Layer 1
10
46.680326
20
142.708595
70
0
0
VERTEX
8
Layer 1
10
45.746917
20
142.424954
70
0
0
VERTEX
8
Layer 1
10
44.766911
20
142.327993
70
0
0
VERTEX
8
Layer 1
10
44.766911
20
142.327993
70
0
0
SEQEND
8
Layer 1
0
POLYLINE
8
Layer 1
62
7
70
0
10
0.000000
20
0.000000
66
1
0
VERTEX
8
Layer 1
10
44.766911
20
52.328106
70
0
0
VERTEX
8
Layer 1
10
43.759238
20
52.429688
70
0
0
VERTEX
8
Layer 1
10
42.820688
20
52.721030
70
0
0
VERTEX
8
Layer 1
10
41.971367
20
53.182027
70
0
0
VERTEX
8
Layer 1
10
41.231382
20
53.792570
70
0
0
VERTEX
8
Layer 1
10
40.620838
20
54.532556
70
0
0
VERTEX
8
Layer 1
10
40.159841
20
55.381877
70
0
0
VERTEX
8
Layer 1
10
39.868499
20
56.320427
70
0
0
VERTEX
8
Layer 1
10
39.766917
20
57.328100
70
0
0
VERTEX
8
Layer 1
10
39.868499
20
58.335774
70
0
0
VERTEX
8
Layer 1
10
40.159841
20
59.274324
70
0
0
VERTEX
8
Layer 1
10
40.620838
20
60.123645
70
0
0
VERTEX
8
Layer 1
10
41.231382
20
60.863630
70
0
0
VERTEX
8
Layer 1
10
41.971367
20
61.474174
70
0
0
VERTEX
8
Layer 1
10
42.820688
20
61.935170
70
0
0
VERTEX
8
Layer 1
10
43.759238
20
62.226513
70
0
0
VERTEX
8
Layer 1
10
44.766911
20
62.328095
70
0
0
VERTEX
8
Layer 1
10
45.774585
20
62.226513
70
0
0
VERTEX
8
Layer 1
10
46.713135
20
61.935170
70
0
0
VERTEX
8
Layer 1
10
47.562456
20
61.474174
70
0
0
VERTEX
8
Layer 1
10
48.302441
20
60.863630
70
0
0
VERTEX
8
Layer 1
10
48.912985
20
60.123645
70
0
0
VERTEX
8
Layer 1
10
49.373981
20
59.274324
70
0
0
VERTEX
8
Layer 1
10
49.665324
20
58.335774
70
0
0
VERTEX
8
Layer 1
10
49.766906
20
57.328100
70
0
0
VERTEX
8
Layer 1
10
49.669945
20
56.348095
70
0
0
VERTEX
8
Layer 1
10
49.386304
20
55.414685
70
0
0
VERTEX
8
Layer 1
10
48.926848
20
54.554101
70
0
0
VERTEX
8
Layer 1
10
48.302441
20
53.792570
70
0
0
VERTEX
8
Layer 1
10
47.540911
20
53.168164
70
0
0
VERTEX
8
Layer 1
10
46.680326
20
52.708708
70
0
0
VERTEX
8
Layer 1
10
45.746917
20
52.425067
70
0
0
VERTEX
8
Layer 1
10
44.766911
20
52.328106
70
0
0
VERTEX
8
Layer 1
10
44.766911
20
52.328106
70
0
0
SEQEND
8
Layer 1
0
POLYLINE
8
Layer 1
62
7
70
0
10
0.000000
20
0.000000
66
1
0
VERTEX
8
Layer 1
10
54.766884
20
52.328106
70
0
0
VERTEX
8
Layer 1
10
53.759211
20
52.429688
70
0
0
VERTEX
8
Layer 1
10
52.820661
20
52.721030
70
0
0
VERTEX
8
Layer 1
10
51.971340
20
53.182027
70
0
0
VERTEX
8
Layer 1
10
51.231354
20
53.792570
70
0
0
VERTEX
8
Layer 1
10
50.620810
20
54.532556
70
0
0
VERTEX
8
Layer 1
10
50.159814
20
55.381877
70
0
0
VERTEX
8
Layer 1
10
49.868472
20
56.320427
70
0
0
VERTEX
8
Layer 1
10
49.766890
20
57.328100
70
0
0
VERTEX
8
Layer 1
10
49.868472
20
58.335774
70
0
0
VERTEX
8
Layer 1
10
50.159814
20
59.274324
70
0
0
VERTEX
8
Layer 1
10
50.620810
20
60.123645
70
0
0
VERTEX
8
Layer 1
10
51.231354
20
60.863630
70
0
0
VERTEX
8
Layer 1
10
51.971340
20
61.474174
70
0
0
VERTEX
8
Layer 1
10
52.820661
20
61.935170
70
0
0
VERTEX
8
Layer 1
10
53.759211
20
62.226513
70
0
0
VERTEX
8
Layer 1
10
54.766884
20
62.328095
70
0
0
VERTEX
8
Layer 1
10
55.774557
20
62.226513
70
0
0
VERTEX
8
Layer 1
10
56.713108
20
61.935170
70
0
0
VERTEX
8
Layer 1
10
57.562428
20
61.474174
70
0
0
VERTEX
8
Layer 1
10
58.302414
20
60.863630
70
0
0
VERTEX
8
Layer 1
10
58.912958
20
60.123645
70
0
0
VERTEX
8
Layer 1
10
59.373954
20
59.274324
70
0
0
VERTEX
8
Layer 1
10
59.665296
20
58.335774
70
0
0
VERTEX
8
Layer 1
10
59.766878
20
57.328100
70
0
0
VERTEX
8
Layer 1
10
59.669917
20
56.348095
70
0
0
VERTEX
8
Layer 1
10
59.386276
20
55.414685
70
0
0
VERTEX
8
Layer 1
10
58.926821
20
54.554101
70
0
0
VERTEX
8
Layer 1
10
58.302414
20
53.792570
70
0
0
VERTEX
8
Layer 1
10
57.540883
20
53.168164
70
0
0
VERTEX
8
Layer 1
10
56.680299
20
52.708708
70
0
0
VERTEX
8
Layer 1
10
55.746890
20
52.425067
70
0
0
VERTEX
8
Layer 1
10
54.766884
20
52.328106
70
0
0
VERTEX
8
Layer 1
10
54.766884
20
52.328106
70
0
0
SEQEND
8
Layer 1
0
POLYLINE
8
Layer 1
62
7
70
0
10
0.000000
20
0.000000
66
1
0
VERTEX
8
Layer 1
10
64.766875
20
52.328106
70
0
0
VERTEX
8
Layer 1
10
63.759202
20
52.429688
70
0
0
VERTEX
8
Layer 1
10
62.820652
20
52.721030
70
0
0
VERTEX
8
Layer 1
10
61.971331
20
53.182027
70
0
0
VERTEX
8
Layer 1
10
61.231345
20
53.792570
70
0
0
VERTEX
8
Layer 1
10
60.620802
20
54.532556
70
0
0
VERTEX
8
Layer 1
10
60.159805
20
55.381877
70
0
0
VERTEX
8
Layer 1
10
59.868463
20
56.320427
70
0
0
VERTEX
8
Layer 1
10
59.766881
20
57.328100
70
0
0
VERTEX
8
Layer 1
10
59.868463
20
58.335774
70
0
0
VERTEX
8
Layer 1
10
60.159805
20
59.274324
70
0
0
VERTEX
8
Layer 1
10
60.620802
20
60.123645
70
0
0
VERTEX
8
Layer 1
10
61.231345
20
60.863630
70
0
0
VERTEX
8
Layer 1
10
61.971331
20
61.474174
70
0
0
VERTEX
8
Layer 1
10
62.820652
20
61.935170
70
0
0
VERTEX
8
Layer 1
10
63.759202
20
62.226513
70
0
0
VERTEX
8
Layer 1
10
64.766875
20
62.328095
70
0
0
VERTEX
8
Layer 1
10
65.774549
20
62.226513
70
0
0
VERTEX
8
Layer 1
10
66.713099
20
61.935170
70
0
0
VERTEX
8
Layer 1
10
67.562420
20
61.474174
70
0
0
VERTEX
8
Layer 1
10
68.302405
20
60.863630
70
0
0
VERTEX
8
Layer 1
10
68.912949
20
60.123645
70
0
0
VERTEX
8
Layer 1
10
69.373945
20
59.274324
70
0
0
VERTEX
8
Layer 1
10
69.665287
20
58.335774
70
0
0
VERTEX
8
Layer 1
10
69.766870
20
57.328100
70
0
0
VERTEX
8
Layer 1
10
69.669908
20
56.348095
70
0
0
VERTEX
8
Layer 1
10
69.386268
20
55.414685
70
0
0
VERTEX
8
Layer 1
10
68.926812
20
54.554101
70
0
0
VERTEX
8
Layer 1
10
68.302405
20
53.792570
70
0
0
VERTEX
8
Layer 1
10
67.540875
20
53.168164
70
0
0
VERTEX
8
Layer 1
10
66.680290
20
52.708708
70
0
0
VERTEX
8
Layer 1
10
65.746881
20
52.425067
70
0
0
VERTEX
8
Layer 1
10
64.766875
20
52.328106
70
0
0
VERTEX
8
Layer 1
10
64.766875
20
52.328106
70
0
0
SEQEND
8
Layer 1
0
POLYLINE
8
Layer 1
62
7
70
0
10
0.000000
20
0.000000
66
1
0
VERTEX
8
Layer 1
10
187.139630
20
15.778227
70
0
0
VERTEX
8
Layer 1
10
185.673518
20
15.997765
70
0
0
VERTEX
8
Layer 1
10
184.361782
20
16.620878
70
0
0
VERTEX
8
Layer 1
10
183.284121
20
17.594310
70
0
0
VERTEX
8
Layer 1
10
182.520237
20
18.864806
70
0
0
VERTEX
8
Layer 1
10
182.162008
20
20.303330
70
0
0
VERTEX
8
Layer 1
10
182.235709
20
21.753672
70
0
0
VERTEX
8
Layer 1
10
182.722640
20
23.121816
70
0
0
VERTEX
8
Layer 1
10
183.604100
20
24.313751
70
0
0
VERTEX
8
Layer 1
10
184.796034
20
25.195211
70
0
0
VERTEX
8
Layer 1
10
186.164179
20
25.682142
70
0
0
VERTEX
8
Layer 1
10
187.614521
20
25.755843
70
0
0
VERTEX
8
Layer 1
10
189.053045
20
25.397613
70
0
0
VERTEX
8
Layer 1
10
190.323541
20
24.633730
70
0
0
VERTEX
8
Layer 1
10
191.296973
20
23.556069
70
0
0
VERTEX
8
Layer 1
10
191.920085
20
22.244332
70
0
0
VERTEX
8
Layer 1
10
192.139624
20
20.778221
70
0
0
VERTEX
8
Layer 1
10
192.042663
20
19.798216
70
0
0
VERTEX
8
Layer 1
10
191.759022
20
18.864806
70
0
0
VERTEX
8
Layer 1
10
191.299566
20
18.004222
70
0
0
VERTEX
8
Layer 1
10
190.675159
20
17.242691
70
0
0
VERTEX
8
Layer 1
10
189.913629
20
16.618285
70
0
0
VERTEX
8
Layer 1
10
189.053045
20
16.158829
70
0
0
VERTEX
8
Layer 1
10
188.119635
20
15.875188
70
0
0
VERTEX
8
Layer 1
10
187.139630
20
15.778227
70
0
0
VERTEX
8
Layer 1
10
187.139630
20
15.778227
70
0
0
SEQEND
8
Layer 1
0
POLYLINE
8
Layer 1
62
7
70
0
10
0.000000
20
0.000000
66
1
0
VERTEX
8
Layer 1
10
229.139580
20
15.778227
70
0
0
VERTEX
8
Layer 1
10
228.131907
20
15.879809
70
0
0
VERTEX
8
Layer 1
10
227.193357
20
16.171151
70
0
0
VERTEX
8
Layer 1
10
226.344036
20
16.632147
70
0
0
VERTEX
8
Layer 1
10
225.604050
20
17.242691
70
0
0
VERTEX
8
Layer 1
10
224.993506
20
17.982677
70
0
0
VERTEX
8
Layer 1
10
224.532510
20
18.831998
70
0
0
VERTEX
8
Layer 1
10
224.241168
20
19.770548
70
0
0
VERTEX
8
Layer 1
10
224.139586
20
20.778221
70
0
0
VERTEX
8
Layer 1
10
224.241168
20
21.785894
70
0
0
VERTEX
8
Layer 1
10
224.532510
20
22.724444
70
0
0
VERTEX
8
Layer 1
10
224.993506
20
23.573765
70
0
0
VERTEX
8
Layer 1
10
225.604050
20
24.313751
70
0
0
VERTEX
8
Layer 1
10
226.344036
20
24.924295
70
0
0
VERTEX
8
Layer 1
10
227.193357
20
25.385291
70
0
0
VERTEX
8
Layer 1
10
228.131907
20
25.676633
70
0
0
VERTEX
8
Layer 1
10
229.139580
20
25.778215
70
0
0
VERTEX
8
Layer 1
10
230.147253
20
25.676633
70
0
0
VERTEX
8
Layer 1
10
231.085803
20
25.385291
70
0
0
VERTEX
8
Layer 1
10
231.935124
20
24.924295
70
0
0
VERTEX
8
Layer 1
10
232.675110
20
24.313751
70
0
0
VERTEX
8
Layer 1
10
233.285654
20
23.573765
70
0
0
VERTEX
8
Layer 1
10
233.746650
20
22.724444
70
0
0
VERTEX
8
Layer 1
10
234.037992
20
21.785894
70
0
0
VERTEX
8
Layer 1
10
234.139574
20
20.778221
70
0
0
VERTEX
8
Layer 1
10
234.042613
20
19.798216
70
0
0
VERTEX
8
Layer 1
10
233.758972
20
18.864806
70
0
0
VERTEX
8
Layer 1
10
233.299517
20
18.004222
70
0
0
VERTEX
8
Layer 1
10
232.675110
20
17.242691
70
0
0
VERTEX
8
Layer 1
10
231.913579
20
16.618285
70
0
0
VERTEX
8
Layer 1
10
231.052995
20
16.158829
70
0
0
VERTEX
8
Layer 1
10
230.119586
20
15.875188
70
0
0
VERTEX
8
Layer 1
10
229.139580
20
15.778227
70
0
0
VERTEX
8
Layer 1
10
229.139580
20
15.778227
70
0
0
SEQEND
8
Layer 1
0
POLYLINE
8
Layer 1
62
7
70
0
10
0.000000
20
0.000000
66
1
0
VERTEX
8
Layer 1
10
145.139687
20
83.781148
70
0
0
VERTEX
8
Layer 1
10
143.673576
20
84.000687
70
0
0
VERTEX
8
Layer 1
10
142.361839
20
84.623799
70
0
0
VERTEX
8
Layer 1
10
141.284178
20
85.597231
70
0
0
VERTEX
8
Layer 1
10
140.520295
20
86.867728
70
0
0
VERTEX
8
Layer 1
10
140.162065
20
88.306252
70
0
0
VERTEX
8
Layer 1
10
140.235766
20
89.756593
70
0
0
VERTEX
8
Layer 1
10
140.722697
20
91.124738
70
0
0
VERTEX
8
Layer 1
10
141.604157
20
92.316673
70
0
0
VERTEX
8
Layer 1
10
142.796092
20
93.198133
70
0
0
VERTEX
8
Layer 1
10
144.164237
20
93.685063
70
0
0
VERTEX
8
Layer 1
10
145.614578
20
93.758764
70
0
0
VERTEX
8
Layer 1
10
147.053102
20
93.400535
70
0
0
VERTEX
8
Layer 1
10
148.323599
20
92.636651
70
0
0
VERTEX
8
Layer 1
10
149.297030
20
91.558991
70
0
0
VERTEX
8
Layer 1
10
149.920143
20
90.247254
70
0
0
VERTEX
8
Layer 1
10
150.139681
20
88.781143
70
0
0
VERTEX
8
Layer 1
10
150.038099
20
87.773469
70
0
0
VERTEX
8
Layer 1
10
149.746757
20
86.834919
70
0
0
VERTEX
8
Layer 1
10
149.285761
20
85.985598
70
0
0
VERTEX
8
Layer 1
10
148.675217
20
85.245613
70
0
0
VERTEX
8
Layer 1
10
147.935232
20
84.635069
70
0
0
VERTEX
8
Layer 1
10
147.085911
20
84.174073
70
0
0
VERTEX
8
Layer 1
10
146.147360
20
83.882730
70
0
0
VERTEX
8
Layer 1
10
145.139687
20
83.781148
70
0
0
VERTEX
8
Layer 1
10
145.139687
20
83.781148
70
0
0
SEQEND
8
Layer 1
0
POLYLINE
8
Layer 1
62
7
70
0
10
0.000000
20
0.000000
66
1
0
VERTEX
8
Layer 1
10
187.139630
20
83.781148
70
0
0
VERTEX
8
Layer 1
10
185.673518
20
84.000687
70
0
0
VERTEX
8
Layer 1
10
184.361782
20
84.623799
70
0
0
VERTEX
8
Layer 1
10
183.284121
20
85.597231
70
0
0
VERTEX
8
Layer 1
10
182.520237
20
86.867728
70
0
0
VERTEX
8
Layer 1
10
182.162008
20
88.306252
70
0
0
VERTEX
8
Layer 1
10
182.235709
20
89.756593
70
0
0
VERTEX
8
Layer 1
10
182.722640
20
91.124738
70
0
0
VERTEX
8
Layer 1
10
183.604100
20
92.316673
70
0
0
VERTEX
8
Layer 1
10
184.796034
20
93.198133
70
0
0
VERTEX
8
Layer 1
10
186.164179
20
93.685063
70
0
0
VERTEX
8
Layer 1
10
187.614521
20
93.758764
70
0
0
VERTEX
8
Layer 1
10
189.053045
20
93.400535
70
0
0
VERTEX
8
Layer 1
10
190.323541
20
92.636651
70
0
0
VERTEX
8
Layer 1
10
191.296973
20
91.558991
70
0
0
VERTEX
8
Layer 1
10
191.920085
20
90.247254
70
0
0
VERTEX
8
Layer 1
10
192.139624
20
88.781143
70
0
0
VERTEX
8
Layer 1
10
192.042663
20
87.801137
70
0
0
VERTEX
8
Layer 1
10
191.759022
20
86.867728
70
0
0
VERTEX
8
Layer 1
10
191.299566
20
86.007143
70
0
0
VERTEX
8
Layer 1
10
190.675159
20
85.245613
70
0
0
VERTEX
8
Layer 1
10
189.913629
20
84.621206
70
0
0
VERTEX
8
Layer 1
10
189.053045
20
84.161750
70
0
0
VERTEX
8
Layer 1
10
188.119635
20
83.878110
70
0
0
VERTEX
8
Layer 1
10
187.139630
20
83.781148
70
0
0
VERTEX
8
Layer 1
10
187.139630
20
83.781148
70
0
0
SEQEND
8
Layer 1
0
POLYLINE
8
Layer 1
62
7
70
0
10
0.000000
20
0.000000
66
1
0
VERTEX
8
Layer 1
10
229.139580
20
83.781148
70
0
0
VERTEX
8
Layer 1
10
228.131907
20
83.882730
70
0
0
VERTEX
8
Layer 1
10
227.193357
20
84.174073
70
0
0
VERTEX
8
Layer 1
10
226.344036
20
84.635069
70
0
0
VERTEX
8
Layer 1
10
225.604050
20
85.245613
70
0
0
VERTEX
8
Layer 1
10
224.993506
20
85.985598
70
0
0
VERTEX
8
Layer 1
10
224.532510
20
86.834919
70
0
0
VERTEX
8
Layer 1
10
224.241168
20
87.773469
70
0
0
VERTEX
8
Layer 1
10
224.139586
20
88.781143
70
0
0
VERTEX
8
Layer 1
10
224.241168
20
89.788816
70
0
0
VERTEX
8
Layer 1
10
224.532510
20
90.727366
70
0
0
VERTEX
8
Layer 1
10
224.993506
20
91.576687
70
0
0
VERTEX
8
Layer 1
10
225.604050
20
92.316673
70
0
0
VERTEX
8
Layer 1
10
226.344036
20
92.927216
70
0
0
VERTEX
8
Layer 1
10
227.193357
20
93.388213
70
0
0
VERTEX
8
Layer 1
10
228.131907
20
93.679555
70
0
0
VERTEX
8
Layer 1
10
229.139580
20
93.781137
70
0
0
VERTEX
8
Layer 1
10
230.147253
20
93.679555
70
0
0
VERTEX
8
Layer 1
10
231.085803
20
93.388213
70
0
0
VERTEX
8
Layer 1
10
231.935124
20
92.927216
70
0
0
VERTEX
8
Layer 1
10
232.675110
20
92.316673
70
0
0
VERTEX
8
Layer 1
10
233.285654
20
91.576687
70
0
0
VERTEX
8
Layer 1
10
233.746650
20
90.727366
70
0
0
VERTEX
8
Layer 1
10
234.037992
20
89.788816
70
0
0
VERTEX
8
Layer 1
10
234.139574
20
88.781143
70
0
0
VERTEX
8
Layer 1
10
234.042613
20
87.801137
70
0
0
VERTEX
8
Layer 1
10
233.758972
20
86.867728
70
0
0
VERTEX
8
Layer 1
10
233.299517
20
86.007143
70
0
0
VERTEX
8
Layer 1
10
232.675110
20
85.245613
70
0
0
VERTEX
8
Layer 1
10
231.913579
20
84.621206
70
0
0
VERTEX
8
Layer 1
10
231.052995
20
84.161750
70
0
0
VERTEX
8
Layer 1
10
230.119586
20
83.878110
70
0
0
VERTEX
8
Layer 1
10
229.139580
20
83.781148
70
0
0
VERTEX
8
Layer 1
10
229.139580
20
83.781148
70
0
0
SEQEND
8
Layer 1
0
POLYLINE
8
Layer 1
62
7
70
0
10
0.000000
20
0.000000
66
1
0
VERTEX
8
Layer 1
10
271.139528
20
83.781148
70
0
0
VERTEX
8
Layer 1
10
269.673416
20
84.000687
70
0
0
VERTEX
8
Layer 1
10
268.361680
20
84.623799
70
0
0
VERTEX
8
Layer 1
10
267.284019
20
85.597231
70
0
0
VERTEX
8
Layer 1
10
266.520135
20
86.867728
70
0
0
VERTEX
8
Layer 1
10
266.161906
20
88.306252
70
0
0
VERTEX
8
Layer 1
10
266.235607
20
89.756593
70
0
0
VERTEX
8
Layer 1
10
266.722538
20
91.124738
70
0
0
VERTEX
8
Layer 1
10
267.603998
20
92.316673
70
0
0
VERTEX
8
Layer 1
10
268.795932
20
93.198133
70
0
0
VERTEX
8
Layer 1
10
270.164077
20
93.685063
70
0
0
VERTEX
8
Layer 1
10
271.614419
20
93.758764
70
0
0
VERTEX
8
Layer 1
10
273.052943
20
93.400535
70
0
0
VERTEX
8
Layer 1
10
274.323439
20
92.636651
70
0
0
VERTEX
8
Layer 1
10
275.296871
20
91.558991
70
0
0
VERTEX
8
Layer 1
10
275.919984
20
90.247254
70
0
0
VERTEX
8
Layer 1
10
276.139522
20
88.781143
70
0
0
VERTEX
8
Layer 1
10
276.037940
20
87.773469
70
0
0
VERTEX
8
Layer 1
10
275.746598
20
86.834919
70
0
0
VERTEX
8
Layer 1
10
275.285602
20
85.985598
70
0
0
VERTEX
8
Layer 1
10
274.675058
20
85.245613
70
0
0
VERTEX
8
Layer 1
10
273.935072
20
84.635069
70
0
0
VERTEX
8
Layer 1
10
273.085751
20
84.174073
70
0
0
VERTEX
8
Layer 1
10
272.147201
20
83.882730
70
0
0
VERTEX
8
Layer 1
10
271.139528
20
83.781148
70
0
0
VERTEX
8
Layer 1
10
271.139528
20
83.781148
70
0
0
SEQEND
8
Layer 1
0
POLYLINE
8
Layer 1
62
7
70
0
10
0.000000
20
0.000000
66
1
0
VERTEX
8
Layer 1
10
145.139687
20
49.779185
70
0
0
VERTEX
8
Layer 1
10
143.673576
20
49.998723
70
0
0
VERTEX
8
Layer 1
10
142.361839
20
50.621836
70
0
0
VERTEX
8
Layer 1
10
141.284178
20
51.595268
70
0
0
VERTEX
8
Layer 1
10
140.520295
20
52.865764
70
0
0
VERTEX
8
Layer 1
10
140.162065
20
54.304288
70
0
0
VERTEX
8
Layer 1
10
140.235766
20
55.754630
70
0
0
VERTEX
8
Layer 1
10
140.722697
20
57.122775
70
0
0
VERTEX
8
Layer 1
10
141.604157
20
58.314709
70
0
0
VERTEX
8
Layer 1
10
142.796092
20
59.196169
70
0
0
VERTEX
8
Layer 1
10
144.164237
20
59.683100
70
0
0
VERTEX
8
Layer 1
10
145.614578
20
59.756801
70
0
0
VERTEX
8
Layer 1
10
147.053102
20
59.398572
70
0
0
VERTEX
8
Layer 1
10
148.323599
20
58.634688
70
0
0
VERTEX
8
Layer 1
10
149.297030
20
57.557027
70
0
0
VERTEX
8
Layer 1
10
149.920143
20
56.245291
70
0
0
VERTEX
8
Layer 1
10
150.139681
20
54.779179
70
0
0
VERTEX
8
Layer 1
10
150.038099
20
53.771506
70
0
0
VERTEX
8
Layer 1
10
149.746757
20
52.832956
70
0
0
VERTEX
8
Layer 1
10
149.285761
20
51.983635
70
0
0
VERTEX
8
Layer 1
10
148.675217
20
51.243649
70
0
0
VERTEX
8
Layer 1
10
147.935232
20
50.633105
70
0
0
VERTEX
8
Layer 1
10
147.085911
20
50.172109
70
0
0
VERTEX
8
Layer 1
10
146.147360
20
49.880767
70
0
0
VERTEX
8
Layer 1
10
145.139687
20
49.779185
70
0
0
VERTEX
8
Layer 1
10
145.139687
20
49.779185
70
0
0
SEQEND
8
Layer 1
0
POLYLINE
8
Layer 1
62
7
70
0
10
0.000000
20
0.000000
66
1
0
VERTEX
8
Layer 1
10
187.139630
20
49.779185
70
0
0
VERTEX
8
Layer 1
10
185.673518
20
49.998723
70
0
0
VERTEX
8
Layer 1
10
184.361782
20
50.621836
70
0
0
VERTEX
8
Layer 1
10
183.284121
20
51.595268
70
0
0
VERTEX
8
Layer 1
10
182.520237
20
52.865764
70
0
0
VERTEX
8
Layer 1
10
182.162008
20
54.304288
70
0
0
VERTEX
8
Layer 1
10
182.235709
20
55.754630
70
0
0
VERTEX
8
Layer 1
10
182.722640
20
57.122775
70
0
0
VERTEX
8
Layer 1
10
183.604100
20
58.314709
70
0
0
VERTEX
8
Layer 1
10
184.796034
20
59.196169
70
0
0
VERTEX
8
Layer 1
10
186.164179
20
59.683100
70
0
0
VERTEX
8
Layer 1
10
187.614521
20
59.756801
70
0
0
VERTEX
8
Layer 1
10
189.053045
20
59.398572
70
0
0
VERTEX
8
Layer 1
10
190.323541
20
58.634688
70
0
0
VERTEX
8
Layer 1
10
191.296973
20
57.557027
70
0
0
VERTEX
8
Layer 1
10
191.920085
20
56.245291
70
0
0
VERTEX
8
Layer 1
10
192.139624
20
54.779179
70
0
0
VERTEX
8
Layer 1
10
192.042663
20
53.799174
70
0
0
VERTEX
8
Layer 1
10
191.759022
20
52.865764
70
0
0
VERTEX
8
Layer 1
10
191.299566
20
52.005180
70
0
0
VERTEX
8
Layer 1
10
190.675159
20
51.243649
70
0
0
VERTEX
8
Layer 1
10
189.913629
20
50.619243
70
0
0
VERTEX
8
Layer 1
10
189.053045
20
50.159787
70
0
0
VERTEX
8
Layer 1
10
188.119635
20
49.876146
70
0
0
VERTEX
8
Layer 1
10
187.139630
20
49.779185
70
0
0
VERTEX
8
Layer 1
10
187.139630
20
49.779185
70
0
0
SEQEND
8
Layer 1
0
POLYLINE
8
Layer 1
62
7
70
0
10
0.000000
20
0.000000
66
1
0
VERTEX
8
Layer 1
10
229.139580
20
49.779185
70
0
0
VERTEX
8
Layer 1
10
228.131907
20
49.880767
70
0
0
VERTEX
8
Layer 1
10
227.193357
20
50.172109
70
0
0
VERTEX
8
Layer 1
10
226.344036
20
50.633105
70
0
0
VERTEX
8
Layer 1
10
225.604050
20
51.243649
70
0
0
VERTEX
8
Layer 1
10
224.993506
20
51.983635
70
0
0
VERTEX
8
Layer 1
10
224.532510
20
52.832956
70
0
0
VERTEX
8
Layer 1
10
224.241168
20
53.771506
70
0
0
VERTEX
8
Layer 1
10
224.139586
20
54.779179
70
0
0
VERTEX
8
Layer 1
10
224.241168
20
55.786852
70
0
0
VERTEX
8
Layer 1
10
224.532510
20
56.725403
70
0
0
VERTEX
8
Layer 1
10
224.993506
20
57.574724
70
0
0
VERTEX
8
Layer 1
10
225.604050
20
58.314709
70
0
0
VERTEX
8
Layer 1
10
226.344036
20
58.925253
70
0
0
VERTEX
8
Layer 1
10
227.193357
20
59.386249
70
0
0
VERTEX
8
Layer 1
10
228.131907
20
59.677591
70
0
0
VERTEX
8
Layer 1
10
229.139580
20
59.779173
70
0
0
VERTEX
8
Layer 1
10
230.147253
20
59.677591
70
0
0
VERTEX
8
Layer 1
10
231.085803
20
59.386249
70
0
0
VERTEX
8
Layer 1
10
231.935124
20
58.925253
70
0
0
VERTEX
8
Layer 1
10
232.675110
20
58.314709
70
0
0
VERTEX
8
Layer 1
10
233.285654
20
57.574724
70
0
0
VERTEX
8
Layer 1
10
233.746650
20
56.725403
70
0
0
VERTEX
8
Layer 1
10
234.037992
20
55.786852
70
0
0
VERTEX
8
Layer 1
10
234.139574
20
54.779179
70
0
0
VERTEX
8
Layer 1
10
234.042613
20
53.799174
70
0
0
VERTEX
8
Layer 1
10
233.758972
20
52.865764
70
0
0
VERTEX
8
Layer 1
10
233.299517
20
52.005180
70
0
0
VERTEX
8
Layer 1
10
232.675110
20
51.243649
70
0
0
VERTEX
8
Layer 1
10
231.913579
20
50.619243
70
0
0
VERTEX
8
Layer 1
10
231.052995
20
50.159787
70
0
0
VERTEX
8
Layer 1
10
230.119586
20
49.876146
70
0
0
VERTEX
8
Layer 1
10
229.139580
20
49.779185
70
0
0
VERTEX
8
Layer 1
10
229.139580
20
49.779185
70
0
0
SEQEND
8
Layer 1
0
POLYLINE
8
Layer 1
62
7
70
0
10
0.000000
20
0.000000
66
1
0
VERTEX
8
Layer 1
10
271.139528
20
49.779185
70
0
0
VERTEX
8
Layer 1
10
269.673416
20
49.998723
70
0
0
VERTEX
8
Layer 1
10
268.361680
20
50.621836
70
0
0
VERTEX
8
Layer 1
10
267.284019
20
51.595268
70
0
0
VERTEX
8
Layer 1
10
266.520135
20
52.865764
70
0
0
VERTEX
8
Layer 1
10
266.161906
20
54.304288
70
0
0
VERTEX
8
Layer 1
10
266.235607
20
55.754630
70
0
0
VERTEX
8
Layer 1
10
266.722538
20
57.122775
70
0
0
VERTEX
8
Layer 1
10
267.603998
20
58.314709
70
0
0
VERTEX
8
Layer 1
10
268.795932
20
59.196169
70
0
0
VERTEX
8
Layer 1
10
270.164077
20
59.683100
70
0
0
VERTEX
8
Layer 1
10
271.614419
20
59.756801
70
0
0
VERTEX
8
Layer 1
10
273.052943
20
59.398572
70
0
0
VERTEX
8
Layer 1
10
274.323439
20
58.634688
70
0
0
VERTEX
8
Layer 1
10
275.296871
20
57.557027
70
0
0
VERTEX
8
Layer 1
10
275.919984
20
56.245291
70
0
0
VERTEX
8
Layer 1
10
276.139522
20
54.779179
70
0
0
VERTEX
8
Layer 1
10
276.037940
20
53.771506
70
0
0
VERTEX
8
Layer 1
10
275.746598
20
52.832956
70
0
0
VERTEX
8
Layer 1
10
275.285602
20
51.983635
70
0
0
VERTEX
8
Layer 1
10
274.675058
20
51.243649
70
0
0
VERTEX
8
Layer 1
10
273.935072
20
50.633105
70
0
0
VERTEX
8
Layer 1
10
273.085751
20
50.172109
70
0
0
VERTEX
8
Layer 1
10
272.147201
20
49.880767
70
0
0
VERTEX
8
Layer 1
10
271.139528
20
49.779185
70
0
0
VERTEX
8
Layer 1
10
271.139528
20
49.779185
70
0
0
SEQEND
8
Layer 1
0
POLYLINE
8
Layer 1
62
7
70
0
10
0.000000
20
0.000000
66
1
0
VERTEX
8
Layer 1
10
271.139528
20
15.778227
70
0
0
VERTEX
8
Layer 1
10
269.673416
20
15.997765
70
0
0
VERTEX
8
Layer 1
10
268.361680
20
16.620878
70
0
0
VERTEX
8
Layer 1
10
267.284019
20
17.594310
70
0
0
VERTEX
8
Layer 1
10
266.520135
20
18.864806
70
0
0
VERTEX
8
Layer 1
10
266.161906
20
20.303330
70
0
0
VERTEX
8
Layer 1
10
266.235607
20
21.753672
70
0
0
VERTEX
8
Layer 1
10
266.722538
20
23.121816
70
0
0
VERTEX
8
Layer 1
10
267.603998
20
24.313751
70
0
0
VERTEX
8
Layer 1
10
268.795932
20
25.195211
70
0
0
VERTEX
8
Layer 1
10
270.164077
20
25.682142
70
0
0
VERTEX
8
Layer 1
10
271.614419
20
25.755843
70
0
0
VERTEX
8
Layer 1
10
273.052943
20
25.397613
70
0
0
VERTEX
8
Layer 1
10
274.323439
20
24.633730
70
0
0
VERTEX
8
Layer 1
10
275.296871
20
23.556069
70
0
0
VERTEX
8
Layer 1
10
275.919984
20
22.244332
70
0
0
VERTEX
8
Layer 1
10
276.139522
20
20.778221
70
0
0
VERTEX
8
Layer 1
10
276.037940
20
19.770548
70
0
0
VERTEX
8
Layer 1
10
275.746598
20
18.831998
70
0
0
VERTEX
8
Layer 1
10
275.285602
20
17.982677
70
0
0
VERTEX
8
Layer 1
10
274.675058
20
17.242691
70
0
0
VERTEX
8
Layer 1
10
273.935072
20
16.632147
70
0
0
VERTEX
8
Layer 1
10
273.085751
20
16.171151
70
0
0
VERTEX
8
Layer 1
10
272.147201
20
15.879809
70
0
0
VERTEX
8
Layer 1
10
271.139528
20
15.778227
70
0
0
VERTEX
8
Layer 1
10
271.139528
20
15.778227
70
0
0
SEQEND
8
Layer 1
0
POLYLINE
8
Layer 1
62
7
70
0
10
0.000000
20
0.000000
66
1
0
VERTEX
8
Layer 1
10
145.139687
20
15.778227
70
0
0
VERTEX
8
Layer 1
10
143.673576
20
15.997765
70
0
0
VERTEX
8
Layer 1
10
142.361839
20
16.620878
70
0
0
VERTEX
8
Layer 1
10
141.284178
20
17.594310
70
0
0
VERTEX
8
Layer 1
10
140.520295
20
18.864806
70
0
0
VERTEX
8
Layer 1
10
140.162065
20
20.303330
70
0
0
VERTEX
8
Layer 1
10
140.235766
20
21.753672
70
0
0
VERTEX
8
Layer 1
10
140.722697
20
23.121816
70
0
0
VERTEX
8
Layer 1
10
141.604157
20
24.313751
70
0
0
VERTEX
8
Layer 1
10
142.796092
20
25.195211
70
0
0
VERTEX
8
Layer 1
10
144.164237
20
25.682142
70
0
0
VERTEX
8
Layer 1
10
145.614578
20
25.755843
70
0
0
VERTEX
8
Layer 1
10
147.053102
20
25.397613
70
0
0
VERTEX
8
Layer 1
10
148.323599
20
24.633730
70
0
0
VERTEX
8
Layer 1
10
149.297030
20
23.556069
70
0
0
VERTEX
8
Layer 1
10
149.920143
20
22.244332
70
0
0
VERTEX
8
Layer 1
10
150.139681
20
20.778221
70
0
0
VERTEX
8
Layer 1
10
150.042720
20
19.798216
70
0
0
VERTEX
8
Layer 1
10
149.759080
20
18.864806
70
0
0
VERTEX
8
Layer 1
10
149.299624
20
18.004222
70
0
0
VERTEX
8
Layer 1
10
148.675217
20
17.242691
70
0
0
VERTEX
8
Layer 1
10
147.913687
20
16.618285
70
0
0
VERTEX
8
Layer 1
10
147.053102
20
16.158829
70
0
0
VERTEX
8
Layer 1
10
146.119693
20
15.875188
70
0
0
VERTEX
8
Layer 1
10
145.139687
20
15.778227
70
0
0
VERTEX
8
Layer 1
10
145.139687
20
15.778227
70
0
0
SEQEND
8
Layer 1
0
POLYLINE
8
Layer 1
62
7
70
0
10
0.000000
20
0.000000
66
1
0
VERTEX
8
Layer 1
10
126.146401
20
175.271291
70
0
0
VERTEX
8
Layer 1
10
125.138727
20
175.372873
70
0
0
VERTEX
8
Layer 1
10
124.200177
20
175.664215
70
0
0
VERTEX
8
Layer 1
10
123.350856
20
176.125211
70
0
0
VERTEX
8
Layer 1
10
122.610871
20
176.735755
70
0
0
VERTEX
8
Layer 1
10
122.000327
20
177.475741
70
0
0
VERTEX
8
Layer 1
10
121.539331
20
178.325062
70
0
0
VERTEX
8
Layer 1
10
121.247989
20
179.263612
70
0
0
VERTEX
8
Layer 1
10
121.146406
20
180.271285
70
0
0
VERTEX
8
Layer 1
10
121.247989
20
181.278958
70
0
0
VERTEX
8
Layer 1
10
121.539331
20
182.217508
70
0
0
VERTEX
8
Layer 1
10
122.000327
20
183.066829
70
0
0
VERTEX
8
Layer 1
10
122.610871
20
183.806815
70
0
0
VERTEX
8
Layer 1
10
123.350856
20
184.417359
70
0
0
VERTEX
8
Layer 1
10
124.200177
20
184.878355
70
0
0
VERTEX
8
Layer 1
10
125.138727
20
185.169697
70
0
0
VERTEX
8
Layer 1
10
126.146401
20
185.271279
70
0
0
VERTEX
8
Layer 1
10
127.154074
20
185.169697
70
0
0
VERTEX
8
Layer 1
10
128.092624
20
184.878355
70
0
0
VERTEX
8
Layer 1
10
128.941945
20
184.417359
70
0
0
VERTEX
8
Layer 1
10
129.681931
20
183.806815
70
0
0
VERTEX
8
Layer 1
10
130.292474
20
183.066829
70
0
0
VERTEX
8
Layer 1
10
130.753471
20
182.217508
70
0
0
VERTEX
8
Layer 1
10
131.044813
20
181.278958
70
0
0
VERTEX
8
Layer 1
10
131.146395
20
180.271285
70
0
0
VERTEX
8
Layer 1
10
131.049434
20
179.291279
70
0
0
VERTEX
8
Layer 1
10
130.765793
20
178.357870
70
0
0
VERTEX
8
Layer 1
10
130.306337
20
177.497286
70
0
0
VERTEX
8
Layer 1
10
129.681931
20
176.735755
70
0
0
VERTEX
8
Layer 1
10
128.920400
20
176.111348
70
0
0
VERTEX
8
Layer 1
10
128.059816
20
175.651893
70
0
0
VERTEX
8
Layer 1
10
127.126406
20
175.368252
70
0
0
VERTEX
8
Layer 1
10
126.146401
20
175.271291
70
0
0
VERTEX
8
Layer 1
10
126.146401
20
175.271291
70
0
0
SEQEND
8
Layer 1
0
POLYLINE
8
Layer 1
62
7
70
0
10
0.000000
20
0.000000
66
1
0
VERTEX
8
Layer 1
10
126.146401
20
103.271380
70
0
0
VERTEX
8
Layer 1
10
125.138727
20
103.372962
70
0
0
VERTEX
8
Layer 1
10
124.200177
20
103.664305
70
0
0
VERTEX
8
Layer 1
10
123.350856
20
104.125301
70
0
0
VERTEX
8
Layer 1
10
122.610871
20
104.735845
70
0
0
VERTEX
8
Layer 1
10
122.000327
20
105.475830
70
0
0
VERTEX
8
Layer 1
10
121.539331
20
106.325151
70
0
0
VERTEX
8
Layer 1
10
121.247989
20
107.263701
70
0
0
VERTEX
8
Layer 1
10
121.146406
20
108.271374
70
0
0
VERTEX
8
Layer 1
10
121.247989
20
109.279048
70
0
0
VERTEX
8
Layer 1
10
121.539331
20
110.217598
70
0
0
VERTEX
8
Layer 1
10
122.000327
20
111.066919
70
0
0
VERTEX
8
Layer 1
10
122.610871
20
111.806904
70
0
0
VERTEX
8
Layer 1
10
123.350856
20
112.417448
70
0
0
VERTEX
8
Layer 1
10
124.200177
20
112.878444
70
0
0
VERTEX
8
Layer 1
10
125.138727
20
113.169787
70
0
0
VERTEX
8
Layer 1
10
126.146401
20
113.271369
70
0
0
VERTEX
8
Layer 1
10
127.154074
20
113.169787
70
0
0
VERTEX
8
Layer 1
10
128.092624
20
112.878444
70
0
0
VERTEX
8
Layer 1
10
128.941945
20
112.417448
70
0
0
VERTEX
8
Layer 1
10
129.681931
20
111.806904
70
0
0
VERTEX
8
Layer 1
10
130.292474
20
111.066919
70
0
0
VERTEX
8
Layer 1
10
130.753471
20
110.217598
70
0
0
VERTEX
8
Layer 1
10
131.044813
20
109.279048
70
0
0
VERTEX
8
Layer 1
10
131.146395
20
108.271374
70
0
0
VERTEX
8
Layer 1
10
131.049434
20
107.291369
70
0
0
VERTEX
8
Layer 1
10
130.765793
20
106.357959
70
0
0
VERTEX
8
Layer 1
10
130.306337
20
105.497375
70
0
0
VERTEX
8
Layer 1
10
129.681931
20
104.735845
70
0
0
VERTEX
8
Layer 1
10
128.920400
20
104.111438
70
0
0
VERTEX
8
Layer 1
10
128.059816
20
103.651982
70
0
0
VERTEX
8
Layer 1
10
127.126406
20
103.368341
70
0
0
VERTEX
8
Layer 1
10
126.146401
20
103.271380
70
0
0
VERTEX
8
Layer 1
10
126.146401
20
103.271380
70
0
0
SEQEND
8
Layer 1
0
POLYLINE
8
Layer 1
62
7
70
0
10
0.000000
20
0.000000
66
1
0
VERTEX
8
Layer 1
10
276.146219
20
175.271291
70
0
0
VERTEX
8
Layer 1
10
274.680107
20
175.490829
70
0
0
VERTEX
8
Layer 1
10
273.368371
20
176.113942
70
0
0
VERTEX
8
Layer 1
10
272.290710
20
177.087373
70
0
0
VERTEX
8
Layer 1
10
271.526826
20
178.357870
70
0
0
VERTEX
8
Layer 1
10
271.168597
20
179.796394
70
0
0
VERTEX
8
Layer 1
10
271.242298
20
181.246735
70
0
0
VERTEX
8
Layer 1
10
271.729229
20
182.614880
70
0
0
VERTEX
8
Layer 1
10
272.610689
20
183.806815
70
0
0
VERTEX
8
Layer 1
10
273.802623
20
184.688275
70
0
0
VERTEX
8
Layer 1
10
275.170768
20
185.175206
70
0
0
VERTEX
8
Layer 1
10
276.621110
20
185.248907
70
0
0
VERTEX
8
Layer 1
10
278.059634
20
184.890677
70
0
0
VERTEX
8
Layer 1
10
279.330130
20
184.126794
70
0
0
VERTEX
8
Layer 1
10
280.303562
20
183.049133
70
0
0
VERTEX
8
Layer 1
10
280.926674
20
181.737396
70
0
0
VERTEX
8
Layer 1
10
281.146213
20
180.271285
70
0
0
VERTEX
8
Layer 1
10
281.044631
20
179.263612
70
0
0
VERTEX
8
Layer 1
10
280.753289
20
178.325062
70
0
0
VERTEX
8
Layer 1
10
280.292292
20
177.475741
70
0
0
VERTEX
8
Layer 1
10
279.681749
20
176.735755
70
0
0
VERTEX
8
Layer 1
10
278.941763
20
176.125211
70
0
0
VERTEX
8
Layer 1
10
278.092442
20
175.664215
70
0
0
VERTEX
8
Layer 1
10
277.153892
20
175.372873
70
0
0
VERTEX
8
Layer 1
10
276.146219
20
175.271291
70
0
0
VERTEX
8
Layer 1
10
276.146219
20
175.271291
70
0
0
SEQEND
8
Layer 1
0
POLYLINE
8
Layer 1
62
7
70
0
10
0.000000
20
0.000000
66
1
0
VERTEX
8
Layer 1
10
276.146219
20
103.271380
70
0
0
VERTEX
8
Layer 1
10
274.680107
20
103.490919
70
0
0
VERTEX
8
Layer 1
10
273.368371
20
104.114031
70
0
0
VERTEX
8
Layer 1
10
272.290710
20
105.087463
70
0
0
VERTEX
8
Layer 1
10
271.526826
20
106.357959
70
0
0
VERTEX
8
Layer 1
10
271.168597
20
107.796484
70
0
0
VERTEX
8
Layer 1
10
271.242298
20
109.246825
70
0
0
VERTEX
8
Layer 1
10
271.729229
20
110.614970
70
0
0
VERTEX
8
Layer 1
10
272.610689
20
111.806904
70
0
0
VERTEX
8
Layer 1
10
273.802623
20
112.688364
70
0
0
VERTEX
8
Layer 1
10
275.170768
20
113.175295
70
0
0
VERTEX
8
Layer 1
10
276.621110
20
113.248996
70
0
0
VERTEX
8
Layer 1
10
278.059634
20
112.890767
70
0
0
VERTEX
8
Layer 1
10
279.330130
20
112.126883
70
0
0
VERTEX
8
Layer 1
10
280.303562
20
111.049222
70
0
0
VERTEX
8
Layer 1
10
280.926674
20
109.737486
70
0
0
VERTEX
8
Layer 1
10
281.146213
20
108.271374
70
0
0
VERTEX
8
Layer 1
10
281.044631
20
107.263701
70
0
0
VERTEX
8
Layer 1
10
280.753289
20
106.325151
70
0
0
VERTEX
8
Layer 1
10
280.292292
20
105.475830
70
0
0
VERTEX
8
Layer 1
10
279.681749
20
104.735845
70
0
0
VERTEX
8
Layer 1
10
278.941763
20
104.125301
70
0
0
VERTEX
8
Layer 1
10
278.092442
20
103.664305
70
0
0
VERTEX
8
Layer 1
10
277.153892
20
103.372962
70
0
0
VERTEX
8
Layer 1
10
276.146219
20
103.271380
70
0
0
VERTEX
8
Layer 1
10
276.146219
20
103.271380
70
0
0
SEQEND
8
Layer 1
0
POLYLINE
8
Layer 1
62
7
70
0
10
0.000000
20
0.000000
66
1
0
VERTEX
8
Layer 1
10
169.146350
20
139.271334
70
0
0
VERTEX
8
Layer 1
10
167.680239
20
139.490872
70
0
0
VERTEX
8
Layer 1
10
166.368502
20
140.113985
70
0
0
VERTEX
8
Layer 1
10
165.290842
20
141.087416
70
0
0
VERTEX
8
Layer 1
10
164.526958
20
142.357913
70
0
0
VERTEX
8
Layer 1
10
164.168729
20
143.796437
70
0
0
VERTEX
8
Layer 1
10
164.242430
20
145.246778
70
0
0
VERTEX
8
Layer 1
10
164.729361
20
146.614923
70
0
0
VERTEX
8
Layer 1
10
165.610821
20
147.806858
70
0
0
VERTEX
8
Layer 1
10
166.802755
20
148.688318
70
0
0
VERTEX
8
Layer 1
10
168.170900
20
149.175249
70
0
0
VERTEX
8
Layer 1
10
169.621241
20
149.248950
70
0
0
VERTEX
8
Layer 1
10
171.059765
20
148.890720
70
0
0
VERTEX
8
Layer 1
10
172.330262
20
148.126837
70
0
0
VERTEX
8
Layer 1
10
173.303694
20
147.049176
70
0
0
VERTEX
8
Layer 1
10
173.926806
20
145.737439
70
0
0
VERTEX
8
Layer 1
10
174.146345
20
144.271328
70
0
0
VERTEX
8
Layer 1
10
174.049384
20
143.291322
70
0
0
VERTEX
8
Layer 1
10
173.765743
20
142.357913
70
0
0
VERTEX
8
Layer 1
10
173.306287
20
141.497329
70
0
0
VERTEX
8
Layer 1
10
172.681880
20
140.735798
70
0
0
VERTEX
8
Layer 1
10
171.920350
20
140.111391
70
0
0
VERTEX
8
Layer 1
10
171.059765
20
139.651936
70
0
0
VERTEX
8
Layer 1
10
170.126356
20
139.368295
70
0
0
VERTEX
8
Layer 1
10
169.146350
20
139.271334
70
0
0
VERTEX
8
Layer 1
10
169.146350
20
139.271334
70
0
0
SEQEND
8
Layer 1
0
POLYLINE
8
Layer 1
62
7
70
0
10
0.000000
20
0.000000
66
1
0
VERTEX
8
Layer 1
10
233.146269
20
139.271334
70
0
0
VERTEX
8
Layer 1
10
231.680158
20
139.490872
70
0
0
VERTEX
8
Layer 1
10
230.368421
20
140.113985
70
0
0
VERTEX
8
Layer 1
10
229.290761
20
141.087416
70
0
0
VERTEX
8
Layer 1
10
228.526877
20
142.357913
70
0
0
VERTEX
8
Layer 1
10
228.168648
20
143.796437
70
0
0
VERTEX
8
Layer 1
10
228.242349
20
145.246778
70
0
0
VERTEX
8
Layer 1
10
228.729279
20
146.614923
70
0
0
VERTEX
8
Layer 1
10
229.610740
20
147.806858
70
0
0
VERTEX
8
Layer 1
10
230.802674
20
148.688318
70
0
0
VERTEX
8
Layer 1
10
232.170819
20
149.175249
70
0
0
VERTEX
8
Layer 1
10
233.621160
20
149.248950
70
0
0
VERTEX
8
Layer 1
10
235.059684
20
148.890720
70
0
0
VERTEX
8
Layer 1
10
236.330181
20
148.126837
70
0
0
VERTEX
8
Layer 1
10
237.303613
20
147.049176
70
0
0
VERTEX
8
Layer 1
10
237.926725
20
145.737439
70
0
0
VERTEX
8
Layer 1
10
238.146264
20
144.271328
70
0
0
VERTEX
8
Layer 1
10
238.049302
20
143.291322
70
0
0
VERTEX
8
Layer 1
10
237.765662
20
142.357913
70
0
0
VERTEX
8
Layer 1
10
237.306206
20
141.497329
70
0
0
VERTEX
8
Layer 1
10
236.681799
20
140.735798
70
0
0
VERTEX
8
Layer 1
10
235.920269
20
140.111391
70
0
0
VERTEX
8
Layer 1
10
235.059684
20
139.651936
70
0
0
VERTEX
8
Layer 1
10
234.126275
20
139.368295
70
0
0
VERTEX
8
Layer 1
10
233.146269
20
139.271334
70
0
0
VERTEX
8
Layer 1
10
233.146269
20
139.271334
70
0
0
SEQEND
8
Layer 1
0
POLYLINE
8
Layer 1
62
7
70
0
10
0.000000
20
0.000000
66
1
0
VERTEX
8
Layer 1
10
300.009632
20
0.010251
70
0
0
VERTEX
8
Layer 1
10
0.010001
20
0.010251
70
0
0
VERTEX
8
Layer 1
10
0.010001
20
200.009999
70
0
0
VERTEX
8
Layer 1
10
300.009632
20
200.009999
70
0
0
VERTEX
8
Layer 1
10
300.009632
20
0.010251
70
0
0
SEQEND
8
Layer 1
 0 
ENDSEC
 0 
EOF