999
"DXF R12 Output" (www.mydxf.blogspot.com)
 0 
SECTION
 2 
HEADER
 9 
$ACADVER
 1 
AC1009
 9 
$EXTMIN
 10 
 0 
 20 
 0 
 9 
$EXTMAX
 10 
 8.5 
 20 
 11 
 0 
ENDSEC
 0 
SECTION
 2 
ENTITIES
0
POLYLINE
8
OUTLINE
62
7
70
1
10
0.000000
20
0.000000
66
1
0
VERTEX
8
OUTLINE
10
0.009986
20
43.010478
70
0
0
VERTEX
8
OUTLINE
10
1.542141
20
29.597721
70
0
0
VERTEX
8
OUTLINE
10
1.542141
20
29.597721
70
0
0
VERTEX
8
OUTLINE
10
1.781901
20
29.590336
70
0
0
VERTEX
8
OUTLINE
10
2.021711
20
29.560983
70
0
0
VERTEX
8
OUTLINE
10
2.261556
20
29.509731
70
0
0
VERTEX
8
OUTLINE
10
2.501413
20
29.436709
70
0
0
VERTEX
8
OUTLINE
10
2.741250
20
29.342089
70
0
0
VERTEX
8
OUTLINE
10
2.981023
20
29.226093
70
0
0
VERTEX
8
OUTLINE
10
3.220680
20
29.088981
70
0
0
VERTEX
8
OUTLINE
10
3.460167
20
28.931062
70
0
0
VERTEX
8
OUTLINE
10
3.699416
20
28.752680
70
0
0
VERTEX
8
OUTLINE
10
3.938361
20
28.554221
70
0
0
VERTEX
8
OUTLINE
10
4.415026
20
28.098797
70
0
0
VERTEX
8
OUTLINE
10
4.889513
20
27.568575
70
0
0
VERTEX
8
OUTLINE
10
5.361111
20
26.967845
70
0
0
VERTEX
8
OUTLINE
10
5.829076
20
26.301350
70
0
0
VERTEX
8
OUTLINE
10
6.292644
20
25.574228
70
0
0
VERTEX
8
OUTLINE
10
6.751040
20
24.791978
70
0
0
VERTEX
8
OUTLINE
10
7.203492
20
23.960402
70
0
0
VERTEX
8
OUTLINE
10
7.649257
20
23.085555
70
0
0
VERTEX
8
OUTLINE
10
8.087615
20
22.173707
70
0
0
VERTEX
8
OUTLINE
10
8.517906
20
21.231276
70
0
0
VERTEX
8
OUTLINE
10
8.939541
20
20.264775
70
0
0
VERTEX
8
OUTLINE
10
9.755030
20
18.285710
70
0
0
VERTEX
8
OUTLINE
10
10.531896
20
16.288100
70
0
0
VERTEX
8
OUTLINE
10
11.270789
20
14.321058
70
0
0
VERTEX
8
OUTLINE
10
11.627101
20
13.363273
70
0
0
VERTEX
8
OUTLINE
10
11.975665
20
12.429655
70
0
0
VERTEX
8
OUTLINE
10
12.317509
20
11.525040
70
0
0
VERTEX
8
OUTLINE
10
12.653863
20
10.653874
70
0
0
VERTEX
8
OUTLINE
10
12.986174
20
9.820197
70
0
0
VERTEX
8
OUTLINE
10
13.316140
20
9.027570
70
0
0
VERTEX
8
OUTLINE
10
13.645750
20
8.278961
70
0
0
VERTEX
8
OUTLINE
10
13.977378
20
7.576644
70
0
0
VERTEX
8
OUTLINE
10
14.313819
20
6.922079
70
0
0
VERTEX
8
OUTLINE
10
14.658383
20
6.315798
70
0
0
VERTEX
8
OUTLINE
10
15.014940
20
5.757298
70
0
0
VERTEX
8
OUTLINE
10
15.387923
20
5.245004
70
0
0
VERTEX
8
OUTLINE
10
15.782178
20
4.776433
70
0
0
VERTEX
8
OUTLINE
10
16.202736
20
4.348425
70
0
0
VERTEX
8
OUTLINE
10
16.654582
20
3.957387
70
0
0
VERTEX
8
OUTLINE
10
17.142444
20
3.599539
70
0
0
VERTEX
8
OUTLINE
10
17.670563
20
3.271135
70
0
0
VERTEX
8
OUTLINE
10
18.242483
20
2.968704
70
0
0
VERTEX
8
OUTLINE
10
18.860985
20
2.689138
70
0
0
VERTEX
8
OUTLINE
10
19.528102
20
2.429695
70
0
0
VERTEX
8
OUTLINE
10
20.245159
20
2.188009
70
0
0
VERTEX
8
OUTLINE
10
21.012809
20
1.962066
70
0
0
VERTEX
8
OUTLINE
10
21.831075
20
1.750204
70
0
0
VERTEX
8
OUTLINE
10
22.699373
20
1.551113
70
0
0
VERTEX
8
OUTLINE
10
23.616563
20
1.363815
70
0
0
VERTEX
8
OUTLINE
10
24.580984
20
1.187640
70
0
0
VERTEX
8
OUTLINE
10
25.590506
20
1.022198
70
0
0
VERTEX
8
OUTLINE
10
26.642562
20
0.867367
70
0
0
VERTEX
8
OUTLINE
10
27.734202
20
0.723246
70
0
0
VERTEX
8
OUTLINE
10
28.862130
20
0.590142
70
0
0
VERTEX
8
OUTLINE
10
30.022747
20
0.468537
70
0
0
VERTEX
8
OUTLINE
10
31.212198
20
0.359082
70
0
0
VERTEX
8
OUTLINE
10
32.426404
20
0.262562
70
0
0
VERTEX
8
OUTLINE
10
33.661097
20
0.179901
70
0
0
VERTEX
8
OUTLINE
10
36.174177
20
0.060389
70
0
0
VERTEX
8
OUTLINE
10
38.715055
20
0.009933
70
0
0
VERTEX
8
OUTLINE
10
39.984366
20
0.013836
70
0
0
VERTEX
8
OUTLINE
10
41.246805
20
0.038968
70
0
0
VERTEX
8
OUTLINE
10
42.497875
20
0.086694
70
0
0
VERTEX
8
OUTLINE
10
43.733200
20
0.158367
70
0
0
VERTEX
8
OUTLINE
10
44.948559
20
0.255307
70
0
0
VERTEX
8
OUTLINE
10
46.139932
20
0.378786
70
0
0
VERTEX
8
OUTLINE
10
47.303539
20
0.529992
70
0
0
VERTEX
8
OUTLINE
10
48.435880
20
0.710038
70
0
0
VERTEX
8
OUTLINE
10
49.533775
20
0.919924
70
0
0
VERTEX
8
OUTLINE
10
50.594417
20
1.160528
70
0
0
VERTEX
8
OUTLINE
10
51.615403
20
1.432588
70
0
0
VERTEX
8
OUTLINE
10
52.594778
20
1.736686
70
0
0
VERTEX
8
OUTLINE
10
53.531081
20
2.073223
70
0
0
VERTEX
8
OUTLINE
10
54.423380
20
2.442401
70
0
0
VERTEX
8
OUTLINE
10
55.271294
20
2.844202
70
0
0
VERTEX
8
OUTLINE
10
56.075052
20
3.278361
70
0
0
VERTEX
8
OUTLINE
10
56.835519
20
3.744355
70
0
0
VERTEX
8
OUTLINE
10
57.554230
20
4.241361
70
0
0
VERTEX
8
OUTLINE
10
58.233356
20
4.768278
70
0
0
VERTEX
8
OUTLINE
10
58.875558
20
5.323736
70
0
0
VERTEX
8
OUTLINE
10
59.483818
20
5.906144
70
0
0
VERTEX
8
OUTLINE
10
60.061265
20
6.513727
70
0
0
VERTEX
8
OUTLINE
10
60.610992
20
7.144551
70
0
0
VERTEX
8
OUTLINE
10
61.135890
20
7.796582
70
0
0
VERTEX
8
OUTLINE
10
61.638492
20
8.467688
70
0
0
VERTEX
8
OUTLINE
10
62.120975
20
9.155692
70
0
0
VERTEX
8
OUTLINE
10
62.585175
20
9.858347
70
0
0
VERTEX
8
OUTLINE
10
63.032659
20
10.573364
70
0
0
VERTEX
8
OUTLINE
10
63.882688
20
12.031129
70
0
0
VERTEX
8
OUTLINE
10
64.679971
20
13.509966
70
0
0
VERTEX
8
OUTLINE
10
65.431702
20
14.990607
70
0
0
VERTEX
8
OUTLINE
10
66.143576
20
16.453957
70
0
0
VERTEX
8
OUTLINE
10
66.819839
20
17.881528
70
0
0
VERTEX
8
OUTLINE
10
67.463414
20
19.255870
70
0
0
VERTEX
8
OUTLINE
10
67.773598
20
19.917986
70
0
0
VERTEX
8
OUTLINE
10
68.076339
20
20.560872
70
0
0
VERTEX
8
OUTLINE
10
68.371849
20
21.182777
70
0
0
VERTEX
8
OUTLINE
10
68.660353
20
21.782063
70
0
0
VERTEX
8
OUTLINE
10
68.942113
20
22.357232
70
0
0
VERTEX
8
OUTLINE
10
69.217435
20
22.906933
70
0
0
VERTEX
8
OUTLINE
10
69.486698
20
23.429987
70
0
0
VERTEX
8
OUTLINE
10
69.750355
20
23.925400
70
0
0
VERTEX
8
OUTLINE
10
70.008961
20
24.392389
70
0
0
VERTEX
8
OUTLINE
10
70.263175
20
24.830382
70
0
0
VERTEX
8
OUTLINE
10
70.513791
20
25.239052
70
0
0
VERTEX
8
OUTLINE
10
70.761708
20
25.618281
70
0
0
VERTEX
8
OUTLINE
10
71.007953
20
25.968174
70
0
0
VERTEX
8
OUTLINE
10
71.253650
20
26.289039
70
0
0
VERTEX
8
OUTLINE
10
71.500032
20
26.581377
70
0
0
VERTEX
8
OUTLINE
10
71.748433
20
26.845872
70
0
0
VERTEX
8
OUTLINE
10
72.000269
20
27.083378
70
0
0
VERTEX
8
OUTLINE
10
72.257020
20
27.294888
70
0
0
VERTEX
8
OUTLINE
10
72.520206
20
27.481496
70
0
0
VERTEX
8
OUTLINE
10
72.791332
20
27.644363
70
0
0
VERTEX
8
OUTLINE
10
73.071875
20
27.784663
70
0
0
VERTEX
8
OUTLINE
10
73.363236
20
27.903561
70
0
0
VERTEX
8
OUTLINE
10
73.666716
20
28.002166
70
0
0
VERTEX
8
OUTLINE
10
73.983480
20
28.081496
70
0
0
VERTEX
8
OUTLINE
10
74.314534
20
28.142451
70
0
0
VERTEX
8
OUTLINE
10
74.660712
20
28.185784
70
0
0
VERTEX
8
OUTLINE
10
75.022635
20
28.212073
70
0
0
VERTEX
8
OUTLINE
10
75.400700
20
28.221688
70
0
0
VERTEX
8
OUTLINE
10
75.400700
20
28.221688
70
0
0
VERTEX
8
OUTLINE
10
75.778765
20
28.212073
70
0
0
VERTEX
8
OUTLINE
10
76.140688
20
28.185784
70
0
0
VERTEX
8
OUTLINE
10
76.486866
20
28.142451
70
0
0
VERTEX
8
OUTLINE
10
76.817920
20
28.081496
70
0
0
VERTEX
8
OUTLINE
10
77.134684
20
28.002166
70
0
0
VERTEX
8
OUTLINE
10
77.438164
20
27.903561
70
0
0
VERTEX
8
OUTLINE
10
77.729525
20
27.784663
70
0
0
VERTEX
8
OUTLINE
10
78.010068
20
27.644363
70
0
0
VERTEX
8
OUTLINE
10
78.281194
20
27.481496
70
0
0
VERTEX
8
OUTLINE
10
78.544380
20
27.294888
70
0
0
VERTEX
8
OUTLINE
10
78.801131
20
27.083378
70
0
0
VERTEX
8
OUTLINE
10
79.052967
20
26.845872
70
0
0
VERTEX
8
OUTLINE
10
79.301368
20
26.581377
70
0
0
VERTEX
8
OUTLINE
10
79.547750
20
26.289039
70
0
0
VERTEX
8
OUTLINE
10
79.793447
20
25.968174
70
0
0
VERTEX
8
OUTLINE
10
80.039692
20
25.618281
70
0
0
VERTEX
8
OUTLINE
10
80.287609
20
25.239052
70
0
0
VERTEX
8
OUTLINE
10
80.538225
20
24.830382
70
0
0
VERTEX
8
OUTLINE
10
80.792439
20
24.392389
70
0
0
VERTEX
8
OUTLINE
10
81.051045
20
23.925400
70
0
0
VERTEX
8
OUTLINE
10
81.314702
20
23.429987
70
0
0
VERTEX
8
OUTLINE
10
81.583965
20
22.906933
70
0
0
VERTEX
8
OUTLINE
10
81.859287
20
22.357232
70
0
0
VERTEX
8
OUTLINE
10
82.141047
20
21.782063
70
0
0
VERTEX
8
OUTLINE
10
82.429551
20
21.182777
70
0
0
VERTEX
8
OUTLINE
10
82.725061
20
20.560872
70
0
0
VERTEX
8
OUTLINE
10
83.027802
20
19.917986
70
0
0
VERTEX
8
OUTLINE
10
83.337986
20
19.255870
70
0
0
VERTEX
8
OUTLINE
10
83.981561
20
17.881528
70
0
0
VERTEX
8
OUTLINE
10
84.657824
20
16.453957
70
0
0
VERTEX
8
OUTLINE
10
85.369698
20
14.990607
70
0
0
VERTEX
8
OUTLINE
10
86.121429
20
13.509966
70
0
0
VERTEX
8
OUTLINE
10
86.918712
20
12.031129
70
0
0
VERTEX
8
OUTLINE
10
87.768741
20
10.573364
70
0
0
VERTEX
8
OUTLINE
10
88.216225
20
9.858347
70
0
0
VERTEX
8
OUTLINE
10
88.680425
20
9.155692
70
0
0
VERTEX
8
OUTLINE
10
89.162908
20
8.467688
70
0
0
VERTEX
8
OUTLINE
10
89.665510
20
7.796582
70
0
0
VERTEX
8
OUTLINE
10
90.190408
20
7.144551
70
0
0
VERTEX
8
OUTLINE
10
90.740135
20
6.513727
70
0
0
VERTEX
8
OUTLINE
10
91.317582
20
5.906144
70
0
0
VERTEX
8
OUTLINE
10
91.925842
20
5.323736
70
0
0
VERTEX
8
OUTLINE
10
92.568044
20
4.768278
70
0
0
VERTEX
8
OUTLINE
10
93.247170
20
4.241361
70
0
0
VERTEX
8
OUTLINE
10
93.965881
20
3.744355
70
0
0
VERTEX
8
OUTLINE
10
94.726348
20
3.278361
70
0
0
VERTEX
8
OUTLINE
10
95.530106
20
2.844202
70
0
0
VERTEX
8
OUTLINE
10
96.378020
20
2.442401
70
0
0
VERTEX
8
OUTLINE
10
97.270319
20
2.073223
70
0
0
VERTEX
8
OUTLINE
10
98.206622
20
1.736686
70
0
0
VERTEX
8
OUTLINE
10
99.185997
20
1.432588
70
0
0
VERTEX
8
OUTLINE
10
100.206983
20
1.160528
70
0
0
VERTEX
8
OUTLINE
10
101.267625
20
0.919924
70
0
0
VERTEX
8
OUTLINE
10
102.365520
20
0.710038
70
0
0
VERTEX
8
OUTLINE
10
103.497861
20
0.529992
70
0
0
VERTEX
8
OUTLINE
10
104.661468
20
0.378786
70
0
0
VERTEX
8
OUTLINE
10
105.852841
20
0.255307
70
0
0
VERTEX
8
OUTLINE
10
107.068200
20
0.158367
70
0
0
VERTEX
8
OUTLINE
10
108.303525
20
0.086694
70
0
0
VERTEX
8
OUTLINE
10
109.554595
20
0.038968
70
0
0
VERTEX
8
OUTLINE
10
110.817034
20
0.013836
70
0
0
VERTEX
8
OUTLINE
10
112.086345
20
0.009933
70
0
0
VERTEX
8
OUTLINE
10
114.627223
20
0.060389
70
0
0
VERTEX
8
OUTLINE
10
117.140303
20
0.179901
70
0
0
VERTEX
8
OUTLINE
10
118.374996
20
0.262562
70
0
0
VERTEX
8
OUTLINE
10
119.589202
20
0.359082
70
0
0
VERTEX
8
OUTLINE
10
120.778653
20
0.468537
70
0
0
VERTEX
8
OUTLINE
10
121.939270
20
0.590142
70
0
0
VERTEX
8
OUTLINE
10
123.067198
20
0.723246
70
0
0
VERTEX
8
OUTLINE
10
124.158838
20
0.867367
70
0
0
VERTEX
8
OUTLINE
10
125.210894
20
1.022198
70
0
0
VERTEX
8
OUTLINE
10
126.220416
20
1.187640
70
0
0
VERTEX
8
OUTLINE
10
127.184837
20
1.363815
70
0
0
VERTEX
8
OUTLINE
10
128.102027
20
1.551113
70
0
0
VERTEX
8
OUTLINE
10
128.970325
20
1.750204
70
0
0
VERTEX
8
OUTLINE
10
129.788591
20
1.962066
70
0
0
VERTEX
8
OUTLINE
10
130.556241
20
2.188009
70
0
0
VERTEX
8
OUTLINE
10
131.273298
20
2.429695
70
0
0
VERTEX
8
OUTLINE
10
131.940415
20
2.689138
70
0
0
VERTEX
8
OUTLINE
10
132.558917
20
2.968704
70
0
0
VERTEX
8
OUTLINE
10
133.130837
20
3.271135
70
0
0
VERTEX
8
OUTLINE
10
133.658956
20
3.599539
70
0
0
VERTEX
8
OUTLINE
10
134.146818
20
3.957387
70
0
0
VERTEX
8
OUTLINE
10
134.598664
20
4.348425
70
0
0
VERTEX
8
OUTLINE
10
135.019222
20
4.776433
70
0
0
VERTEX
8
OUTLINE
10
135.413477
20
5.245004
70
0
0
VERTEX
8
OUTLINE
10
135.786460
20
5.757298
70
0
0
VERTEX
8
OUTLINE
10
136.143017
20
6.315798
70
0
0
VERTEX
8
OUTLINE
10
136.487581
20
6.922079
70
0
0
VERTEX
8
OUTLINE
10
136.824022
20
7.576644
70
0
0
VERTEX
8
OUTLINE
10
137.155650
20
8.278961
70
0
0
VERTEX
8
OUTLINE
10
137.485260
20
9.027570
70
0
0
VERTEX
8
OUTLINE
10
137.815226
20
9.820197
70
0
0
VERTEX
8
OUTLINE
10
138.147537
20
10.653874
70
0
0
VERTEX
8
OUTLINE
10
138.483891
20
11.525040
70
0
0
VERTEX
8
OUTLINE
10
138.825735
20
12.429655
70
0
0
VERTEX
8
OUTLINE
10
139.174299
20
13.363273
70
0
0
VERTEX
8
OUTLINE
10
139.530611
20
14.321058
70
0
0
VERTEX
8
OUTLINE
10
140.269504
20
16.288100
70
0
0
VERTEX
8
OUTLINE
10
141.046370
20
18.285710
70
0
0
VERTEX
8
OUTLINE
10
141.861859
20
20.264775
70
0
0
VERTEX
8
OUTLINE
10
142.283494
20
21.231276
70
0
0
VERTEX
8
OUTLINE
10
142.713785
20
22.173707
70
0
0
VERTEX
8
OUTLINE
10
143.152143
20
23.085555
70
0
0
VERTEX
8
OUTLINE
10
143.597908
20
23.960402
70
0
0
VERTEX
8
OUTLINE
10
144.050360
20
24.791978
70
0
0
VERTEX
8
OUTLINE
10
144.508756
20
25.574228
70
0
0
VERTEX
8
OUTLINE
10
144.972324
20
26.301350
70
0
0
VERTEX
8
OUTLINE
10
145.440289
20
26.967845
70
0
0
VERTEX
8
OUTLINE
10
145.911887
20
27.568575
70
0
0
VERTEX
8
OUTLINE
10
146.386374
20
28.098797
70
0
0
VERTEX
8
OUTLINE
10
146.863039
20
28.554221
70
0
0
VERTEX
8
OUTLINE
10
147.101984
20
28.752680
70
0
0
VERTEX
8
OUTLINE
10
147.341233
20
28.931062
70
0
0
VERTEX
8
OUTLINE
10
147.580720
20
29.088981
70
0
0
VERTEX
8
OUTLINE
10
147.820377
20
29.226093
70
0
0
VERTEX
8
OUTLINE
10
148.060150
20
29.342089
70
0
0
VERTEX
8
OUTLINE
10
148.299987
20
29.436709
70
0
0
VERTEX
8
OUTLINE
10
148.539844
20
29.509731
70
0
0
VERTEX
8
OUTLINE
10
148.779689
20
29.560983
70
0
0
VERTEX
8
OUTLINE
10
149.019499
20
29.590336
70
0
0
VERTEX
8
OUTLINE
10
149.259259
20
29.597721
70
0
0
VERTEX
8
OUTLINE
10
150.791414
20
43.010478
70
0
0
VERTEX
8
OUTLINE
10
150.791414
20
43.010478
70
0
0
VERTEX
8
OUTLINE
10
148.504358
20
43.778668
70
0
0
VERTEX
8
OUTLINE
10
146.163101
20
44.497548
70
0
0
VERTEX
8
OUTLINE
10
143.766762
20
45.163752
70
0
0
VERTEX
8
OUTLINE
10
142.547558
20
45.475616
70
0
0
VERTEX
8
OUTLINE
10
141.314106
20
45.772391
70
0
0
VERTEX
8
OUTLINE
10
140.066243
20
46.053304
70
0
0
VERTEX
8
OUTLINE
10
138.803809
20
46.317546
70
0
0
VERTEX
8
OUTLINE
10
137.526664
20
46.564293
70
0
0
VERTEX
8
OUTLINE
10
136.234692
20
46.792732
70
0
0
VERTEX
8
OUTLINE
10
134.927803
20
47.002078
70
0
0
VERTEX
8
OUTLINE
10
133.605944
20
47.191620
70
0
0
VERTEX
8
OUTLINE
10
132.269093
20
47.360733
70
0
0
VERTEX
8
OUTLINE
10
130.917294
20
47.508868
70
0
0
VERTEX
8
OUTLINE
10
129.550651
20
47.635561
70
0
0
VERTEX
8
OUTLINE
10
128.169353
20
47.740418
70
0
0
VERTEX
8
OUTLINE
10
126.773688
20
47.823124
70
0
0
VERTEX
8
OUTLINE
10
125.364032
20
47.883515
70
0
0
VERTEX
8
OUTLINE
10
123.940846
20
47.921636
70
0
0
VERTEX
8
OUTLINE
10
122.504684
20
47.937839
70
0
0
VERTEX
8
OUTLINE
10
121.056174
20
47.932820
70
0
0
VERTEX
8
OUTLINE
10
119.596070
20
47.907573
70
0
0
VERTEX
8
OUTLINE
10
118.125285
20
47.863216
70
0
0
VERTEX
8
OUTLINE
10
116.644964
20
47.800846
70
0
0
VERTEX
8
OUTLINE
10
113.661675
20
47.625419
70
0
0
VERTEX
8
OUTLINE
10
110.660973
20
47.385088
70
0
0
VERTEX
8
OUTLINE
10
107.661710
20
47.078669
70
0
0
VERTEX
8
OUTLINE
10
106.169420
20
46.898999
70
0
0
VERTEX
8
OUTLINE
10
104.685966
20
46.700387
70
0
0
VERTEX
8
OUTLINE
10
103.214448
20
46.481746
70
0
0
VERTEX
8
OUTLINE
10
101.758014
20
46.242010
70
0
0
VERTEX
8
OUTLINE
10
100.319831
20
45.980226
70
0
0
VERTEX
8
OUTLINE
10
98.903002
20
45.695686
70
0
0
VERTEX
8
OUTLINE
10
97.510512
20
45.388024
70
0
0
VERTEX
8
OUTLINE
10
96.145171
20
45.057321
70
0
0
VERTEX
8
OUTLINE
10
94.809593
20
44.704129
70
0
0
VERTEX
8
OUTLINE
10
93.506223
20
44.329430
70
0
0
VERTEX
8
OUTLINE
10
92.237360
20
43.934585
70
0
0
VERTEX
8
OUTLINE
10
91.005170
20
43.521311
70
0
0
VERTEX
8
OUTLINE
10
89.811615
20
43.091806
70
0
0
VERTEX
8
OUTLINE
10
88.658293
20
42.649079
70
0
0
VERTEX
8
OUTLINE
10
87.546219
20
42.197348
70
0
0
VERTEX
8
OUTLINE
10
86.475644
20
41.742401
70
0
0
VERTEX
8
OUTLINE
10
85.446017
20
41.291668
70
0
0
VERTEX
8
OUTLINE
10
84.456270
20
40.853627
70
0
0
VERTEX
8
OUTLINE
10
83.505261
20
40.436985
70
0
0
VERTEX
8
OUTLINE
10
82.592174
20
40.049826
70
0
0
VERTEX
8
OUTLINE
10
81.716905
20
39.698883
70
0
0
VERTEX
8
OUTLINE
10
80.880243
20
39.389117
70
0
0
VERTEX
8
OUTLINE
10
80.083930
20
39.123489
70
0
0
VERTEX
8
OUTLINE
10
79.330747
20
38.902758
70
0
0
VERTEX
8
OUTLINE
10
78.624535
20
38.725316
70
0
0
VERTEX
8
OUTLINE
10
77.970007
20
38.587492
70
0
0
VERTEX
8
OUTLINE
10
77.372349
20
38.484241
70
0
0
VERTEX
8
OUTLINE
10
76.836785
20
38.409901
70
0
0
VERTEX
8
OUTLINE
10
76.368177
20
38.358916
70
0
0
VERTEX
8
OUTLINE
10
75.970659
20
38.326414
70
0
0
VERTEX
8
OUTLINE
10
75.647458
20
38.308515
70
0
0
VERTEX
8
OUTLINE
10
75.400700
20
38.302583
70
0
0
VERTEX
8
OUTLINE
10
75.400700
20
38.302583
70
0
0
VERTEX
8
OUTLINE
10
75.153942
20
38.308515
70
0
0
VERTEX
8
OUTLINE
10
74.830741
20
38.326414
70
0
0
VERTEX
8
OUTLINE
10
74.433223
20
38.358916
70
0
0
VERTEX
8
OUTLINE
10
73.964615
20
38.409901
70
0
0
VERTEX
8
OUTLINE
10
73.429051
20
38.484241
70
0
0
VERTEX
8
OUTLINE
10
72.831393
20
38.587492
70
0
0
VERTEX
8
OUTLINE
10
72.176865
20
38.725316
70
0
0
VERTEX
8
OUTLINE
10
71.470653
20
38.902758
70
0
0
VERTEX
8
OUTLINE
10
70.717470
20
39.123489
70
0
0
VERTEX
8
OUTLINE
10
69.921157
20
39.389117
70
0
0
VERTEX
8
OUTLINE
10
69.084495
20
39.698883
70
0
0
VERTEX
8
OUTLINE
10
68.209226
20
40.049826
70
0
0
VERTEX
8
OUTLINE
10
67.296139
20
40.436985
70
0
0
VERTEX
8
OUTLINE
10
66.345130
20
40.853627
70
0
0
VERTEX
8
OUTLINE
10
65.355383
20
41.291668
70
0
0
VERTEX
8
OUTLINE
10
64.325756
20
41.742401
70
0
0
VERTEX
8
OUTLINE
10
63.255181
20
42.197348
70
0
0
VERTEX
8
OUTLINE
10
62.143107
20
42.649079
70
0
0
VERTEX
8
OUTLINE
10
60.989785
20
43.091806
70
0
0
VERTEX
8
OUTLINE
10
59.796230
20
43.521311
70
0
0
VERTEX
8
OUTLINE
10
58.564040
20
43.934585
70
0
0
VERTEX
8
OUTLINE
10
57.295177
20
44.329430
70
0
0
VERTEX
8
OUTLINE
10
55.991807
20
44.704129
70
0
0
VERTEX
8
OUTLINE
10
54.656229
20
45.057321
70
0
0
VERTEX
8
OUTLINE
10
53.290888
20
45.388024
70
0
0
VERTEX
8
OUTLINE
10
51.898398
20
45.695686
70
0
0
VERTEX
8
OUTLINE
10
50.481569
20
45.980226
70
0
0
VERTEX
8
OUTLINE
10
49.043386
20
46.242010
70
0
0
VERTEX
8
OUTLINE
10
47.586952
20
46.481746
70
0
0
VERTEX
8
OUTLINE
10
46.115434
20
46.700387
70
0
0
VERTEX
8
OUTLINE
10
44.631980
20
46.898999
70
0
0
VERTEX
8
OUTLINE
10
43.139690
20
47.078669
70
0
0
VERTEX
8
OUTLINE
10
40.140427
20
47.385088
70
0
0
VERTEX
8
OUTLINE
10
37.139725
20
47.625419
70
0
0
VERTEX
8
OUTLINE
10
34.156436
20
47.800846
70
0
0
VERTEX
8
OUTLINE
10
32.676115
20
47.863216
70
0
0
VERTEX
8
OUTLINE
10
31.205330
20
47.907573
70
0
0
VERTEX
8
OUTLINE
10
29.745226
20
47.932820
70
0
0
VERTEX
8
OUTLINE
10
28.296716
20
47.937839
70
0
0
VERTEX
8
OUTLINE
10
26.860554
20
47.921636
70
0
0
VERTEX
8
OUTLINE
10
25.437368
20
47.883515
70
0
0
VERTEX
8
OUTLINE
10
24.027712
20
47.823124
70
0
0
VERTEX
8
OUTLINE
10
22.632047
20
47.740418
70
0
0
VERTEX
8
OUTLINE
10
21.250749
20
47.635561
70
0
0
VERTEX
8
OUTLINE
10
19.884106
20
47.508868
70
0
0
VERTEX
8
OUTLINE
10
18.532307
20
47.360733
70
0
0
VERTEX
8
OUTLINE
10
17.195456
20
47.191620
70
0
0
VERTEX
8
OUTLINE
10
15.873597
20
47.002078
70
0
0
VERTEX
8
OUTLINE
10
14.566708
20
46.792732
70
0
0
VERTEX
8
OUTLINE
10
13.274736
20
46.564293
70
0
0
VERTEX
8
OUTLINE
10
11.997591
20
46.317546
70
0
0
VERTEX
8
OUTLINE
10
10.735157
20
46.053304
70
0
0
VERTEX
8
OUTLINE
10
9.487294
20
45.772391
70
0
0
VERTEX
8
OUTLINE
10
8.253842
20
45.475616
70
0
0
VERTEX
8
OUTLINE
10
7.034638
20
45.163752
70
0
0
VERTEX
8
OUTLINE
10
4.638299
20
44.497548
70
0
0
VERTEX
8
OUTLINE
10
2.297042
20
43.778668
70
0
0
VERTEX
8
OUTLINE
10
0.009986
20
43.010478
70
0
0
VERTEX
8
OUTLINE
10
0.009986
20
43.010478
70
0
0
SEQEND
8
OUTLINE
0
POLYLINE
8
LENS
62
7
70
0
10
0.000000
20
0.000000
66
1
0
VERTEX
8
LENS
10
14.719613
20
35.879331
70
0
0
VERTEX
8
LENS
10
14.719613
20
35.879331
70
0
0
VERTEX
8
LENS
10
15.046370
20
36.252817
70
0
0
VERTEX
8
LENS
10
15.395400
20
36.613851
70
0
0
VERTEX
8
LENS
10
15.766893
20
36.962333
70
0
0
VERTEX
8
LENS
10
16.160992
20
37.298184
70
0
0
VERTEX
8
LENS
10
16.577793
20
37.621348
70
0
0
VERTEX
8
LENS
10
17.017336
20
37.931794
70
0
0
VERTEX
8
LENS
10
17.479616
20
38.229508
70
0
0
VERTEX
8
LENS
10
17.964567
20
38.514496
70
0
0
VERTEX
8
LENS
10
18.472067
20
38.786778
70
0
0
VERTEX
8
LENS
10
19.001939
20
39.046395
70
0
0
VERTEX
8
LENS
10
19.553949
20
39.293394
70
0
0
VERTEX
8
LENS
10
20.127795
20
39.527836
70
0
0
VERTEX
8
LENS
10
20.723120
20
39.749789
70
0
0
VERTEX
8
LENS
10
21.339498
20
39.959328
70
0
0
VERTEX
8
LENS
10
21.976439
20
40.156540
70
0
0
VERTEX
8
LENS
10
22.633394
20
40.341510
70
0
0
VERTEX
8
LENS
10
23.309758
20
40.514336
70
0
0
VERTEX
8
LENS
10
24.004862
20
40.675115
70
0
0
VERTEX
8
LENS
10
24.718001
20
40.823956
70
0
0
VERTEX
8
LENS
10
25.448409
20
40.960971
70
0
0
VERTEX
8
LENS
10
26.957783
20
41.199995
70
0
0
VERTEX
8
LENS
10
28.526091
20
41.393217
70
0
0
VERTEX
8
LENS
10
30.145908
20
41.541757
70
0
0
VERTEX
8
LENS
10
31.809386
20
41.646833
70
0
0
VERTEX
8
LENS
10
33.508356
20
41.709764
70
0
0
VERTEX
8
LENS
10
35.234384
20
41.731923
70
0
0
VERTEX
8
LENS
10
36.978851
20
41.714709
70
0
0
VERTEX
8
LENS
10
38.732997
20
41.659515
70
0
0
VERTEX
8
LENS
10
40.487992
20
41.567691
70
0
0
VERTEX
8
LENS
10
42.234988
20
41.440511
70
0
0
VERTEX
8
LENS
10
43.965197
20
41.279140
70
0
0
VERTEX
8
LENS
10
45.669929
20
41.084634
70
0
0
VERTEX
8
LENS
10
47.340654
20
40.857963
70
0
0
VERTEX
8
LENS
10
48.969070
20
40.600008
70
0
0
VERTEX
8
LENS
10
50.547141
20
40.311581
70
0
0
VERTEX
8
LENS
10
52.067168
20
39.993443
70
0
0
VERTEX
8
LENS
10
53.521834
20
39.646305
70
0
0
VERTEX
8
LENS
10
54.222500
20
39.462066
70
0
0
VERTEX
8
LENS
10
54.904307
20
39.270806
70
0
0
VERTEX
8
LENS
10
55.566489
20
39.072581
70
0
0
VERTEX
8
LENS
10
56.208336
20
38.867431
70
0
0
VERTEX
8
LENS
10
56.829177
20
38.655378
70
0
0
VERTEX
8
LENS
10
57.428397
20
38.436428
70
0
0
VERTEX
8
LENS
10
58.005434
20
38.210556
70
0
0
VERTEX
8
LENS
10
58.559788
20
37.977723
70
0
0
VERTEX
8
LENS
10
59.091026
20
37.737850
70
0
0
VERTEX
8
LENS
10
59.598774
20
37.490832
70
0
0
VERTEX
8
LENS
10
60.082741
20
37.236539
70
0
0
VERTEX
8
LENS
10
60.542700
20
36.974792
70
0
0
VERTEX
8
LENS
10
60.978500
20
36.705394
70
0
0
VERTEX
8
LENS
10
61.390062
20
36.428113
70
0
0
VERTEX
8
LENS
10
61.777366
20
36.142708
70
0
0
VERTEX
8
LENS
10
62.140472
20
35.848917
70
0
0
VERTEX
8
LENS
10
62.479485
20
35.546473
70
0
0
VERTEX
8
LENS
10
62.794579
20
35.235106
70
0
0
VERTEX
8
LENS
10
63.085986
20
34.914548
70
0
0
VERTEX
8
LENS
10
63.353987
20
34.584544
70
0
0
VERTEX
8
LENS
10
63.598920
20
34.244846
70
0
0
VERTEX
8
LENS
10
63.821164
20
33.895234
70
0
0
VERTEX
8
LENS
10
64.021155
20
33.535507
70
0
0
VERTEX
8
LENS
10
64.199362
20
33.165501
70
0
0
VERTEX
8
LENS
10
64.356299
20
32.785083
70
0
0
VERTEX
8
LENS
10
64.492520
20
32.394159
70
0
0
VERTEX
8
LENS
10
64.608603
20
31.992676
70
0
0
VERTEX
8
LENS
10
64.705157
20
31.580620
70
0
0
VERTEX
8
LENS
10
64.782807
20
31.158020
70
0
0
VERTEX
8
LENS
10
64.842201
20
30.724955
70
0
0
VERTEX
8
LENS
10
64.908844
20
29.827969
70
0
0
VERTEX
8
LENS
10
64.910381
20
28.891226
70
0
0
VERTEX
8
LENS
10
64.852054
20
27.917142
70
0
0
VERTEX
8
LENS
10
64.738905
20
26.909012
70
0
0
VERTEX
8
LENS
10
64.575673
20
25.871011
70
0
0
VERTEX
8
LENS
10
64.366779
20
24.808067
70
0
0
VERTEX
8
LENS
10
64.116357
20
23.725714
70
0
0
VERTEX
8
LENS
10
63.828250
20
22.629922
70
0
0
VERTEX
8
LENS
10
63.506048
20
21.526966
70
0
0
VERTEX
8
LENS
10
63.153087
20
20.423247
70
0
0
VERTEX
8
LENS
10
62.772460
20
19.325177
70
0
0
VERTEX
8
LENS
10
62.366995
20
18.239059
70
0
0
VERTEX
8
LENS
10
61.939196
20
17.171040
70
0
0
VERTEX
8
LENS
10
61.491201
20
16.127030
70
0
0
VERTEX
8
LENS
10
61.024728
20
15.112648
70
0
0
VERTEX
8
LENS
10
60.541018
20
14.133149
70
0
0
VERTEX
8
LENS
10
60.040800
20
13.193355
70
0
0
VERTEX
8
LENS
10
59.524233
20
12.297562
70
0
0
VERTEX
8
LENS
10
58.990892
20
11.449422
70
0
0
VERTEX
8
LENS
10
58.439726
20
10.651816
70
0
0
VERTEX
8
LENS
10
57.869028
20
9.906718
70
0
0
VERTEX
8
LENS
10
57.276410
20
9.215072
70
0
0
VERTEX
8
LENS
10
56.658778
20
8.576670
70
0
0
VERTEX
8
LENS
10
56.012378
20
7.990124
70
0
0
VERTEX
8
LENS
10
55.333043
20
7.453055
70
0
0
VERTEX
8
LENS
10
54.616520
20
6.962399
70
0
0
VERTEX
8
LENS
10
53.858797
20
6.514703
70
0
0
VERTEX
8
LENS
10
53.056425
20
6.106428
70
0
0
VERTEX
8
LENS
10
52.206854
20
5.734231
70
0
0
VERTEX
8
LENS
10
51.308711
20
5.395258
70
0
0
VERTEX
8
LENS
10
50.361872
20
5.087212
70
0
0
VERTEX
8
LENS
10
49.367323
20
4.808323
70
0
0
VERTEX
8
LENS
10
48.327025
20
4.557273
70
0
0
VERTEX
8
LENS
10
47.243767
20
4.333132
70
0
0
VERTEX
8
LENS
10
46.121003
20
4.135287
70
0
0
VERTEX
8
LENS
10
44.962730
20
3.963385
70
0
0
VERTEX
8
LENS
10
43.773361
20
3.817288
70
0
0
VERTEX
8
LENS
10
42.557650
20
3.697043
70
0
0
VERTEX
8
LENS
10
41.320655
20
3.602904
70
0
0
VERTEX
8
LENS
10
40.067678
20
3.535314
70
0
0
VERTEX
8
LENS
10
38.804214
20
3.494904
70
0
0
VERTEX
8
LENS
10
37.535896
20
3.482487
70
0
0
VERTEX
8
LENS
10
36.268440
20
3.499066
70
0
0
VERTEX
8
LENS
10
35.007562
20
3.545794
70
0
0
VERTEX
8
LENS
10
33.758892
20
3.623986
70
0
0
VERTEX
8
LENS
10
32.527866
20
3.735071
70
0
0
VERTEX
8
LENS
10
31.319653
20
3.880587
70
0
0
VERTEX
8
LENS
10
30.139044
20
4.062159
70
0
0
VERTEX
8
LENS
10
28.990371
20
4.281475
70
0
0
VERTEX
8
LENS
10
27.877415
20
4.540263
70
0
0
VERTEX
8
LENS
10
26.803335
20
4.840271
70
0
0
VERTEX
8
LENS
10
25.770602
20
5.183232
70
0
0
VERTEX
8
LENS
10
24.780916
20
5.570835
70
0
0
VERTEX
8
LENS
10
23.835143
20
6.004714
70
0
0
VERTEX
8
LENS
10
22.933238
20
6.486398
70
0
0
VERTEX
8
LENS
10
22.074258
20
7.017289
70
0
0
VERTEX
8
LENS
10
21.256538
20
7.598560
70
0
0
VERTEX
8
LENS
10
20.477944
20
8.231067
70
0
0
VERTEX
8
LENS
10
19.736146
20
8.915246
70
0
0
VERTEX
8
LENS
10
19.028860
20
9.651023
70
0
0
VERTEX
8
LENS
10
18.354126
20
10.437694
70
0
0
VERTEX
8
LENS
10
17.710523
20
11.273861
70
0
0
VERTEX
8
LENS
10
17.097251
20
12.157425
70
0
0
VERTEX
8
LENS
10
16.514084
20
13.085662
70
0
0
VERTEX
8
LENS
10
15.961290
20
14.055314
70
0
0
VERTEX
8
LENS
10
15.439580
20
15.062660
70
0
0
VERTEX
8
LENS
10
14.950025
20
16.103612
70
0
0
VERTEX
8
LENS
10
14.494000
20
17.173792
70
0
0
VERTEX
8
LENS
10
14.073128
20
18.268597
70
0
0
VERTEX
8
LENS
10
13.689253
20
19.383245
70
0
0
VERTEX
8
LENS
10
13.344419
20
20.512792
70
0
0
VERTEX
8
LENS
10
13.040858
20
21.652182
70
0
0
VERTEX
8
LENS
10
12.780955
20
22.796263
70
0
0
VERTEX
8
LENS
10
12.567249
20
23.939820
70
0
0
VERTEX
8
LENS
10
12.402392
20
25.077622
70
0
0
VERTEX
8
LENS
10
12.289180
20
26.204462
70
0
0
VERTEX
8
LENS
10
12.230548
20
27.315243
70
0
0
VERTEX
8
LENS
10
12.229591
20
28.405028
70
0
0
VERTEX
8
LENS
10
12.289574
20
29.469118
70
0
0
VERTEX
8
LENS
10
12.413960
20
30.503116
70
0
0
VERTEX
8
LENS
10
12.606399
20
31.503004
70
0
0
VERTEX
8
LENS
10
12.729324
20
31.989006
70
0
0
VERTEX
8
LENS
10
12.870691
20
32.465160
70
0
0
VERTEX
8
LENS
10
13.030975
20
32.931080
70
0
0
VERTEX
8
LENS
10
13.210643
20
33.386406
70
0
0
VERTEX
8
LENS
10
13.410144
20
33.830805
70
0
0
VERTEX
8
LENS
10
13.629920
20
34.263981
70
0
0
VERTEX
8
LENS
10
13.870383
20
34.685652
70
0
0
VERTEX
8
LENS
10
14.131921
20
35.095576
70
0
0
VERTEX
8
LENS
10
14.414890
20
35.493532
70
0
0
VERTEX
8
LENS
10
14.719613
20
35.879331
70
0
0
SEQEND
8
LENS
0
POLYLINE
8
LENS
62
7
70
0
10
0.000000
20
0.000000
66
1
0
VERTEX
8
LENS
10
136.081787
20
35.879331
70
0
0
VERTEX
8
LENS
10
136.081787
20
35.879331
70
0
0
VERTEX
8
LENS
10
135.755030
20
36.252817
70
0
0
VERTEX
8
LENS
10
135.406000
20
36.613851
70
0
0
VERTEX
8
LENS
10
135.034507
20
36.962333
70
0
0
VERTEX
8
LENS
10
134.640408
20
37.298184
70
0
0
VERTEX
8
LENS
10
134.223607
20
37.621348
70
0
0
VERTEX
8
LENS
10
133.784064
20
37.931794
70
0
0
VERTEX
8
LENS
10
133.321784
20
38.229508
70
0
0
VERTEX
8
LENS
10
132.836833
20
38.514496
70
0
0
VERTEX
8
LENS
10
132.329333
20
38.786778
70
0
0
VERTEX
8
LENS
10
131.799461
20
39.046395
70
0
0
VERTEX
8
LENS
10
131.247451
20
39.293394
70
0
0
VERTEX
8
LENS
10
130.673605
20
39.527836
70
0
0
VERTEX
8
LENS
10
130.078280
20
39.749789
70
0
0
VERTEX
8
LENS
10
129.461902
20
39.959328
70
0
0
VERTEX
8
LENS
10
128.824961
20
40.156540
70
0
0
VERTEX
8
LENS
10
128.168006
20
40.341510
70
0
0
VERTEX
8
LENS
10
127.491642
20
40.514336
70
0
0
VERTEX
8
LENS
10
126.796538
20
40.675115
70
0
0
VERTEX
8
LENS
10
126.083399
20
40.823956
70
0
0
VERTEX
8
LENS
10
125.352991
20
40.960971
70
0
0
VERTEX
8
LENS
10
123.843617
20
41.199995
70
0
0
VERTEX
8
LENS
10
122.275309
20
41.393217
70
0
0
VERTEX
8
LENS
10
120.655492
20
41.541757
70
0
0
VERTEX
8
LENS
10
118.992014
20
41.646833
70
0
0
VERTEX
8
LENS
10
117.293044
20
41.709764
70
0
0
VERTEX
8
LENS
10
115.567016
20
41.731923
70
0
0
VERTEX
8
LENS
10
113.822549
20
41.714709
70
0
0
VERTEX
8
LENS
10
112.068403
20
41.659515
70
0
0
VERTEX
8
LENS
10
110.313408
20
41.567691
70
0
0
VERTEX
8
LENS
10
108.566412
20
41.440511
70
0
0
VERTEX
8
LENS
10
106.836203
20
41.279140
70
0
0
VERTEX
8
LENS
10
105.131471
20
41.084634
70
0
0
VERTEX
8
LENS
10
103.460746
20
40.857963
70
0
0
VERTEX
8
LENS
10
101.832330
20
40.600008
70
0
0
VERTEX
8
LENS
10
100.254259
20
40.311581
70
0
0
VERTEX
8
LENS
10
98.734232
20
39.993443
70
0
0
VERTEX
8
LENS
10
97.279566
20
39.646305
70
0
0
VERTEX
8
LENS
10
96.578900
20
39.462066
70
0
0
VERTEX
8
LENS
10
95.897093
20
39.270806
70
0
0
VERTEX
8
LENS
10
95.234911
20
39.072581
70
0
0
VERTEX
8
LENS
10
94.593064
20
38.867431
70
0
0
VERTEX
8
LENS
10
93.972223
20
38.655378
70
0
0
VERTEX
8
LENS
10
93.373003
20
38.436428
70
0
0
VERTEX
8
LENS
10
92.795966
20
38.210556
70
0
0
VERTEX
8
LENS
10
92.241612
20
37.977723
70
0
0
VERTEX
8
LENS
10
91.710374
20
37.737850
70
0
0
VERTEX
8
LENS
10
91.202626
20
37.490832
70
0
0
VERTEX
8
LENS
10
90.718659
20
37.236539
70
0
0
VERTEX
8
LENS
10
90.258700
20
36.974792
70
0
0
VERTEX
8
LENS
10
89.822900
20
36.705394
70
0
0
VERTEX
8
LENS
10
89.411338
20
36.428113
70
0
0
VERTEX
8
LENS
10
89.024034
20
36.142708
70
0
0
VERTEX
8
LENS
10
88.660928
20
35.848917
70
0
0
VERTEX
8
LENS
10
88.321915
20
35.546473
70
0
0
VERTEX
8
LENS
10
88.006821
20
35.235106
70
0
0
VERTEX
8
LENS
10
87.715414
20
34.914548
70
0
0
VERTEX
8
LENS
10
87.447413
20
34.584544
70
0
0
VERTEX
8
LENS
10
87.202480
20
34.244846
70
0
0
VERTEX
8
LENS
10
86.980236
20
33.895234
70
0
0
VERTEX
8
LENS
10
86.780245
20
33.535507
70
0
0
VERTEX
8
LENS
10
86.602038
20
33.165501
70
0
0
VERTEX
8
LENS
10
86.445101
20
32.785083
70
0
0
VERTEX
8
LENS
10
86.308880
20
32.394159
70
0
0
VERTEX
8
LENS
10
86.192797
20
31.992676
70
0
0
VERTEX
8
LENS
10
86.096243
20
31.580620
70
0
0
VERTEX
8
LENS
10
86.018593
20
31.158020
70
0
0
VERTEX
8
LENS
10
85.959199
20
30.724955
70
0
0
VERTEX
8
LENS
10
85.892556
20
29.827969
70
0
0
VERTEX
8
LENS
10
85.891019
20
28.891226
70
0
0
VERTEX
8
LENS
10
85.949346
20
27.917142
70
0
0
VERTEX
8
LENS
10
86.062495
20
26.909012
70
0
0
VERTEX
8
LENS
10
86.225727
20
25.871011
70
0
0
VERTEX
8
LENS
10
86.434621
20
24.808067
70
0
0
VERTEX
8
LENS
10
86.685043
20
23.725714
70
0
0
VERTEX
8
LENS
10
86.973150
20
22.629922
70
0
0
VERTEX
8
LENS
10
87.295352
20
21.526966
70
0
0
VERTEX
8
LENS
10
87.648313
20
20.423247
70
0
0
VERTEX
8
LENS
10
88.028940
20
19.325177
70
0
0
VERTEX
8
LENS
10
88.434405
20
18.239059
70
0
0
VERTEX
8
LENS
10
88.862204
20
17.171040
70
0
0
VERTEX
8
LENS
10
89.310199
20
16.127030
70
0
0
VERTEX
8
LENS
10
89.776672
20
15.112648
70
0
0
VERTEX
8
LENS
10
90.260382
20
14.133149
70
0
0
VERTEX
8
LENS
10
90.760600
20
13.193355
70
0
0
VERTEX
8
LENS
10
91.277167
20
12.297562
70
0
0
VERTEX
8
LENS
10
91.810508
20
11.449422
70
0
0
VERTEX
8
LENS
10
92.361674
20
10.651816
70
0
0
VERTEX
8
LENS
10
92.932372
20
9.906718
70
0
0
VERTEX
8
LENS
10
93.524990
20
9.215072
70
0
0
VERTEX
8
LENS
10
94.142622
20
8.576670
70
0
0
VERTEX
8
LENS
10
94.789022
20
7.990124
70
0
0
VERTEX
8
LENS
10
95.468357
20
7.453055
70
0
0
VERTEX
8
LENS
10
96.184880
20
6.962399
70
0
0
VERTEX
8
LENS
10
96.942603
20
6.514703
70
0
0
VERTEX
8
LENS
10
97.744975
20
6.106428
70
0
0
VERTEX
8
LENS
10
98.594546
20
5.734231
70
0
0
VERTEX
8
LENS
10
99.492689
20
5.395258
70
0
0
VERTEX
8
LENS
10
100.439528
20
5.087212
70
0
0
VERTEX
8
LENS
10
101.434077
20
4.808323
70
0
0
VERTEX
8
LENS
10
102.474375
20
4.557273
70
0
0
VERTEX
8
LENS
10
103.557633
20
4.333132
70
0
0
VERTEX
8
LENS
10
104.680397
20
4.135287
70
0
0
VERTEX
8
LENS
10
105.838670
20
3.963385
70
0
0
VERTEX
8
LENS
10
107.028039
20
3.817288
70
0
0
VERTEX
8
LENS
10
108.243750
20
3.697043
70
0
0
VERTEX
8
LENS
10
109.480745
20
3.602904
70
0
0
VERTEX
8
LENS
10
110.733722
20
3.535314
70
0
0
VERTEX
8
LENS
10
111.997186
20
3.494904
70
0
0
VERTEX
8
LENS
10
113.265504
20
3.482487
70
0
0
VERTEX
8
LENS
10
114.532960
20
3.499066
70
0
0
VERTEX
8
LENS
10
115.793838
20
3.545794
70
0
0
VERTEX
8
LENS
10
117.042508
20
3.623986
70
0
0
VERTEX
8
LENS
10
118.273534
20
3.735071
70
0
0
VERTEX
8
LENS
10
119.481747
20
3.880587
70
0
0
VERTEX
8
LENS
10
120.662356
20
4.062159
70
0
0
VERTEX
8
LENS
10
121.811029
20
4.281475
70
0
0
VERTEX
8
LENS
10
122.923985
20
4.540263
70
0
0
VERTEX
8
LENS
10
123.998065
20
4.840271
70
0
0
VERTEX
8
LENS
10
125.030798
20
5.183232
70
0
0
VERTEX
8
LENS
10
126.020484
20
5.570835
70
0
0
VERTEX
8
LENS
10
126.966257
20
6.004714
70
0
0
VERTEX
8
LENS
10
127.868162
20
6.486398
70
0
0
VERTEX
8
LENS
10
128.727142
20
7.017289
70
0
0
VERTEX
8
LENS
10
129.544862
20
7.598560
70
0
0
VERTEX
8
LENS
10
130.323456
20
8.231067
70
0
0
VERTEX
8
LENS
10
131.065254
20
8.915246
70
0
0
VERTEX
8
LENS
10
131.772540
20
9.651023
70
0
0
VERTEX
8
LENS
10
132.447274
20
10.437694
70
0
0
VERTEX
8
LENS
10
133.090877
20
11.273861
70
0
0
VERTEX
8
LENS
10
133.704149
20
12.157425
70
0
0
VERTEX
8
LENS
10
134.287316
20
13.085662
70
0
0
VERTEX
8
LENS
10
134.840110
20
14.055314
70
0
0
VERTEX
8
LENS
10
135.361820
20
15.062660
70
0
0
VERTEX
8
LENS
10
135.851375
20
16.103612
70
0
0
VERTEX
8
LENS
10
136.307400
20
17.173792
70
0
0
VERTEX
8
LENS
10
136.728272
20
18.268597
70
0
0
VERTEX
8
LENS
10
137.112147
20
19.383245
70
0
0
VERTEX
8
LENS
10
137.456981
20
20.512792
70
0
0
VERTEX
8
LENS
10
137.760542
20
21.652182
70
0
0
VERTEX
8
LENS
10
138.020445
20
22.796263
70
0
0
VERTEX
8
LENS
10
138.234151
20
23.939820
70
0
0
VERTEX
8
LENS
10
138.399008
20
25.077622
70
0
0
VERTEX
8
LENS
10
138.512220
20
26.204462
70
0
0
VERTEX
8
LENS
10
138.570852
20
27.315243
70
0
0
VERTEX
8
LENS
10
138.571809
20
28.405028
70
0
0
VERTEX
8
LENS
10
138.511826
20
29.469118
70
0
0
VERTEX
8
LENS
10
138.387440
20
30.503116
70
0
0
VERTEX
8
LENS
10
138.195001
20
31.503004
70
0
0
VERTEX
8
LENS
10
138.072076
20
31.989006
70
0
0
VERTEX
8
LENS
10
137.930709
20
32.465160
70
0
0
VERTEX
8
LENS
10
137.770425
20
32.931080
70
0
0
VERTEX
8
LENS
10
137.590757
20
33.386406
70
0
0
VERTEX
8
LENS
10
137.391256
20
33.830805
70
0
0
VERTEX
8
LENS
10
137.171480
20
34.263981
70
0
0
VERTEX
8
LENS
10
136.931017
20
34.685652
70
0
0
VERTEX
8
LENS
10
136.669479
20
35.095576
70
0
0
VERTEX
8
LENS
10
136.386510
20
35.493532
70
0
0
VERTEX
8
LENS
10
136.081787
20
35.879331
70
0
0
SEQEND
8
LENS
 0 
ENDSEC
 0 
EOF