999
"DXF R12 Output" (www.mydxf.blogspot.com)
 0 
SECTION
 2 
HEADER
 9 
$ACADVER
 1 
AC1009
 9 
$EXTMIN
 10 
 0 
 20 
 0 
 9 
$EXTMAX
 10 
 8.5 
 20 
 11 
 0 
ENDSEC
 0 
SECTION
 2 
ENTITIES
0
POLYLINE
8
HINGE_POCKET
62
7
70
0
10
0.000000
20
0.000000
66
1
0
VERTEX
8
HINGE_POCKET
10
4.013224
20
4.763215
70
0
0
VERTEX
8
HINGE_POCKET
10
4.013224
20
1.563219
70
0
0
VERTEX
8
HINGE_POCKET
10
3.734040
20
0.936127
70
0
0
VERTEX
8
HINGE_POCKET
10
3.278381
20
0.446084
70
0
0
VERTEX
8
HINGE_POCKET
10
2.690145
20
0.127110
70
0
0
VERTEX
8
HINGE_POCKET
10
2.013227
20
0.013226
70
0
0
VERTEX
8
HINGE_POCKET
10
1.336309
20
0.127110
70
0
0
VERTEX
8
HINGE_POCKET
10
0.748072
20
0.446084
70
0
0
VERTEX
8
HINGE_POCKET
10
0.292413
20
0.936127
70
0
0
VERTEX
8
HINGE_POCKET
10
0.013229
20
1.563219
70
0
0
VERTEX
8
HINGE_POCKET
10
0.013229
20
4.763215
70
0
0
VERTEX
8
HINGE_POCKET
10
0.013229
20
7.963212
70
0
0
VERTEX
8
HINGE_POCKET
10
0.292413
20
8.590303
70
0
0
VERTEX
8
HINGE_POCKET
10
0.748072
20
9.080346
70
0
0
VERTEX
8
HINGE_POCKET
10
1.336309
20
9.399320
70
0
0
VERTEX
8
HINGE_POCKET
10
2.013227
20
9.513204
70
0
0
VERTEX
8
HINGE_POCKET
10
2.690145
20
9.399320
70
0
0
VERTEX
8
HINGE_POCKET
10
3.278381
20
9.080346
70
0
0
VERTEX
8
HINGE_POCKET
10
3.734040
20
8.590303
70
0
0
VERTEX
8
HINGE_POCKET
10
4.013224
20
7.963212
70
0
0
VERTEX
8
HINGE_POCKET
10
4.013224
20
4.763215
70
0
0
SEQEND
8
HINGE_POCKET
0
POLYLINE
8
DISTANCE_TO_ENDPIECE
62
7
70
0
10
0.000000
20
0.000000
66
1
0
VERTEX
8
DISTANCE_TO_ENDPIECE
10
4.013224
20
4.763215
70
0
0
VERTEX
8
DISTANCE_TO_ENDPIECE
10
7.784220
20
4.763215
70
0
0
SEQEND
8
DISTANCE_TO_ENDPIECE
 0 
ENDSEC
 0 
EOF