  0
SECTION
  2
HEADER
  9
$ACADVER
  1
AC1015
  9
$ACADMAINTVER
 70
6
  9
$DWGCODEPAGE
  3
ANSI_1252
  9
$INSBASE
 10
0.0
 20
0.0
 30
0.0
  9
$EXTMIN
 10
1e+20
 20
1e+20
 30
1e+20
  9
$EXTMAX
 10
-1e+20
 20
-1e+20
 30
-1e+20
  9
$LIMMIN
 10
0.0
 20
0.0
  9
$LIMMAX
 10
420.0
 20
297.0
  9
$ORTHOMODE
 70
0
  9
$REGENMODE
 70
1
  9
$FILLMODE
 70
1
  9
$QTEXTMODE
 70
0
  9
$MIRRTEXT
 70
1
  9
$LTSCALE
 40
1.0
  9
$ATTMODE
 70
1
  9
$TEXTSIZE
 40
2.5
  9
$TRACEWID
 40
1.0
  9
$TEXTSTYLE
  7
Standard
  9
$CLAYER
  8
0
  9
$CELTYPE
  6
ByLayer
  9
$CECOLOR
 62
256
  9
$CELTSCALE
 40
1.0
  9
$DISPSILH
 70
0
  9
$DIMSCALE
 40
1.0
  9
$DIMASZ
 40
2.5
  9
$DIMEXO
 40
0.625
  9
$DIMDLI
 40
3.75
  9
$DIMRND
 40
0.0
  9
$DIMDLE
 40
0.0
  9
$DIMEXE
 40
1.25
  9
$DIMTP
 40
0.0
  9
$DIMTM
 40
0.0
  9
$DIMTXT
 40
2.5
  9
$DIMCEN
 40
2.5
  9
$DIMTSZ
 40
0.0
  9
$DIMTOL
 70
0
  9
$DIMLIM
 70
0
  9
$DIMTIH
 70
0
  9
$DIMTOH
 70
0
  9
$DIMSE1
 70
0
  9
$DIMSE2
 70
0
  9
$DIMTAD
 70
1
  9
$DIMZIN
 70
8
  9
$DIMBLK
  1

  9
$DIMASO
 70
1
  9
$DIMSHO
 70
1
  9
$DIMPOST
  1

  9
$DIMAPOST
  1

  9
$DIMALT
 70
0
  9
$DIMALTD
 70
3
  9
$DIMALTF
 40
0.03937007874
  9
$DIMLFAC
 40
1.0
  9
$DIMTOFL
 70
1
  9
$DIMTVP
 40
0.0
  9
$DIMTIX
 70
0
  9
$DIMSOXD
 70
0
  9
$DIMSAH
 70
0
  9
$DIMBLK1
  1

  9
$DIMBLK2
  1

  9
$DIMSTYLE
  2
ISO-25
  9
$DIMCLRD
 70
0
  9
$DIMCLRE
 70
0
  9
$DIMCLRT
 70
0
  9
$DIMTFAC
 40
1.0
  9
$DIMGAP
 40
0.625
  9
$DIMJUST
 70
0
  9
$DIMSD1
 70
0
  9
$DIMSD2
 70
0
  9
$DIMTOLJ
 70
0
  9
$DIMTZIN
 70
8
  9
$DIMALTZ
 70
0
  9
$DIMALTTZ
 70
0
  9
$DIMUPT
 70
0
  9
$DIMDEC
 70
2
  9
$DIMTDEC
 70
2
  9
$DIMALTU
 70
2
  9
$DIMALTTD
 70
3
  9
$DIMTXSTY
  7
Standard
  9
$DIMAUNIT
 70
0
  9
$DIMADEC
 70
0
  9
$DIMALTRND
 40
0.0
  9
$DIMAZIN
 70
0
  9
$DIMDSEP
 70
44
  9
$DIMATFIT
 70
3
  9
$DIMFRAC
 70
0
  9
$DIMLDRBLK
  1

  9
$DIMLUNIT
 70
2
  9
$DIMLWD
 70
-2
  9
$DIMLWE
 70
-2
  9
$DIMTMOVE
 70
0
  9
$LUNITS
 70
2
  9
$LUPREC
 70
4
  9
$SKETCHINC
 40
1.0
  9
$FILLETRAD
 40
10.0
  9
$AUNITS
 70
0
  9
$AUPREC
 70
2
  9
$MENU
  1
.
  9
$ELEVATION
 40
0.0
  9
$PELEVATION
 40
0.0
  9
$THICKNESS
 40
0.0
  9
$LIMCHECK
 70
0
  9
$CHAMFERA
 40
0.0
  9
$CHAMFERB
 40
0.0
  9
$CHAMFERC
 40
0.0
  9
$CHAMFERD
 40
0.0
  9
$SKPOLY
 70
0
  9
$TDCREATE
 40
2461222.1009375
  9
$TDUCREATE
 40
2458532.153996898
  9
$TDUPDATE
 40
2461222.1009375
  9
$TDUUPDATE
 40
2458532.1544311
  9
$TDINDWG
 40
0.0
  9
$TDUSRTIMER
 40
0.0
  9
$USRTIMER
 70
1
  9
$ANGBASE
 50
0.0
  9
$ANGDIR
 70
0
  9
$PDMODE
 70
0
  9
$PDSIZE
 40
0.0
  9
$PLINEWID
 40
0.0
  9
$SPLFRAME
 70
0
  9
$SPLINETYPE
 70
6
  9
$SPLINESEGS
 70
8
  9
$HANDSEED
  5
57
  9
$SURFTAB1
 70
6
  9
$SURFTAB2
 70
6
  9
$SURFTYPE
 70
6
  9
$SURFU
 70
6
  9
$SURFV
 70
6
  9
$UCSBASE
  2

  9
$UCSNAME
  2

  9
$UCSORG
 10
0.0
 20
0.0
 30
0.0
  9
$UCSXDIR
 10
1.0
 20
0.0
 30
0.0
  9
$UCSYDIR
 10
0.0
 20
1.0
 30
0.0
  9
$UCSORTHOREF
  2

  9
$UCSORTHOVIEW
 70
0
  9
$UCSORGTOP
 10
0.0
 20
0.0
 30
0.0
  9
$UCSORGBOTTOM
 10
0.0
 20
0.0
 30
0.0
  9
$UCSORGLEFT
 10
0.0
 20
0.0
 30
0.0
  9
$UCSORGRIGHT
 10
0.0
 20
0.0
 30
0.0
  9
$UCSORGFRONT
 10
0.0
 20
0.0
 30
0.0
  9
$UCSORGBACK
 10
0.0
 20
0.0
 30
0.0
  9
$PUCSBASE
  2

  9
$PUCSNAME
  2

  9
$PUCSORG
 10
0.0
 20
0.0
 30
0.0
  9
$PUCSXDIR
 10
1.0
 20
0.0
 30
0.0
  9
$PUCSYDIR
 10
0.0
 20
1.0
 30
0.0
  9
$PUCSORTHOREF
  2

  9
$PUCSORTHOVIEW
 70
0
  9
$PUCSORGTOP
 10
0.0
 20
0.0
 30
0.0
  9
$PUCSORGBOTTOM
 10
0.0
 20
0.0
 30
0.0
  9
$PUCSORGLEFT
 10
0.0
 20
0.0
 30
0.0
  9
$PUCSORGRIGHT
 10
0.0
 20
0.0
 30
0.0
  9
$PUCSORGFRONT
 10
0.0
 20
0.0
 30
0.0
  9
$PUCSORGBACK
 10
0.0
 20
0.0
 30
0.0
  9
$USERI1
 70
0
  9
$USERI2
 70
0
  9
$USERI3
 70
0
  9
$USERI4
 70
0
  9
$USERI5
 70
0
  9
$USERR1
 40
0.0
  9
$USERR2
 40
0.0
  9
$USERR3
 40
0.0
  9
$USERR4
 40
0.0
  9
$USERR5
 40
0.0
  9
$WORLDVIEW
 70
1
  9
$SHADEDGE
 70
3
  9
$SHADEDIF
 70
70
  9
$TILEMODE
 70
1
  9
$MAXACTVP
 70
64
  9
$PINSBASE
 10
0.0
 20
0.0
 30
0.0
  9
$PLIMCHECK
 70
0
  9
$PEXTMIN
 10
1e+20
 20
1e+20
 30
1e+20
  9
$PEXTMAX
 10
-1e+20
 20
-1e+20
 30
-1e+20
  9
$PLIMMIN
 10
0.0
 20
0.0
  9
$PLIMMAX
 10
420.0
 20
297.0
  9
$UNITMODE
 70
0
  9
$VISRETAIN
 70
1
  9
$PLINEGEN
 70
0
  9
$PSLTSCALE
 70
1
  9
$TREEDEPTH
 70
3020
  9
$CMLSTYLE
  2
Standard
  9
$CMLJUST
 70
0
  9
$CMLSCALE
 40
20.0
  9
$PROXYGRAPHICS
 70
1
  9
$MEASUREMENT
 70
1
  9
$CELWEIGHT
370
-1
  9
$ENDCAPS
280
0
  9
$JOINSTYLE
280
0
  9
$LWDISPLAY
290
0
  9
$INSUNITS
 70
4
  9
$HYPERLINKBASE
  1

  9
$STYLESHEET
  1

  9
$XEDIT
290
1
  9
$CEPSNTYPE
380
0
  9
$PSTYLEMODE
290
1
  9
$FINGERPRINTGUID
  2
{F05A911B-1107-43F8-B67B-BF586AA3B54E}
  9
$VERSIONGUID
  2
{5A245FB7-2D96-4DA8-B918-49442D398F47}
  9
$EXTNAMES
290
1
  9
$PSVPSCALE
 40
0.0
  9
$OLESTARTUP
290
0
  0
ENDSEC
  0
SECTION
  2
CLASSES
  0
CLASS
  1
ACDBDICTIONARYWDFLT
  2
AcDbDictionaryWithDefault
  3
ObjectDBX Classes
 90
0
280
0
281
0
  0
CLASS
  1
SUN
  2
AcDbSun
  3
SCENEOE
 90
1153
280
0
281
0
  0
CLASS
  1
VISUALSTYLE
  2
AcDbVisualStyle
  3
ObjectDBX Classes
 90
4095
280
0
281
0
  0
CLASS
  1
MATERIAL
  2
AcDbMaterial
  3
ObjectDBX Classes
 90
1153
280
0
281
0
  0
CLASS
  1
SCALE
  2
AcDbScale
  3
ObjectDBX Classes
 90
1153
280
0
281
0
  0
CLASS
  1
TABLESTYLE
  2
AcDbTableStyle
  3
ObjectDBX Classes
 90
4095
280
0
281
0
  0
CLASS
  1
MLEADERSTYLE
  2
AcDbMLeaderStyle
  3
ACDB_MLEADERSTYLE_CLASS
 90
4095
280
0
281
0
  0
CLASS
  1
DICTIONARYVAR
  2
AcDbDictionaryVar
  3
ObjectDBX Classes
 90
0
280
0
281
0
  0
CLASS
  1
CELLSTYLEMAP
  2
AcDbCellStyleMap
  3
ObjectDBX Classes
 90
1152
280
0
281
0
  0
CLASS
  1
MENTALRAYRENDERSETTINGS
  2
AcDbMentalRayRenderSettings
  3
SCENEOE
 90
1024
280
0
281
0
  0
CLASS
  1
ACDBDETAILVIEWSTYLE
  2
AcDbDetailViewStyle
  3
ObjectDBX Classes
 90
1025
280
0
281
0
  0
CLASS
  1
ACDBSECTIONVIEWSTYLE
  2
AcDbSectionViewStyle
  3
ObjectDBX Classes
 90
1025
280
0
281
0
  0
CLASS
  1
RASTERVARIABLES
  2
AcDbRasterVariables
  3
ISM
 90
0
280
0
281
0
  0
CLASS
  1
ACDBPLACEHOLDER
  2
AcDbPlaceHolder
  3
ObjectDBX Classes
 90
0
280
0
281
0
  0
CLASS
  1
LAYOUT
  2
AcDbLayout
  3
ObjectDBX Classes
 90
0
280
0
281
0
  0
ENDSEC
  0
SECTION
  2
TABLES
  0
TABLE
  2
VPORT
  5
8
330
0
100
AcDbSymbolTable
 70
1
  0
VPORT
  5
23
330
8
100
AcDbSymbolTableRecord
100
AcDbViewportTableRecord
  2
*Active
 70
0
 10
0.0
 20
0.0
 11
1.0
 21
1.0
 12
0.0
 22
0.0
 13
0.0
 23
0.0
 14
0.5
 24
0.5
 15
0.5
 25
0.5
 16
0.0
 26
0.0
 36
1.0
 17
0.0
 27
0.0
 37
0.0
 40
1000.0
 41
1.34
 42
50.0
 43
0.0
 44
0.0
 50
0.0
 51
0.0
 71
0
 72
1000
 73
1
 74
3
 75
0
 76
0
 77
0
 78
0
281
0
 65
0
146
0.0
  0
ENDTAB
  0
TABLE
  2
LTYPE
  5
2
330
0
100
AcDbSymbolTable
 70
3
  0
LTYPE
  5
24
330
2
100
AcDbSymbolTableRecord
100
AcDbLinetypeTableRecord
  2
ByBlock
 70
0
  3

 72
65
 73
0
 40
0.0
  0
LTYPE
  5
25
330
2
100
AcDbSymbolTableRecord
100
AcDbLinetypeTableRecord
  2
ByLayer
 70
0
  3

 72
65
 73
0
 40
0.0
  0
LTYPE
  5
26
330
2
100
AcDbSymbolTableRecord
100
AcDbLinetypeTableRecord
  2
Continuous
 70
0
  3

 72
65
 73
0
 40
0.0
  0
ENDTAB
  0
TABLE
  2
LAYER
  5
1
330
0
100
AcDbSymbolTable
 70
2
  0
LAYER
  5
27
330
1
100
AcDbSymbolTableRecord
100
AcDbLayerTableRecord
  2
0
 70
0
 62
7
  6
Continuous
370
-3
390
13
  0
LAYER
  5
28
330
1
100
AcDbSymbolTableRecord
100
AcDbLayerTableRecord
  2
Defpoints
 70
0
 62
7
  6
Continuous
290
0
370
-3
390
13
  0
ENDTAB
  0
TABLE
  2
STYLE
  5
5
330
0
100
AcDbSymbolTable
 70
1
  0
STYLE
  5
29
330
5
100
AcDbSymbolTableRecord
100
AcDbTextStyleTableRecord
  2
Standard
 70
0
 40
0.0
 41
1.0
 50
0.0
 71
0
 42
2.5
  3
txt
  4

  0
ENDTAB
  0
TABLE
  2
VIEW
  5
7
330
0
100
AcDbSymbolTable
 70
0
  0
ENDTAB
  0
TABLE
  2
UCS
  5
6
330
0
100
AcDbSymbolTable
 70
0
  0
ENDTAB
  0
TABLE
  2
APPID
  5
3
330
0
100
AcDbSymbolTable
 70
3
  0
APPID
  5
2A
330
3
100
AcDbSymbolTableRecord
100
AcDbRegAppTableRecord
  2
ACAD
 70
0
  0
APPID
  5
54
330
3
100
AcDbSymbolTableRecord
100
AcDbRegAppTableRecord
  2
HATCHBACKGROUNDCOLOR
 70
0
  0
APPID
  5
55
330
3
100
AcDbSymbolTableRecord
100
AcDbRegAppTableRecord
  2
EZDXF
 70
0
  0
ENDTAB
  0
TABLE
  2
DIMSTYLE
  5
4
330
0
100
AcDbSymbolTable
 70
1
100
AcDbDimStyleTable
  0
DIMSTYLE
105
2B
330
4
100
AcDbSymbolTableRecord
100
AcDbDimStyleTableRecord
  2
Standard
 70
0
  3

  4

 40
1.0
 41
2.5
 42
0.625
 43
3.75
 44
1.25
 45
0.0
 46
0.0
 47
0.0
 48
0.0
140
2.5
141
2.5
142
0.0
143
0.03937007874
144
1.0
145
0.0
146
1.0
147
0.625
148
0.0
 71
0
 72
0
 73
0
 74
0
 75
0
 76
0
 77
1
 78
8
 79
3
170
0
171
3
172
1
173
0
174
0
175
0
176
0
177
0
178
0
179
2
271
2
272
2
273
2
274
3
275
0
276
0
277
2
278
44
279
0
280
0
281
0
282
0
283
0
284
8
285
0
286
0
288
0
289
3
371
-2
372
-2
  0
ENDTAB
  0
TABLE
  2
BLOCK_RECORD
  5
9
330
0
100
AcDbSymbolTable
 70
2
  0
BLOCK_RECORD
  5
17
330
9
100
AcDbSymbolTableRecord
100
AcDbBlockTableRecord
  2
*Model_Space
340
1A
  0
BLOCK_RECORD
  5
1B
330
9
100
AcDbSymbolTableRecord
100
AcDbBlockTableRecord
  2
*Paper_Space
340
1E
  0
ENDTAB
  0
ENDSEC
  0
SECTION
  2
BLOCKS
  0
BLOCK
  5
18
330
17
100
AcDbEntity
  8
0
100
AcDbBlockBegin
  2
*Model_Space
 70
0
 10
0.0
 20
0.0
 30
0.0
  3
*Model_Space
  1

  0
ENDBLK
  5
19
330
17
100
AcDbEntity
  8
0
100
AcDbBlockEnd
  0
BLOCK
  5
1C
330
1B
100
AcDbEntity
  8
0
100
AcDbBlockBegin
  2
*Paper_Space
 70
0
 10
0.0
 20
0.0
 30
0.0
  3
*Paper_Space
  1

  0
ENDBLK
  5
1D
330
1B
100
AcDbEntity
  8
0
100
AcDbBlockEnd
  0
ENDSEC
  0
SECTION
  2
ENTITIES
  0
LWPOLYLINE
  5
2F
330
17
100
AcDbEntity
  8
REF
100
AcDbPolyline
 90
2
 70
0
 10
-73.74785055738539
 20
18.036182138908778
 10
-73.74785055738536
 20
10.03618213890878
  0
SPLINE
  5
30
330
17
100
AcDbEntity
  8
REF
100
AcDbSpline
 70
1
 71
3
 72
197
 73
193
 74
0
 40
0.0
 40
0.0
 40
0.0
 40
0.0
 40
1.0
 40
1.0
 40
1.0
 40
2.0
 40
2.0
 40
2.0
 40
3.0
 40
3.0
 40
3.0
 40
4.0
 40
4.0
 40
4.0
 40
5.0
 40
5.0
 40
5.0
 40
6.0
 40
6.0
 40
6.0
 40
7.0
 40
7.0
 40
7.0
 40
8.0
 40
8.0
 40
8.0
 40
9.0
 40
9.0
 40
9.0
 40
10.0
 40
10.0
 40
10.0
 40
11.0
 40
11.0
 40
11.0
 40
12.0
 40
12.0
 40
12.0
 40
13.0
 40
13.0
 40
13.0
 40
14.0
 40
14.0
 40
14.0
 40
15.0
 40
15.0
 40
15.0
 40
16.0
 40
16.0
 40
16.0
 40
17.0
 40
17.0
 40
17.0
 40
18.0
 40
18.0
 40
18.0
 40
19.0
 40
19.0
 40
19.0
 40
20.0
 40
20.0
 40
20.0
 40
21.0
 40
21.0
 40
21.0
 40
22.0
 40
22.0
 40
22.0
 40
23.0
 40
23.0
 40
23.0
 40
24.0
 40
24.0
 40
24.0
 40
25.0
 40
25.0
 40
25.0
 40
26.0
 40
26.0
 40
26.0
 40
27.0
 40
27.0
 40
27.0
 40
28.0
 40
28.0
 40
28.0
 40
29.0
 40
29.0
 40
29.0
 40
30.0
 40
30.0
 40
30.0
 40
31.0
 40
31.0
 40
31.0
 40
32.0
 40
32.0
 40
32.0
 40
33.0
 40
33.0
 40
33.0
 40
34.0
 40
34.0
 40
34.0
 40
35.0
 40
35.0
 40
35.0
 40
36.0
 40
36.0
 40
36.0
 40
37.0
 40
37.0
 40
37.0
 40
38.0
 40
38.0
 40
38.0
 40
39.0
 40
39.0
 40
39.0
 40
40.0
 40
40.0
 40
40.0
 40
41.0
 40
41.0
 40
41.0
 40
42.0
 40
42.0
 40
42.0
 40
43.0
 40
43.0
 40
43.0
 40
44.0
 40
44.0
 40
44.0
 40
45.0
 40
45.0
 40
45.0
 40
46.0
 40
46.0
 40
46.0
 40
47.0
 40
47.0
 40
47.0
 40
48.0
 40
48.0
 40
48.0
 40
49.0
 40
49.0
 40
49.0
 40
50.0
 40
50.0
 40
50.0
 40
51.0
 40
51.0
 40
51.0
 40
52.0
 40
52.0
 40
52.0
 40
53.0
 40
53.0
 40
53.0
 40
54.0
 40
54.0
 40
54.0
 40
55.0
 40
55.0
 40
55.0
 40
56.0
 40
56.0
 40
56.0
 40
57.0
 40
57.0
 40
57.0
 40
58.0
 40
58.0
 40
58.0
 40
59.0
 40
59.0
 40
59.0
 40
60.0
 40
60.0
 40
60.0
 40
61.0
 40
61.0
 40
61.0
 40
62.0
 40
62.0
 40
62.0
 40
63.0
 40
63.0
 40
63.0
 40
64.0
 40
64.0
 40
64.0
 40
64.0
 10
-10.77681993121374
 20
12.396650182481103
 30
0.0
 10
-10.527545547950751
 20
12.038101729453992
 30
0.0
 10
-10.35472803470488
 20
11.89614969710859
 30
0.0
 10
-10.145231870364011
 20
11.248880709835653
 30
0.0
 10
-9.935735706023141
 20
10.601611722562714
 30
0.0
 10
-9.62941282016253
 20
9.23195698937463
 30
0.0
 10
-9.51984294516852
 20
8.513036258843474
 30
0.0
 10
-9.41027307017451
 20
7.794115528312317
 30
0.0
 10
-9.471993434756351
 20
7.481668170390581
 30
0.0
 10
-9.487812620399952
 20
6.935356326648714
 30
0.0
 10
-9.503631806043552
 20
6.389044482906847
 30
0.0
 10
-9.549464324682491
 20
5.818814402947608
 30
0.0
 10
-9.614758059030127
 20
5.235165196392272
 30
0.0
 10
-9.680051793377762
 20
4.651515989836935
 30
0.0
 10
-9.69151250288492
 20
4.367071767681069
 30
0.0
 10
-9.879575026485762
 20
3.4334610873166937
 30
0.0
 10
-10.067637550086603
 20
2.4998504069523193
 30
0.0
 10
-10.505474260111859
 20
0.589740946521438
 30
0.0
 10
-10.743133200635175
 20
-0.3664988857939697
 30
0.0
 10
-10.98079214115849
 20
-1.322738718109381
 30
0.0
 10
-11.10707193137991
 20
-1.6609497805334783
 30
0.0
 10
-11.30552866962566
 20
-2.30397790657576
 30
0.0
 10
-11.503985407871411
 20
-2.947006032618045
 30
0.0
 10
-11.71557801163123
 20
-3.5923419089828315
 30
0.0
 10
-11.933873630109682
 20
-4.22466764204767
 30
0.0
 10
-12.152169248588134
 20
-4.856993375112509
 30
0.0
 10
-12.254080486087924
 20
-5.204146924503682
 30
0.0
 10
-12.615302380496372
 20
-6.0979323049647896
 30
0.0
 10
-12.976524274904818
 20
-6.9917176854259
 30
0.0
 10
-13.720948706132855
 20
-8.744988355852705
 30
0.0
 10
-14.101204996560373
 20
-9.587379924814336
 30
0.0
 10
-14.48146128698789
 20
-10.429771493775961
 30
0.0
 10
-14.625431341609293
 20
-10.655235027556545
 30
0.0
 10
-14.89684012306148
 20
-11.152281718734537
 30
0.0
 10
-15.168248904513664
 20
-11.649328409912528
 30
0.0
 10
-15.44429553610157
 20
-12.123996778019624
 30
0.0
 10
-15.729657685273494
 20
-12.569660071882275
 30
0.0
 10
-16.015019834445415
 20
-13.015323365744933
 30
0.0
 10
-16.13341725354613
 20
-13.280303094568758
 30
0.0
 10
-16.609013018093016
 20
-13.826261481910471
 30
0.0
 10
-17.0846087826399
 20
-14.372219869252184
 30
0.0
 10
-18.062945736048
 20
-15.379382577322382
 30
0.0
 10
-18.583232272554795
 20
-15.845410395932554
 30
0.0
 10
-19.10351880906159
 20
-16.311438214542726
 30
0.0
 10
-19.32452666289516
 20
-16.386170302347125
 30
0.0
 10
-19.730732237133775
 20
-16.62242839357151
 30
0.0
 10
-20.13693781137239
 20
-16.858686484795903
 30
0.0
 10
-20.563791347179333
 20
-17.069475606740724
 30
0.0
 10
-21.020465717986486
 20
-17.262958943278896
 30
0.0
 10
-21.47714008879364
 20
-17.456442279817068
 30
0.0
 10
-21.66264971191185
 20
-17.573171444362615
 30
0.0
 10
-22.470778461976707
 20
-17.78332841280055
 30
0.0
 10
-23.278907212041563
 20
-17.993485381238493
 30
0.0
 10
-24.98117052923008
 20
-18.359385546651225
 30
0.0
 10
-25.86923821837562
 20
-18.523900753906524
 30
0.0
 10
-26.75730590752116
 20
-18.688415961161823
 30
0.0
 10
-27.134533950309763
 20
-18.699510008068728
 30
0.0
 10
-27.799184596849944
 20
-18.77041965633235
 30
0.0
 10
-28.463835243390125
 20
-18.841329304595973
 30
0.0
 10
-29.154288926205517
 20
-18.899448072792026
 30
0.0
 10
-29.857142097616716
 20
-18.949358643488253
 30
0.0
 10
-30.559995269027915
 20
-18.99926921418448
 30
0.0
 10
-30.907181513616067
 20
-19.034292534543
 30
0.0
 10
-32.016303625317136
 20
-19.069883080509726
 30
0.0
 10
-33.125425737018205
 20
-19.105473626476467
 30
0.0
 10
-35.38465038960863
 20
-19.15062823017294
 30
0.0
 10
-36.51187476782314
 20
-19.162901919288643
 30
0.0
 10
-37.639099146037644
 20
-19.17517560840436
 30
0.0
 10
-38.02928738576226
 20
-19.15708347933068
 30
0.0
 10
-38.779649894604184
 20
-19.143525215203965
 30
0.0
 10
-39.53001240344611
 20
-19.129966951077265
 30
0.0
 10
-40.28045669050704
 20
-19.10967531415237
 30
0.0
 10
-41.0140498208747
 20
-19.08155233452841
 30
0.0
 10
-41.74764295124237
 20
-19.053429354904466
 30
0.0
 10
-42.15168779761211
 20
-19.054129756954268
 30
0.0
 10
-43.181208676810186
 20
-18.97478733746027
 30
0.0
 10
-44.21072955600826
 20
-18.895444917966273
 30
0.0
 10
-46.224234992710514
 20
-18.713644878697174
 30
0.0
 10
-47.191175096063155
 20
-18.60549781756442
 30
0.0
 10
-48.158115199415796
 20
-18.497350756431665
 30
0.0
 10
-48.41329629975635
 20
-18.43237288893617
 30
0.0
 10
-48.982849296926034
 20
-18.325904970663743
 30
0.0
 10
-49.55240229409572
 20
-18.219437052391314
 30
0.0
 10
-50.095422781984155
 20
-18.102524087839228
 30
0.0
 10
-50.60849307908127
 20
-17.966690307929838
 30
0.0
 10
-51.121563376178386
 20
-17.830856528020448
 30
0.0
 10
-51.41617100336482
 20
-17.802119496421383
 30
0.0
 10
-52.061271079508735
 20
-17.510902291207394
 30
0.0
 10
-52.70637115565265
 20
-17.219685085993405
 30
0.0
 10
-53.90833226538943
 20
-16.582513844430707
 30
0.0
 10
-54.47909353594472
 20
-16.21938707664591
 30
0.0
 10
-55.04985480650001
 20
-15.85626030886111
 30
0.0
 10
-55.16674692034495
 20
-15.659722542783001
 30
0.0
 10
-55.48583870284046
 20
-15.332141684498595
 30
0.0
 10
-55.80493048533597
 20
-15.004560826214181
 30
0.0
 10
-56.103450302151614
 20
-14.647126026763985
 30
0.0
 10
-56.393644230917786
 20
-14.253901926939442
 30
0.0
 10
-56.68383815968396
 20
-13.860677827114898
 30
0.0
 10
-56.8372663032207
 20
-13.712160082346493
 30
0.0
 10
-57.2270022754375
 20
-12.972797085551342
 30
0.0
 10
-57.6167382476543
 20
-12.23343408875619
 30
0.0
 10
-58.36711161844821
 20
-10.649966624131993
 30
0.0
 10
-58.73206006421859
 20
-9.817723946168542
 30
0.0
 10
-59.09700850998896
 20
-8.985481268205092
 30
0.0
 10
-59.196217571405086
 20
-8.614881178587765
 30
0.0
 10
-59.41669295005975
 20
-7.979341017770638
 30
0.0
 10
-59.63716832871441
 20
-7.343800856953516
 30
0.0
 10
-59.851013084948065
 20
-6.679683675829651
 30
0.0
 10
-60.054912336146536
 20
-6.00448298126577
 30
0.0
 10
-60.25881158734501
 20
-5.329282286701897
 30
0.0
 10
-60.381394975295514
 20
-4.990889028262469
 30
0.0
 10
-60.640088457250556
 20
-3.9281368503873715
 30
0.0
 10
-60.898781939205584
 20
-2.865384672512274
 30
0.0
 10
-61.3871193157823
 20
-0.7013937321926207
 30
0.0
 10
-61.607073227876796
 20
0.37203008598480025
 30
0.0
 10
-61.827027139971285
 20
1.4454539041622247
 30
0.0
 10
-61.860553940590286
 20
1.8094092532441692
 30
0.0
 10
-61.95981192981751
 20
2.5124060586771684
 30
0.0
 10
-62.05906991904474
 20
3.2154028641101675
 30
0.0
 10
-62.143124039870635
 20
3.9145926026060964
 30
0.0
 10
-62.20262116324012
 20
4.590010918582792
 30
0.0
 10
-62.2621182866096
 20
5.265429234559489
 30
0.0
 10
-62.33691197348983
 20
5.651228364905123
 30
0.0
 10
-62.3167946700344
 20
6.5649159545373506
 30
0.0
 10
-62.29667736657899
 20
7.478603544169578
 30
0.0
 10
-62.18558088695335
 20
9.240236700482999
 30
0.0
 10
-62.081917342507616
 20
10.07213645637616
 30
0.0
 10
-61.97825379806191
 20
10.904036212269325
 30
0.0
 10
-61.85769457281638
 20
11.094329854768581
 30
0.0
 10
-61.69481340336001
 20
11.55631448989633
 30
0.0
 10
-61.531932233903646
 20
12.018299125024079
 30
0.0
 10
-61.33759761690702
 20
12.447647288103461
 30
0.0
 10
-61.10463032576941
 20
12.844044267142655
 30
0.0
 10
-60.871663034631815
 20
13.240441246181849
 30
0.0
 10
-60.81579905931731
 20
13.480307426683499
 30
0.0
 10
-60.29700965653435
 20
13.934696364131492
 30
0.0
 10
-59.77822025375138
 20
14.389085301579483
 30
0.0
 10
-58.626749256420894
 20
15.199915856500102
 30
0.0
 10
-57.99189390907161
 20
15.570377891830605
 30
0.0
 10
-57.35703856172232
 20
15.940839927161107
 30
0.0
 10
-57.02749262352717
 20
15.981826154788171
 30
0.0
 10
-56.48787757243861
 20
16.157468576114507
 30
0.0
 10
-55.94826252135005
 20
16.333110997440844
 30
0.0
 10
-55.368586507294054
 20
16.48486585760698
 30
0.0
 10
-54.75420360254025
 20
16.624232419788616
 30
0.0
 10
-54.13982069778645
 20
16.763598981970247
 30
0.0
 10
-53.87544620174029
 20
16.846794776840937
 30
0.0
 10
-52.80158014391579
 20
16.99366794920431
 30
0.0
 10
-51.7277140860913
 20
17.14054112156768
 30
0.0
 10
-49.4744600613502
 20
17.392983912461755
 30
0.0
 10
-48.31100725559329
 20
17.505471453968827
 30
0.0
 10
-47.14755444983638
 20
17.617958995475906
 30
0.0
 10
-46.67178652213016
 20
17.623040538310782
 30
0.0
 10
-45.82086330937431
 20
17.668593198246764
 30
0.0
 10
-44.96994009661846
 20
17.714145858182743
 30
0.0
 10
-44.09285591515538
 20
17.750079079683065
 30
0.0
 10
-43.20546797905818
 20
17.77878741358472
 30
0.0
 10
-42.31808004296097
 20
17.807495747486374
 30
0.0
 10
-41.87529934659532
 20
17.831867160209452
 30
0.0
 10
-40.4965356927911
 20
17.840843201656686
 30
0.0
 10
-39.11777203898688
 20
17.84981924310392
 30
0.0
 10
-36.32435217607366
 20
17.845512839947776
 30
0.0
 10
-34.93288605623284
 20
17.832643662268115
 30
0.0
 10
-33.54141993639202
 20
17.819774484588446
 30
0.0
 10
-33.068722172274704
 20
17.794349241289854
 30
0.0
 10
-32.14773897374615
 20
17.763628135578703
 30
0.0
 10
-31.226755775217597
 20
17.73290702986755
 30
0.0
 10
-30.307465160538356
 20
17.695281329093905
 30
0.0
 10
-29.406986865061512
 20
17.648317028001212
 30
0.0
 10
-28.50650856958467
 20
17.60135272690852
 30
0.0
 10
-28.014946081010557
 20
17.594968123445913
 30
0.0
 10
-26.74486920088511
 20
17.48184232902255
 30
0.0
 10
-25.47479232075966
 20
17.36871653459919
 30
0.0
 10
-22.985677674210528
 20
17.11499475240207
 30
0.0
 10
-21.78652558430883
 20
16.96956226146105
 30
0.0
 10
-20.58737349440713
 20
16.824129770520024
 30
0.0
 10
-20.262752040460263
 20
16.742693010537238
 30
0.0
 10
-19.549956661474923
 20
16.609247383376413
 30
0.0
 10
-18.837161282489582
 20
16.475801756215585
 30
0.0
 10
-18.15364870492909
 20
16.33055307594906
 30
0.0
 10
-17.509753310396775
 20
16.168888498496095
 30
0.0
 10
-16.86585791586446
 20
16.007223921043128
 30
0.0
 10
-16.480517966485053
 20
15.95617308132436
 30
0.0
 10
-15.686584294281026
 20
15.639259918658613
 30
0.0
 10
-14.892650622077
 20
15.322346755992868
 30
0.0
 10
-13.420435631229129
 20
14.640590937611668
 30
0.0
 10
-12.746151277172615
 20
14.267409522501618
 30
0.0
 10
-12.0718669231161
 20
13.894228107391568
 30
0.0
 10
-11.969100060935085
 20
13.711964651335073
 30
0.0
 10
-11.64087816994194
 20
13.40017142799832
 30
0.0
 10
-11.312656278948795
 20
13.088378204661566
 30
0.0
 10
-11.02609431447673
 20
12.755198635508215
 30
0.0
 10
-10.77681993121374
 20
12.396650182481103
 30
0.0
  0
SPLINE
  5
31
330
17
100
AcDbEntity
  8
REF
100
AcDbSpline
 70
0
 71
3
 72
194
 73
190
 74
0
 40
0.0
 40
0.0
 40
0.0
 40
0.0
 40
1.0
 40
1.0
 40
1.0
 40
2.0
 40
2.0
 40
2.0
 40
3.0
 40
3.0
 40
3.0
 40
4.0
 40
4.0
 40
4.0
 40
5.0
 40
5.0
 40
5.0
 40
6.0
 40
6.0
 40
6.0
 40
7.0
 40
7.0
 40
7.0
 40
8.0
 40
8.0
 40
8.0
 40
9.0
 40
9.0
 40
9.0
 40
10.0
 40
10.0
 40
10.0
 40
11.0
 40
11.0
 40
11.0
 40
12.0
 40
12.0
 40
12.0
 40
13.0
 40
13.0
 40
13.0
 40
14.0
 40
14.0
 40
14.0
 40
15.0
 40
15.0
 40
15.0
 40
16.0
 40
16.0
 40
16.0
 40
17.0
 40
17.0
 40
17.0
 40
18.0
 40
18.0
 40
18.0
 40
19.0
 40
19.0
 40
19.0
 40
20.0
 40
20.0
 40
20.0
 40
21.0
 40
21.0
 40
21.0
 40
22.0
 40
22.0
 40
22.0
 40
23.0
 40
23.0
 40
23.0
 40
24.0
 40
24.0
 40
24.0
 40
25.0
 40
25.0
 40
25.0
 40
26.0
 40
26.0
 40
26.0
 40
27.0
 40
27.0
 40
27.0
 40
28.0
 40
28.0
 40
28.0
 40
29.0
 40
29.0
 40
29.0
 40
30.0
 40
30.0
 40
30.0
 40
31.0
 40
31.0
 40
31.0
 40
32.0
 40
32.0
 40
32.0
 40
33.0
 40
33.0
 40
33.0
 40
34.0
 40
34.0
 40
34.0
 40
35.0
 40
35.0
 40
35.0
 40
36.0
 40
36.0
 40
36.0
 40
37.0
 40
37.0
 40
37.0
 40
38.0
 40
38.0
 40
38.0
 40
39.0
 40
39.0
 40
39.0
 40
40.0
 40
40.0
 40
40.0
 40
41.0
 40
41.0
 40
41.0
 40
42.0
 40
42.0
 40
42.0
 40
43.0
 40
43.0
 40
43.0
 40
44.0
 40
44.0
 40
44.0
 40
45.0
 40
45.0
 40
45.0
 40
46.0
 40
46.0
 40
46.0
 40
47.0
 40
47.0
 40
47.0
 40
48.0
 40
48.0
 40
48.0
 40
49.0
 40
49.0
 40
49.0
 40
50.0
 40
50.0
 40
50.0
 40
51.0
 40
51.0
 40
51.0
 40
52.0
 40
52.0
 40
52.0
 40
53.0
 40
53.0
 40
53.0
 40
54.0
 40
54.0
 40
54.0
 40
55.0
 40
55.0
 40
55.0
 40
56.0
 40
56.0
 40
56.0
 40
57.0
 40
57.0
 40
57.0
 40
58.0
 40
58.0
 40
58.0
 40
59.0
 40
59.0
 40
59.0
 40
60.0
 40
60.0
 40
60.0
 40
61.0
 40
61.0
 40
61.0
 40
62.0
 40
62.0
 40
62.0
 40
63.0
 40
63.0
 40
63.0
 40
63.0
 10
-73.74785055738536
 20
10.03618213890878
 30
0.0
 10
-73.5122339993896
 20
9.969892490708727
 30
0.0
 10
-72.78989482316797
 20
9.760597299029934
 30
0.0
 10
-72.33415120941069
 20
9.63844424970846
 30
0.0
 10
-71.87840759565339
 20
9.516291200386986
 30
0.0
 10
-71.43495041646091
 20
9.414560865369921
 30
0.0
 10
-71.01338887484161
 20
9.303263842979936
 30
0.0
 10
-70.59182733322234
 20
9.19196682058995
 30
0.0
 10
-70.18533212051372
 20
9.094490920332024
 30
0.0
 10
-69.80478195969502
 20
8.970662115368551
 30
0.0
 10
-69.42423179887635
 20
8.846833310405074
 30
0.0
 10
-69.06277606916947
 20
8.724668266694898
 30
0.0
 10
-68.73008790992952
 20
8.560291013199084
 30
0.0
 10
-68.39739975068957
 20
8.39591375970327
 30
0.0
 10
-68.02876457752626
 20
8.14306730546835
 30
0.0
 10
-67.80865300425535
 20
7.984398594393656
 30
0.0
 10
-67.58854143098444
 20
7.825729883318962
 30
0.0
 10
-67.58897425467742
 20
7.832250003661204
 30
0.0
 10
-67.40941847030402
 20
7.608278746750919
 30
0.0
 10
-67.22986268593061
 20
7.3843074898406345
 30
0.0
 10
-66.93501240127071
 20
7.01446828837756
 30
0.0
 10
-66.73131829801488
 20
6.640571052931947
 30
0.0
 10
-66.52762419475908
 20
6.266673817486335
 30
0.0
 10
-66.35530805818408
 20
5.839068817865655
 30
0.0
 10
-66.18725385076917
 20
5.364895334077241
 30
0.0
 10
-66.01919964335423
 20
4.890721850288828
 30
0.0
 10
-65.87473695978622
 20
4.359709414833046
 30
0.0
 10
-65.72299305352533
 20
3.7955301502014613
 30
0.0
 10
-65.57124914726444
 20
3.2313508855698814
 30
0.0
 10
-65.43123060175557
 20
2.6153840113813587
 30
0.0
 10
-65.27679041320386
 20
1.9798197462877525
 30
0.0
 10
-65.12235022465217
 20
1.3442554811941463
 30
0.0
 10
-64.96750453064564
 20
0.6675520033434701
 30
0.0
 10
-64.79635192221508
 20
-0.017855440360179387
 30
0.0
 10
-64.62519931378449
 20
-0.7032628840638253
 30
0.0
 10
-64.4448557986259
 20
-1.4179894180635166
 30
0.0
 10
-64.24987476262041
 20
-2.1326249159341337
 30
0.0
 10
-64.05489372661492
 20
-2.847260413804751
 30
0.0
 10
-63.84693249123886
 20
-3.580930244972361
 30
0.0
 10
-63.62646570618217
 20
-4.305668427583878
 30
0.0
 10
-63.40599892112548
 20
-5.030406610195396
 30
0.0
 10
-63.17188766376282
 20
-5.764457991175423
 30
0.0
 10
-62.92707405228029
 20
-6.481054011603234
 30
0.0
 10
-62.68226044079776
 20
-7.197650032031053
 30
0.0
 10
-62.353947752825235
 20
-8.079935647334475
 30
0.0
 10
-62.157584037287
 20
-8.605244550150779
 30
0.0
 10
-61.96122032174879
 20
-9.13055345296708
 30
0.0
 10
-61.96055501962582
 20
-9.134931019484556
 30
0.0
 10
-61.748891759051
 20
-9.632907428501056
 30
0.0
 10
-61.53722849847621
 20
-10.130883837517551
 30
0.0
 10
-61.184185257474994
 20
-10.965718447773243
 30
0.0
 10
-60.887604473838145
 20
-11.593103004249762
 30
0.0
 10
-60.5910236902013
 20
-12.220487560726284
 30
0.0
 10
-60.28608603910707
 20
-12.826470136196079
 30
0.0
 10
-59.96940705722987
 20
-13.397214767360182
 30
0.0
 10
-59.65272807535268
 20
-13.967959398524293
 30
0.0
 10
-59.32934980859001
 20
-14.510955690287524
 30
0.0
 10
-58.98753058257498
 20
-15.017570791234412
 30
0.0
 10
-58.64571135655996
 20
-15.5241858921813
 30
0.0
 10
-58.29697955257828
 20
-15.998124981193612
 30
0.0
 10
-57.918491701139736
 20
-16.43690537304152
 30
0.0
 10
-57.54000384970119
 20
-16.875685764889425
 30
0.0
 10
-57.15043173089645
 20
-17.278909398766466
 30
0.0
 10
-56.71660347394372
 20
-17.650253142321844
 30
0.0
 10
-56.28277521699099
 20
-18.021596885877223
 30
0.0
 10
-55.82837023768812
 20
-18.356971348382572
 30
0.0
 10
-55.315522159423345
 20
-18.66496783437379
 30
0.0
 10
-54.80267408115857
 20
-18.97296432036501
 30
0.0
 10
-54.253392495820925
 20
-19.247377433484857
 30
0.0
 10
-53.639515004355054
 20
-19.498232058269167
 30
0.0
 10
-53.02563751288918
 20
-19.749086683053463
 30
0.0
 10
-52.35868709517864
 20
-19.970270605510905
 30
0.0
 10
-51.632257210628126
 20
-20.17009558307958
 30
0.0
 10
-50.90582732607761
 20
-20.369920560648275
 30
0.0
 10
-50.11781798252619
 20
-20.543442176039314
 30
0.0
 10
-49.28093569705199
 20
-20.697181923681278
 30
0.0
 10
-48.444053411577784
 20
-20.850921671323256
 30
0.0
 10
-47.295896400465026
 20
-21.00134128987279
 30
0.0
 10
-46.610963497782905
 20
-21.092534068931407
 30
0.0
 10
-45.926030595100784
 20
-21.18372684799001
 30
0.0
 10
-45.919296202502515
 20
-21.182725226510122
 30
0.0
 10
-45.17133828095928
 20
-21.244338598032932
 30
0.0
 10
-44.42338035941605
 20
-21.305951969555743
 30
0.0
 10
-43.16572290602861
 20
-21.407610190990063
 30
0.0
 10
-42.12321596852352
 20
-21.462214298068268
 30
0.0
 10
-41.08070903101842
 20
-21.516818405146488
 30
0.0
 10
-39.99668485307543
 20
-21.55253639066074
 30
0.0
 10
-38.916296655928704
 20
-21.571963240502207
 30
0.0
 10
-37.83590845878198
 20
-21.591390090343687
 30
0.0
 10
-36.72815170705174
 20
-21.593162447098145
 30
0.0
 10
-35.64088678564317
 20
-21.57877539711709
 30
0.0
 10
-34.5536218642346
 20
-21.56438834713604
 30
0.0
 10
-33.455224680643724
 20
-21.53317269790974
 30
0.0
 10
-32.392707127477294
 20
-21.485640940615873
 30
0.0
 10
-31.330189574310864
 20
-21.43810918332202
 30
0.0
 10
-30.27355623592819
 20
-21.374241432641348
 30
0.0
 10
-29.265781466644583
 20
-21.293584853353927
 30
0.0
 10
-28.25800669736097
 20
-21.212928274066506
 30
0.0
 10
-27.27268783987341
 20
-21.116109121124545
 30
0.0
 10
-26.34605851177562
 20
-21.00170146489136
 30
0.0
 10
-25.41942918367783
 20
-20.88729380865818
 30
0.0
 10
-24.530407234033934
 20
-20.756572990016828
 30
0.0
 10
-23.70600549805784
 20
-20.607138915954813
 30
0.0
 10
-22.88160376208175
 20
-20.4577048418928
 30
0.0
 10
-22.1082152498299
 20
-20.29144076068892
 30
0.0
 10
-21.399648095919073
 20
-20.10509702051928
 30
0.0
 10
-20.691080942008245
 20
-19.918753280349634
 30
0.0
 10
-19.91847731381004
 20
-19.65060289614641
 30
0.0
 10
-19.454602574592872
 20
-19.489076474936937
 30
0.0
 10
-18.990727835375704
 20
-19.32755005372745
 30
0.0
 10
-18.99473706019385
 20
-19.32847525476555
 30
0.0
 10
-18.616399660616068
 20
-19.135938493262415
 30
0.0
 10
-18.238062261038287
 20
-18.943401731759266
 30
0.0
 10
-17.617080737854664
 20
-18.624024895934184
 30
0.0
 10
-17.184578177126195
 20
-18.333855905918085
 30
0.0
 10
-16.752075616397725
 20
-18.043686915901986
 30
0.0
 10
-16.379088781818766
 20
-17.733004789524692
 30
0.0
 10
-16.021384296245245
 20
-17.394924553165794
 30
0.0
 10
-15.663679810671724
 20
-17.056844316806895
 30
0.0
 10
-15.350330394274511
 20
-16.69658611845012
 30
0.0
 10
-15.038351263685065
 20
-16.305374487764695
 30
0.0
 10
-14.726372133095623
 20
-15.914162857079276
 30
0.0
 10
-14.440269882319122
 20
-15.498223359080171
 30
0.0
 10
-14.149509512708583
 20
-15.047654769053253
 30
0.0
 10
-13.858749143098045
 20
-14.597086179026341
 30
0.0
 10
-13.57972250730591
 20
-14.11776550193909
 30
0.0
 10
-13.29378904602185
 20
-13.601962947603205
 30
0.0
 10
-13.00785558473779
 20
-13.08616039326732
 30
0.0
 10
-12.724782782812266
 20
-12.537261235162319
 30
0.0
 10
-12.43390874500421
 20
-11.952839443037938
 30
0.0
 10
-12.143034707196154
 20
-11.368417650913557
 30
0.0
 10
-11.849046820999995
 20
-10.748232830890183
 30
0.0
 10
-11.54854481917351
 20
-10.095432194856905
 30
0.0
 10
-11.248042817347024
 20
-9.442631558823628
 30
0.0
 10
-10.940708955568464
 20
-8.752767245499186
 30
0.0
 10
-10.630896734045303
 20
-8.036035626838286
 30
0.0
 10
-10.321084512522141
 20
-7.319304008177392
 30
0.0
 10
-10.003242600596272
 20
-6.5641314151665
 30
0.0
 10
-9.689671490034536
 20
-5.79504248289151
 30
0.0
 10
-9.3761003794728
 20
-5.025953550616517
 30
0.0
 10
-8.98250337006178
 20
-4.0188573818814
 30
0.0
 10
-8.749470070674894
 20
-3.421502033188318
 30
0.0
 10
-8.516436771288008
 20
-2.8241466844952363
 30
0.0
 10
-8.511675843688622
 20
-2.813300826576956
 30
0.0
 10
-8.291471693713218
 20
-2.210910390733016
 30
0.0
 10
-8.071267543737815
 20
-1.6085199548890756
 30
0.0
 10
-7.69740007579983
 20
-0.5890510610403688
 30
0.0
 10
-7.428245170822478
 20
0.19284058187532693
 30
0.0
 10
-7.159090265845126
 20
0.9747322247910226
 30
0.0
 10
-6.898634892888175
 20
1.7629383329711956
 30
0.0
 10
-6.676542263849104
 20
2.4804394667611582
 30
0.0
 10
-6.454449634810034
 20
3.197940600551121
 30
0.0
 10
-6.247661445740011
 20
3.9123719913592234
 30
0.0
 10
-6.095689396588057
 20
4.497847384615107
 30
0.0
 10
-5.9437173474361025
 20
5.083322777870991
 30
0.0
 10
-5.824202243320116
 20
5.6127438989805185
 30
0.0
 10
-5.76470996893738
 20
5.993291826296467
 30
0.0
 10
-5.705217694554644
 20
6.373839753612415
 30
0.0
 10
-5.7055999398364
 20
6.602237471210915
 30
0.0
 10
-5.738735750291648
 20
6.7811349485107995
 30
0.0
 10
-5.771871560746895
 20
6.960032425810684
 30
0.0
 10
-5.874568503735791
 20
6.973374052919487
 30
0.0
 10
-5.96352483166886
 20
7.066676690095771
 30
0.0
 10
-6.052481159601928
 20
7.159979327272055
 30
0.0
 10
-6.188108365097056
 20
7.206438751757412
 30
0.0
 10
-6.272473717890058
 20
7.340950771568502
 30
0.0
 10
-6.356839070683062
 20
7.4754627913795915
 30
0.0
 10
-6.448976161755208
 20
7.669113515239055
 30
0.0
 10
-6.469716948426878
 20
7.873748808962311
 30
0.0
 10
-6.490457735098547
 20
8.078384102685568
 30
0.0
 10
-6.437046594025723
 20
8.395692279237782
 30
0.0
 10
-6.396918437920073
 20
8.568762533908039
 30
0.0
 10
-6.356790281814423
 20
8.741832788578295
 30
0.0
 10
-6.359912259972937
 20
8.75777758897671
 30
0.0
 10
-6.228948011792969
 20
8.912170336983849
 30
0.0
 10
-6.097983763613001
 20
9.066563084990987
 30
0.0
 10
-5.877498988270316
 20
9.333011228920068
 30
0.0
 10
-5.611132948840268
 20
9.495119021950869
 30
0.0
 10
-5.34476690941022
 20
9.65722681498167
 30
0.0
 10
-5.011339070549759
 20
9.784751364495104
 30
0.0
 10
-4.630751775212681
 20
9.884817095168653
 30
0.0
 10
-4.250164479875601
 20
9.984882825842204
 30
0.0
 10
-3.80724598345284
 20
10.044911551510893
 30
0.0
 10
-3.327609176817793
 20
10.095513405992172
 30
0.0
 10
-2.8479723701827453
 20
10.14611526047345
 30
0.0
 10
-2.315424370145565
 20
10.167618456756408
 30
0.0
 10
-1.7529309354023948
 20
10.188428222056329
 30
0.0
 10
-1.1904375006592254
 20
10.20923798735625
 30
0.0
 10
-0.3000470611739372
 20
10.215048035169133
 30
0.0
 10
0.0
 20
10.220371997791695
 30
0.0
  0
SPLINE
  5
32
330
17
100
AcDbEntity
  8
REF
100
AcDbSpline
 70
0
 71
3
 72
185
 73
181
 74
0
 40
0.0
 40
0.0
 40
0.0
 40
0.0
 40
1.0
 40
1.0
 40
1.0
 40
2.0
 40
2.0
 40
2.0
 40
3.0
 40
3.0
 40
3.0
 40
4.0
 40
4.0
 40
4.0
 40
5.0
 40
5.0
 40
5.0
 40
6.0
 40
6.0
 40
6.0
 40
7.0
 40
7.0
 40
7.0
 40
8.0
 40
8.0
 40
8.0
 40
9.0
 40
9.0
 40
9.0
 40
10.0
 40
10.0
 40
10.0
 40
11.0
 40
11.0
 40
11.0
 40
12.0
 40
12.0
 40
12.0
 40
13.0
 40
13.0
 40
13.0
 40
14.0
 40
14.0
 40
14.0
 40
15.0
 40
15.0
 40
15.0
 40
16.0
 40
16.0
 40
16.0
 40
17.0
 40
17.0
 40
17.0
 40
18.0
 40
18.0
 40
18.0
 40
19.0
 40
19.0
 40
19.0
 40
20.0
 40
20.0
 40
20.0
 40
21.0
 40
21.0
 40
21.0
 40
22.0
 40
22.0
 40
22.0
 40
23.0
 40
23.0
 40
23.0
 40
24.0
 40
24.0
 40
24.0
 40
25.0
 40
25.0
 40
25.0
 40
26.0
 40
26.0
 40
26.0
 40
27.0
 40
27.0
 40
27.0
 40
28.0
 40
28.0
 40
28.0
 40
29.0
 40
29.0
 40
29.0
 40
30.0
 40
30.0
 40
30.0
 40
31.0
 40
31.0
 40
31.0
 40
32.0
 40
32.0
 40
32.0
 40
33.0
 40
33.0
 40
33.0
 40
34.0
 40
34.0
 40
34.0
 40
35.0
 40
35.0
 40
35.0
 40
36.0
 40
36.0
 40
36.0
 40
37.0
 40
37.0
 40
37.0
 40
38.0
 40
38.0
 40
38.0
 40
39.0
 40
39.0
 40
39.0
 40
40.0
 40
40.0
 40
40.0
 40
41.0
 40
41.0
 40
41.0
 40
42.0
 40
42.0
 40
42.0
 40
43.0
 40
43.0
 40
43.0
 40
44.0
 40
44.0
 40
44.0
 40
45.0
 40
45.0
 40
45.0
 40
46.0
 40
46.0
 40
46.0
 40
47.0
 40
47.0
 40
47.0
 40
48.0
 40
48.0
 40
48.0
 40
49.0
 40
49.0
 40
49.0
 40
50.0
 40
50.0
 40
50.0
 40
51.0
 40
51.0
 40
51.0
 40
52.0
 40
52.0
 40
52.0
 40
53.0
 40
53.0
 40
53.0
 40
54.0
 40
54.0
 40
54.0
 40
55.0
 40
55.0
 40
55.0
 40
56.0
 40
56.0
 40
56.0
 40
57.0
 40
57.0
 40
57.0
 40
58.0
 40
58.0
 40
58.0
 40
59.0
 40
59.0
 40
59.0
 40
60.0
 40
60.0
 40
60.0
 40
60.0
 10
-73.74785055738539
 20
18.036182138908778
 30
0.0
 10
-73.54284468613835
 20
18.08377304905762
 30
0.0
 10
-74.16180097360635
 20
17.94285502897051
 30
0.0
 10
-73.74785055738539
 20
18.036182138908778
 30
0.0
 10
-73.33390014116443
 20
18.12950924884705
 30
0.0
 10
-71.68612880492267
 20
18.506540818323078
 30
0.0
 10
-71.26414806005963
 20
18.596144798538393
 30
0.0
 10
-70.84216731519658
 20
18.68574877875371
 30
0.0
 10
-70.41633132049344
 20
18.77350676343174
 30
0.0
 10
-69.9859308607247
 20
18.85935148109371
 30
0.0
 10
-69.55553040095594
 20
18.945196198755685
 30
0.0
 10
-69.12110416589002
 20
19.029181007199796
 30
0.0
 10
-68.68174530144717
 20
19.111213104510224
 30
0.0
 10
-68.24238643700428
 20
19.19324520182065
 30
0.0
 10
-67.7987489691537
 20
19.273394648216858
 30
0.0
 10
-67.34977767406747
 20
19.351544064956272
 30
0.0
 10
-66.90080637898123
 20
19.429693481695683
 30
0.0
 10
-66.44724056542796
 20
19.50592871813817
 30
0.0
 10
-65.9879175309297
 20
19.5801096049467
 30
0.0
 10
-65.52859449643148
 20
19.65429049175523
 30
0.0
 10
-64.67888685044699
 20
19.78333559081394
 30
0.0
 10
-64.20841362474275
 20
19.853447613321354
 30
0.0
 10
-63.737940399038486
 20
19.923559635828767
 30
0.0
 10
-64.69086958568352
 20
19.787517859539292
 30
0.0
 10
-64.20841362474275
 20
19.853447613321354
 30
0.0
 10
-63.725957663801985
 20
19.919377367103415
 30
0.0
 10
-62.19438198459918
 20
20.130585657968528
 30
0.0
 10
-61.69910370143345
 20
20.192207908499824
 30
0.0
 10
-61.203825418267726
 20
20.253830159031118
 30
0.0
 10
-60.70232176419711
 20
20.31333692319812
 30
0.0
 10
-60.1934084777098
 20
20.37051524317895
 30
0.0
 10
-59.684495191222496
 20
20.427693563159785
 30
0.0
 10
-59.168917199474464
 20
20.4826910244544
 30
0.0
 10
-58.64562398250961
 20
20.53527782838483
 30
0.0
 10
-58.12233076554476
 20
20.587864632315263
 30
0.0
 10
-57.59195676578063
 20
20.638199650705605
 30
0.0
 10
-57.05364917592068
 20
20.68603606676155
 30
0.0
 10
-56.515341586060735
 20
20.73387248281749
 30
0.0
 10
-55.969585744809635
 20
20.77938015722082
 30
0.0
 10
-55.41577844334994
 20
20.822296324720483
 30
0.0
 10
-54.86197114189025
 20
20.865212492220145
 30
0.0
 10
-54.30042425067717
 20
20.905716234163208
 30
0.0
 10
-53.73080536716255
 20
20.94353307175951
 30
0.0
 10
-53.16118648364794
 20
20.98134990935582
 30
0.0
 10
-52.583623899938814
 20
21.016664905699322
 30
0.0
 10
-51.998065142262256
 20
21.04919735029832
 30
0.0
 10
-51.4125063845857
 20
21.08172979489731
 30
0.0
 10
-50.818889857049555
 20
21.11166709682953
 30
0.0
 10
-50.21745282110318
 20
21.138727739353474
 30
0.0
 10
-49.616015785156804
 20
21.165788381877416
 30
0.0
 10
-49.006490401986966
 20
21.190159402493148
 30
0.0
 10
-48.38944292658401
 20
21.211561205441956
 30
0.0
 10
-47.772395451181055
 20
21.232963008390765
 30
0.0
 10
-47.1473006352929
 20
21.25158272762656
 30
0.0
 10
-46.515167968685454
 20
21.267138557046334
 30
0.0
 10
-45.88303530207801
 20
21.28269438646611
 30
0.0
 10
-45.2429961484673
 20
21.295377209934994
 30
0.0
 10
-44.596646926939314
 20
21.304896181960597
 30
0.0
 10
-43.95029770541133
 20
21.3144151539862
 30
0.0
 10
-43.296331064422105
 20
21.320969412617185
 30
0.0
 10
-42.63707263951755
 20
21.324252389199955
 30
0.0
 10
-41.97781421461299
 20
21.32753536578273
 30
0.0
 10
-41.31144507738185
 20
21.32775674227178
 30
0.0
 10
-40.64109637751199
 20
21.324594041457225
 30
0.0
 10
-39.97074767764214
 20
21.321431340642665
 30
0.0
 10
-39.29409396243364
 20
21.315099413185155
 30
0.0
 10
-38.6149804402984
 20
21.3052761843126
 30
0.0
 10
-37.935866918163164
 20
21.295452955440037
 30
0.0
 10
-37.25154457925723
 20
21.282345404587357
 30
0.0
 10
-36.56641524470056
 20
21.265654668221867
 30
0.0
 10
-35.88128591014389
 20
21.248963931856377
 30
0.0
 10
-35.19228078510527
 20
21.22887402240043
 30
0.0
 10
-34.504204432958375
 20
21.20513176611966
 30
0.0
 10
-33.81612808081148
 20
21.18138950983889
 30
0.0
 10
-33.125641371283365
 20
21.154145996535153
 30
0.0
 10
-32.4379571318192
 20
21.123201130537243
 30
0.0
 10
-31.750272892355042
 20
21.09225626453934
 30
0.0
 10
-31.061643105644187
 20
21.057736056229132
 30
0.0
 10
-30.378098996173406
 20
21.01946257013222
 30
0.0
 10
-29.694554886702626
 20
20.981189084035307
 30
0.0
 10
-29.011612997386095
 20
20.939288893122487
 30
0.0
 10
-28.33669247499453
 20
20.893560213955784
 30
0.0
 10
-27.661771952602958
 20
20.84783153478908
 30
0.0
 10
-26.98927778411228
 20
20.79843182381967
 30
0.0
 10
-26.32857586182398
 20
20.74509049513199
 30
0.0
 10
-25.667873939535678
 20
20.691749166444314
 30
0.0
 10
-25.012031171681645
 20
20.634670381576534
 30
0.0
 10
-24.37248094126472
 20
20.57351224182972
 30
0.0
 10
-23.732930710847793
 20
20.51235410208291
 30
0.0
 10
-23.10169195214758
 20
20.447333226549375
 30
0.0
 10
-22.491274479322414
 20
20.378141656651117
 30
0.0
 10
-21.880857006497248
 20
20.308950086752855
 30
0.0
 10
-21.283038512737804
 20
20.2357325822351
 30
0.0
 10
-20.709976104313718
 20
20.158362822440157
 30
0.0
 10
-20.136913695889632
 20
20.080993062645213
 30
0.0
 10
-19.5810988377509
 20
19.999445348476776
 30
0.0
 10
-19.052900028777895
 20
19.91392309788146
 30
0.0
 10
-18.52470121980489
 20
19.828400847286147
 30
0.0
 10
-18.0181935707159
 20
19.738619814638415
 30
0.0
 10
-17.54078325047568
 20
19.645229318868278
 30
0.0
 10
-17.06337293023546
 20
19.551838823098144
 30
0.0
 10
-16.611279397411757
 20
19.45424566588149
 30
0.0
 10
-16.188438107336573
 20
19.353580123260645
 30
0.0
 10
-15.76559681726139
 20
19.2529145806398
 30
0.0
 10
-15.37062310499638
 20
19.14826177719243
 30
0.0
 10
-15.003735510024573
 20
19.04123606314321
 30
0.0
 10
-14.636847915052766
 20
18.934210349093988
 30
0.0
 10
-14.299214982488884
 20
18.82357391447265
 30
0.0
 10
-13.98711253750573
 20
18.711425838965315
 30
0.0
 10
-13.675010092522577
 20
18.59927776345798
 30
0.0
 10
-13.392220855220145
 20
18.484067537330603
 30
0.0
 10
-13.13112084012564
 20
18.368347610099203
 30
0.0
 10
-12.87002082503114
 20
18.2526276828678
 30
0.0
 10
-12.636750961449454
 20
18.13458284099535
 30
0.0
 10
-12.420512446938712
 20
18.017106275576914
 30
0.0
 10
-12.20427393242797
 20
17.89962971015847
 30
0.0
 10
-12.012993009004987
 20
17.780727260991494
 30
0.0
 10
-11.833689753061194
 20
17.663488217588565
 30
0.0
 10
-11.6543864971174
 20
17.546249174185636
 30
0.0
 10
-11.496106233910023
 20
17.428597125621994
 30
0.0
 10
-11.34469291127595
 20
17.313672015159327
 30
0.0
 10
-11.193279588641875
 20
17.198746904696655
 30
0.0
 10
-11.058219311406171
 20
17.084483333599742
 30
0.0
 10
-10.925209817256754
 20
16.973937554812558
 30
0.0
 10
-10.792200323107336
 20
16.863391776025374
 30
0.0
 10
-10.670460776248474
 20
16.75458955897455
 30
0.0
 10
-10.546635946379439
 20
16.650397342436218
 30
0.0
 10
-10.422811116510404
 20
16.546205125897888
 30
0.0
 10
-10.305116091208255
 20
16.44480689659598
 30
0.0
 10
-10.182260838042543
 20
16.348784255582554
 30
0.0
 10
-10.059405584876831
 20
16.252761614569128
 30
0.0
 10
-9.93786153649376
 20
16.160520023414815
 30
0.0
 10
-9.809504427385173
 20
16.074261496355646
 30
0.0
 10
-9.681147318276587
 20
15.988002969296476
 30
0.0
 10
-9.550132035645138
 20
15.90641893953818
 30
0.0
 10
-9.412118183391025
 20
15.831233093227533
 30
0.0
 10
-9.274104331136911
 20
15.75604724691689
 30
0.0
 10
-9.130926439342346
 20
15.686306204531302
 30
0.0
 10
-8.98142131386049
 20
15.623146418491778
 30
0.0
 10
-8.831916188378635
 20
15.559986632452256
 30
0.0
 10
-8.676163269655007
 20
15.502883844669013
 30
0.0
 10
-8.51508743049989
 20
15.452274376990397
 30
0.0
 10
-8.354011591344772
 20
15.401664909311783
 30
0.0
 10
-8.186667093553345
 20
15.35752812853304
 30
0.0
 10
-8.014966278929782
 20
15.319489612420089
 30
0.0
 10
-7.843265464306221
 20
15.281451096307137
 30
0.0
 10
-7.665909643790673
 20
15.2500464380127
 30
0.0
 10
-7.484882542758516
 20
15.224043280312683
 30
0.0
 10
-7.303855441726363
 20
15.198040122612666
 30
0.0
 10
-7.117960017881966
 20
15.178508080343544
 30
0.0
 10
-6.92880367273685
 20
15.163470666219986
 30
0.0
 10
-6.739647327591733
 20
15.14843325209643
 30
0.0
 10
-6.546371633057674
 20
15.139397091818743
 30
0.0
 10
-6.349944471887813
 20
15.133818795571344
 30
0.0
 10
-6.15351731071795
 20
15.128240499323947
 30
0.0
 10
-5.953590177993393
 20
15.127944839382542
 30
0.0
 10
-5.750240705717676
 20
15.1300008887356
 30
0.0
 10
-5.546891233441958
 20
15.132056938088658
 30
0.0
 10
-5.34040153409806
 20
15.138490650183972
 30
0.0
 10
-5.12984763823351
 20
15.146155091689696
 30
0.0
 10
-4.919293742368961
 20
15.15381953319542
 30
0.0
 10
-4.705544650808179
 20
15.164834114605728
 30
0.0
 10
-4.486917330530379
 20
15.175987537769947
 30
0.0
 10
-4.26829001025258
 20
15.187140960934164
 30
0.0
 10
-4.046032197884337
 20
15.200547610748277
 30
0.0
 10
-3.8180837165667114
 20
15.213075630675
 30
0.0
 10
-3.590135235249086
 20
15.225603650601727
 30
0.0
 10
-3.3578671861157208
 20
15.239266574722759
 30
0.0
 10
-3.119226442624627
 20
15.251155657330298
 30
0.0
 10
-2.8805856991335332
 20
15.263044739937836
 30
0.0
 10
-2.6368373345875495
 20
15.27497546562272
 30
0.0
 10
-2.386239255620146
 20
15.284410126320232
 30
0.0
 10
-2.135641176652743
 20
15.293844787017745
 30
0.0
 10
-1.879217673868653
 20
15.302298595885441
 30
0.0
 10
-1.6156379688202076
 20
15.307763621515377
 30
0.0
 10
-1.3520582637717622
 20
15.313228647145312
 30
0.0
 10
-0.27730472198790457
 20
15.309702091472438
 30
0.0
 10
0.0
 20
15.310089785463852
 30
0.0
 10
0.277304721987905
 20
15.310477479455265
 30
0.0
 10
-0.1421585647394492
 20
15.311274867903185
 30
0.0
 10
0.0
 20
15.310089785463852
 30
0.0
  0
SPLINE
  5
33
330
17
100
AcDbEntity
  8
REF
100
AcDbSpline
 70
0
 71
3
 72
29
 73
25
 74
0
 40
0.0
 40
0.0
 40
0.0
 40
0.0
 40
1.0
 40
1.0
 40
1.0
 40
2.0
 40
2.0
 40
2.0
 40
3.0
 40
3.0
 40
3.0
 40
4.0
 40
4.0
 40
4.0
 40
5.0
 40
5.0
 40
5.0
 40
6.0
 40
6.0
 40
6.0
 40
7.0
 40
7.0
 40
7.0
 40
8.0
 40
8.0
 40
8.0
 40
8.0
 10
-64.20841362474275
 20
19.853447613321354
 30
0.0
 10
-64.40016023023492
 20
19.82453304645321
 30
0.0
 10
-64.9791166699539
 20
19.7391485259047
 30
0.0
 10
-65.35889325769577
 20
19.679960212112505
 30
0.0
 10
-65.73866984543767
 20
19.62077189832031
 30
0.0
 10
-66.11450954234448
 20
19.560196705068474
 30
0.0
 10
-66.4870731511941
 20
19.498317730568186
 30
0.0
 10
-66.85963676004371
 20
19.436438756067894
 30
0.0
 10
-67.22849622088003
 20
19.373203802461784
 30
0.0
 10
-67.5942749107935
 20
19.308686365110763
 30
0.0
 10
-67.96005360070694
 20
19.24416892775974
 30
0.0
 10
-68.28313596672643
 20
19.186102253599422
 30
0.0
 10
-68.68174529067485
 20
19.111213106462056
 30
0.0
 10
-69.08035461462327
 20
19.03632395932469
 30
0.0
 10
-69.55553039338673
 20
18.945196200179808
 30
0.0
 10
-69.985930854484
 20
18.85935148228657
 30
0.0
 10
-70.41633131558126
 20
18.77350676439333
 30
0.0
 10
-70.84216731147026
 20
18.68574877949229
 30
0.0
 10
-71.26414805725841
 20
18.596144799102614
 30
0.0
 10
-71.68612880304656
 20
18.50654081871294
 30
0.0
 10
-72.10386491252501
 20
18.415054709980833
 30
0.0
 10
-72.51781532921285
 20
18.321727599948527
 30
0.0
 10
-72.93176574590066
 20
18.228400489916222
 30
0.0
 10
-73.54284468602327
 20
18.08377304908207
 30
0.0
 10
-73.74785055738536
 20
18.036182138908778
 30
0.0
  0
LWPOLYLINE
  5
34
330
17
100
AcDbEntity
  8
REF
100
AcDbPolyline
 90
2
 70
0
 10
-73.74785055738536
 20
18.036182138908778
 10
-73.74785055738536
 20
10.036182138908782
  0
SPLINE
  5
35
330
17
100
AcDbEntity
  8
REF
100
AcDbSpline
 70
0
 71
3
 72
29
 73
25
 74
0
 40
0.0
 40
0.0
 40
0.0
 40
0.0
 40
1.0
 40
1.0
 40
1.0
 40
2.0
 40
2.0
 40
2.0
 40
3.0
 40
3.0
 40
3.0
 40
4.0
 40
4.0
 40
4.0
 40
5.0
 40
5.0
 40
5.0
 40
6.0
 40
6.0
 40
6.0
 40
7.0
 40
7.0
 40
7.0
 40
8.0
 40
8.0
 40
8.0
 40
8.0
 10
-62.08848519683804
 20
10.036182138908787
 30
0.0
 10
-62.04330381724322
 20
10.226642192569317
 30
0.0
 10
-62.19777156616477
 20
9.673819919863007
 30
0.0
 10
-62.08848519683804
 20
10.036182138908787
 30
0.0
 10
-61.97919882751129
 20
10.398544357954567
 30
0.0
 10
-61.581022642711716
 20
11.88542628891823
 30
0.0
 10
-61.43276698087756
 20
12.21035545318346
 30
0.0
 10
-61.2845113190434
 20
12.535284617448692
 30
0.0
 10
-60.38000764539634
 20
13.759338984527053
 30
0.0
 10
-60.19071475929938
 20
14.046729134953951
 30
0.0
 10
-60.001421873202425
 20
14.334119285380849
 30
0.0
 10
-60.30023955178661
 20
13.90765983729017
 30
0.0
 10
-60.19071475929938
 20
14.046729134953951
 30
0.0
 10
-60.081189966812154
 20
14.185798432617734
 30
0.0
 10
-60.199510812689084
 20
14.037342289335848
 30
0.0
 10
-60.19071475929938
 20
14.046729134953951
 30
0.0
 10
-60.18191870590968
 20
14.056115980572056
 30
0.0
 10
-60.1995726369277
 20
14.037393126541188
 30
0.0
 10
-60.19071475929938
 20
14.046729134953951
 30
0.0
 10
-60.18185688167107
 20
14.056065143366716
 30
0.0
 10
-60.19963452340908
 20
14.037443850703871
 30
0.0
 10
-60.19071475929938
 20
14.046729134953951
 30
0.0
 10
-60.181794995189684
 20
14.05601441920403
 30
0.0
 10
-60.19519012067797
 20
14.042099159615399
 30
0.0
 10
-60.19071475929938
 20
14.046729134953951
 30
0.0
  0
LWPOLYLINE
  5
36
330
17
100
AcDbEntity
  8
SCULPT
100
AcDbPolyline
 90
2
 70
0
 10
-66.45007115067807
 20
19.018424181162196
 10
-59.70721603430049
 20
13.524284912040924
  0
LWPOLYLINE
  5
37
330
17
100
AcDbEntity
  8
SCULPT
100
AcDbPolyline
 90
2
 70
0
 10
66.45007115067807
 20
19.018424181162196
 10
59.70721603430049
 20
13.524284912040924
  0
LWPOLYLINE
  5
38
330
17
100
AcDbEntity
  8
SCULPT
100
AcDbPolyline
 90
2
 70
0
 10
-66.59262528719866
 20
7.449723985407357
 10
-61.34053280096757
 20
8.910869865684269
  0
LWPOLYLINE
  5
39
330
17
100
AcDbEntity
  8
SCULPT
100
AcDbPolyline
 90
2
 70
0
 10
66.59262528719866
 20
7.449723985407357
 10
61.34053280096757
 20
8.910869865684269
  0
LWPOLYLINE
  5
3A
330
17
100
AcDbEntity
  8
SCULPT
100
AcDbPolyline
 90
2
 70
0
 10
-10.855612241851576
 20
12.520261761316698
 10
-7.498314210228093
 20
15.141641046814298
  0
LWPOLYLINE
  5
3B
330
17
100
AcDbEntity
  8
SCULPT
100
AcDbPolyline
 90
2
 70
0
 10
10.855612241851576
 20
12.520261761316698
 10
7.498314210228093
 20
15.141641046814298
  0
LWPOLYLINE
  5
3C
330
17
100
AcDbEntity
  8
SCULPT
100
AcDbPolyline
 90
2
 70
0
 10
-5.1474494953518795
 20
6.639773610416483
 10
-9.505077894124028
 20
7.2633303367759074
  0
LWPOLYLINE
  5
3D
330
17
100
AcDbEntity
  8
SCULPT
100
AcDbPolyline
 90
2
 70
0
 10
5.1474494953518795
 20
6.639773610416483
 10
9.505077894124028
 20
7.2633303367759074
  0
LWPOLYLINE
  5
3E
330
17
100
AcDbEntity
  8
SCULPT
100
AcDbPolyline
 90
2
 70
0
 10
-13.951810305422853
 20
-9.691859085757681
 10
-11.12223661591131
 20
-10.155880960519376
  0
LWPOLYLINE
  5
3F
330
17
100
AcDbEntity
  8
SCULPT
100
AcDbPolyline
 90
2
 70
0
 10
13.951810305422853
 20
-9.691859085757681
 10
11.12223661591131
 20
-10.155880960519376
  0
LWPOLYLINE
  5
40
330
17
100
AcDbEntity
  8
REF
100
AcDbPolyline
 90
2
 70
0
 10
-7.993605777301127e-15
 20
4.440892098500626e-16
 10
-5.499999999999994
 20
4.440892098500626e-16
  0
SPLINE
  5
41
330
17
100
AcDbEntity
  8
HINGE
100
AcDbSpline
 70
1
 71
3
 72
20
 73
16
 74
0
 40
0.0
 40
0.0
 40
0.0
 40
0.0
 40
1.0
 40
1.0
 40
1.0
 40
2.0
 40
2.0
 40
2.0
 40
3.0
 40
3.0
 40
3.0
 40
4.0
 40
4.0
 40
4.0
 40
5.0
 40
5.0
 40
5.0
 40
5.0
 10
-65.06678779823245
 20
16.247891410074693
 30
0.0
 10
-65.06678779823245
 20
16.247891410074693
 30
0.0
 10
-69.06678779823245
 20
16.247891410074693
 30
0.0
 10
-69.06678779823245
 20
16.247891410074693
 30
0.0
 10
-69.06678779823245
 20
16.247891410074693
 30
0.0
 10
-69.06678779823245
 20
11.247891410074702
 30
0.0
 10
-69.06678779823245
 20
11.247891410074702
 30
0.0
 10
-69.06678779823245
 20
11.247891410074702
 30
0.0
 10
-65.06678779823243
 20
11.247891410074702
 30
0.0
 10
-65.06678779823243
 20
11.247891410074702
 30
0.0
 10
-64.14350791507098
 20
11.74030734776081
 30
0.0
 10
-63.56678779823244
 20
12.701507542491738
 30
0.0
 10
-63.56678779823244
 20
13.747891410074706
 30
0.0
 10
-63.56678779823244
 20
14.79427527765768
 30
0.0
 10
-64.143507915071
 20
15.755475472388598
 30
0.0
 10
-65.06678779823245
 20
16.247891410074693
 30
0.0
  0
SPLINE
  5
42
330
17
100
AcDbEntity
  8
HINGE
100
AcDbSpline
 70
1
 71
3
 72
20
 73
16
 74
0
 40
0.0
 40
0.0
 40
0.0
 40
0.0
 40
1.0
 40
1.0
 40
1.0
 40
2.0
 40
2.0
 40
2.0
 40
3.0
 40
3.0
 40
3.0
 40
4.0
 40
4.0
 40
4.0
 40
5.0
 40
5.0
 40
5.0
 40
5.0
 10
65.06678779823245
 20
16.247891410074693
 30
0.0
 10
65.06678779823245
 20
16.247891410074693
 30
0.0
 10
69.06678779823245
 20
16.247891410074693
 30
0.0
 10
69.06678779823245
 20
16.247891410074693
 30
0.0
 10
69.06678779823245
 20
16.247891410074693
 30
0.0
 10
69.06678779823245
 20
11.247891410074702
 30
0.0
 10
69.06678779823245
 20
11.247891410074702
 30
0.0
 10
69.06678779823245
 20
11.247891410074702
 30
0.0
 10
65.06678779823243
 20
11.247891410074702
 30
0.0
 10
65.06678779823243
 20
11.247891410074702
 30
0.0
 10
64.14350791507098
 20
11.74030734776081
 30
0.0
 10
63.56678779823244
 20
12.701507542491738
 30
0.0
 10
63.56678779823244
 20
13.747891410074706
 30
0.0
 10
63.56678779823244
 20
14.79427527765768
 30
0.0
 10
64.143507915071
 20
15.755475472388598
 30
0.0
 10
65.06678779823245
 20
16.247891410074693
 30
0.0
  0
SPLINE
  5
43
330
17
100
AcDbEntity
  8
HINGE
100
AcDbSpline
 70
1
 71
3
 72
20
 73
16
 74
0
 40
0.0
 40
0.0
 40
0.0
 40
0.0
 40
1.0
 40
1.0
 40
1.0
 40
2.0
 40
2.0
 40
2.0
 40
3.0
 40
3.0
 40
3.0
 40
4.0
 40
4.0
 40
4.0
 40
5.0
 40
5.0
 40
5.0
 40
5.0
 10
65.06678779823245
 20
16.247891410074693
 30
0.0
 10
65.06678779823245
 20
16.247891410074693
 30
0.0
 10
69.06678779823245
 20
16.247891410074693
 30
0.0
 10
69.06678779823245
 20
16.247891410074693
 30
0.0
 10
69.06678779823245
 20
16.247891410074693
 30
0.0
 10
69.06678779823245
 20
11.247891410074702
 30
0.0
 10
69.06678779823245
 20
11.247891410074702
 30
0.0
 10
69.06678779823245
 20
11.247891410074702
 30
0.0
 10
65.06678779823243
 20
11.247891410074702
 30
0.0
 10
65.06678779823243
 20
11.247891410074702
 30
0.0
 10
64.14350791507098
 20
11.74030734776081
 30
0.0
 10
63.56678779823244
 20
12.701507542491738
 30
0.0
 10
63.56678779823244
 20
13.747891410074706
 30
0.0
 10
63.56678779823244
 20
14.79427527765768
 30
0.0
 10
64.143507915071
 20
15.755475472388598
 30
0.0
 10
65.06678779823245
 20
16.247891410074693
 30
0.0
  0
SPLINE
  5
44
330
17
100
AcDbEntity
  8
HINGE
100
AcDbSpline
 70
1
 71
3
 72
20
 73
16
 74
0
 40
0.0
 40
0.0
 40
0.0
 40
0.0
 40
1.0
 40
1.0
 40
1.0
 40
2.0
 40
2.0
 40
2.0
 40
3.0
 40
3.0
 40
3.0
 40
4.0
 40
4.0
 40
4.0
 40
5.0
 40
5.0
 40
5.0
 40
5.0
 10
-65.06678779823245
 20
16.247891410074693
 30
0.0
 10
-65.06678779823245
 20
16.247891410074693
 30
0.0
 10
-69.06678779823245
 20
16.247891410074693
 30
0.0
 10
-69.06678779823245
 20
16.247891410074693
 30
0.0
 10
-69.06678779823245
 20
16.247891410074693
 30
0.0
 10
-69.06678779823245
 20
11.247891410074702
 30
0.0
 10
-69.06678779823245
 20
11.247891410074702
 30
0.0
 10
-69.06678779823245
 20
11.247891410074702
 30
0.0
 10
-65.06678779823243
 20
11.247891410074702
 30
0.0
 10
-65.06678779823243
 20
11.247891410074702
 30
0.0
 10
-64.14350791507098
 20
11.74030734776081
 30
0.0
 10
-63.56678779823244
 20
12.701507542491738
 30
0.0
 10
-63.56678779823244
 20
13.747891410074706
 30
0.0
 10
-63.56678779823244
 20
14.79427527765768
 30
0.0
 10
-64.143507915071
 20
15.755475472388598
 30
0.0
 10
-65.06678779823245
 20
16.247891410074693
 30
0.0
  0
LWPOLYLINE
  5
45
330
17
100
AcDbEntity
  8
SCULPT
100
AcDbPolyline
 90
2
 70
0
 10
66.59262528719866
 20
7.449723985407357
 10
61.34053280096757
 20
8.910869865684269
  0
LWPOLYLINE
  5
46
330
17
100
AcDbEntity
  8
SCULPT
100
AcDbPolyline
 90
2
 70
0
 10
-66.59262528719866
 20
7.449723985407357
 10
-61.34053280096757
 20
8.910869865684269
  0
LWPOLYLINE
  5
47
330
17
100
AcDbEntity
  8
SCULPT
100
AcDbPolyline
 90
2
 70
0
 10
13.951810305422853
 20
-9.691859085757681
 10
11.12223661591131
 20
-10.155880960519376
  0
LWPOLYLINE
  5
48
330
17
100
AcDbEntity
  8
SCULPT
100
AcDbPolyline
 90
2
 70
0
 10
-13.951810305422853
 20
-9.691859085757681
 10
-11.12223661591131
 20
-10.155880960519376
  0
LWPOLYLINE
  5
49
330
17
100
AcDbEntity
  8
SCULPT
100
AcDbPolyline
 90
2
 70
0
 10
66.45007115067807
 20
19.018424181162196
 10
59.70721603430049
 20
13.524284912040924
  0
LWPOLYLINE
  5
4A
330
17
100
AcDbEntity
  8
SCULPT
100
AcDbPolyline
 90
2
 70
0
 10
-66.45007115067807
 20
19.018424181162196
 10
-59.70721603430049
 20
13.524284912040924
  0
LWPOLYLINE
  5
4B
330
17
100
AcDbEntity
  8
SCULPT
100
AcDbPolyline
 90
2
 70
0
 10
5.1474494953518795
 20
6.639773610416483
 10
9.505077894124028
 20
7.2633303367759074
  0
LWPOLYLINE
  5
4C
330
17
100
AcDbEntity
  8
SCULPT
100
AcDbPolyline
 90
2
 70
0
 10
-5.1474494953518795
 20
6.639773610416483
 10
-9.505077894124028
 20
7.2633303367759074
  0
LWPOLYLINE
  5
4D
330
17
100
AcDbEntity
  8
SCULPT
100
AcDbPolyline
 90
2
 70
0
 10
10.855612241851576
 20
12.520261761316698
 10
7.498314210228093
 20
15.141641046814298
  0
LWPOLYLINE
  5
4E
330
17
100
AcDbEntity
  8
SCULPT
100
AcDbPolyline
 90
2
 70
0
 10
-10.855612241851576
 20
12.520261761316698
 10
-7.498314210228093
 20
15.141641046814298
  0
SPLINE
  5
4F
330
17
100
AcDbEntity
  8
LENS
100
AcDbSpline
 70
1
 71
3
 72
17
 73
13
 74
0
 40
0.0
 40
0.0
 40
0.0
 40
0.0
 40
1.0
 40
1.0
 40
1.0
 40
2.0
 40
2.0
 40
2.0
 40
3.0
 40
3.0
 40
3.0
 40
4.0
 40
4.0
 40
4.0
 40
4.0
 10
-58.12761329788646
 20
14.965436755100498
 30
0.0
 10
-50.68768648454489
 20
19.328596947637784
 30
0.0
 10
-15.09649315798815
 20
18.76228022071588
 30
0.0
 10
-10.855612241851574
 20
12.520261761316696
 30
0.0
 10
-6.614731325714999
 20
6.278243301917532
 30
0.0
 10
-13.166312054270465
 20
-12.236555125415073
 30
0.0
 10
-18.870301083427883
 20
-16.222346171584284
 30
0.0
 10
-24.574290112585295
 20
-20.208137217753478
 30
0.0
 10
-48.53717219573699
 20
-20.2780869996743
 30
0.0
 10
-53.83471089355088
 20
-15.922914272115568
 30
0.0
 10
-59.132249591364776
 20
-11.567741544556819
 30
0.0
 10
-65.567540111228
 20
10.602276562563206
 30
0.0
 10
-58.12761329788646
 20
14.9654367551005
 30
0.0
  0
SPLINE
  5
50
330
17
100
AcDbEntity
  8
LENS
100
AcDbSpline
 70
1
 71
3
 72
17
 73
13
 74
0
 40
0.0
 40
0.0
 40
0.0
 40
0.0
 40
1.0
 40
1.0
 40
1.0
 40
2.0
 40
2.0
 40
2.0
 40
3.0
 40
3.0
 40
3.0
 40
4.0
 40
4.0
 40
4.0
 40
4.0
 10
58.12761329788646
 20
14.965436755100498
 30
0.0
 10
50.68768648454489
 20
19.328596947637784
 30
0.0
 10
15.09649315798815
 20
18.76228022071588
 30
0.0
 10
10.855612241851574
 20
12.520261761316696
 30
0.0
 10
6.614731325714999
 20
6.278243301917532
 30
0.0
 10
13.166312054270465
 20
-12.236555125415073
 30
0.0
 10
18.870301083427883
 20
-16.222346171584284
 30
0.0
 10
24.574290112585295
 20
-20.208137217753478
 30
0.0
 10
48.53717219573699
 20
-20.2780869996743
 30
0.0
 10
53.83471089355088
 20
-15.922914272115568
 30
0.0
 10
59.132249591364776
 20
-11.567741544556819
 30
0.0
 10
65.567540111228
 20
10.602276562563206
 30
0.0
 10
58.12761329788646
 20
14.9654367551005
 30
0.0
  0
SPLINE
  5
51
330
17
100
AcDbEntity
  8
LENS
100
AcDbSpline
 70
1
 71
3
 72
17
 73
13
 74
0
 40
0.0
 40
0.0
 40
0.0
 40
0.0
 40
1.0
 40
1.0
 40
1.0
 40
2.0
 40
2.0
 40
2.0
 40
3.0
 40
3.0
 40
3.0
 40
4.0
 40
4.0
 40
4.0
 40
4.0
 10
58.12761329788646
 20
14.965436755100498
 30
0.0
 10
50.68768648454489
 20
19.328596947637784
 30
0.0
 10
15.09649315798815
 20
18.76228022071588
 30
0.0
 10
10.855612241851574
 20
12.520261761316696
 30
0.0
 10
6.614731325714999
 20
6.278243301917532
 30
0.0
 10
13.166312054270465
 20
-12.236555125415073
 30
0.0
 10
18.870301083427883
 20
-16.222346171584284
 30
0.0
 10
24.574290112585295
 20
-20.208137217753478
 30
0.0
 10
48.53717219573699
 20
-20.2780869996743
 30
0.0
 10
53.83471089355088
 20
-15.922914272115568
 30
0.0
 10
59.132249591364776
 20
-11.567741544556819
 30
0.0
 10
65.567540111228
 20
10.602276562563206
 30
0.0
 10
58.12761329788646
 20
14.9654367551005
 30
0.0
  0
SPLINE
  5
52
330
17
100
AcDbEntity
  8
LENS
100
AcDbSpline
 70
1
 71
3
 72
17
 73
13
 74
0
 40
0.0
 40
0.0
 40
0.0
 40
0.0
 40
1.0
 40
1.0
 40
1.0
 40
2.0
 40
2.0
 40
2.0
 40
3.0
 40
3.0
 40
3.0
 40
4.0
 40
4.0
 40
4.0
 40
4.0
 10
-58.12761329788646
 20
14.965436755100498
 30
0.0
 10
-50.68768648454489
 20
19.328596947637784
 30
0.0
 10
-15.09649315798815
 20
18.76228022071588
 30
0.0
 10
-10.855612241851574
 20
12.520261761316696
 30
0.0
 10
-6.614731325714999
 20
6.278243301917532
 30
0.0
 10
-13.166312054270465
 20
-12.236555125415073
 30
0.0
 10
-18.870301083427883
 20
-16.222346171584284
 30
0.0
 10
-24.574290112585295
 20
-20.208137217753478
 30
0.0
 10
-48.53717219573699
 20
-20.2780869996743
 30
0.0
 10
-53.83471089355088
 20
-15.922914272115568
 30
0.0
 10
-59.132249591364776
 20
-11.567741544556819
 30
0.0
 10
-65.567540111228
 20
10.602276562563206
 30
0.0
 10
-58.12761329788646
 20
14.9654367551005
 30
0.0
  0
SPLINE
  5
53
330
17
100
AcDbEntity
  8
OUTLINE
100
AcDbSpline
 70
1
 71
3
 72
65
 73
61
 74
0
 40
0.0
 40
0.0
 40
0.0
 40
0.0
 40
1.0
 40
1.0
 40
1.0
 40
2.0
 40
2.0
 40
2.0
 40
3.0
 40
3.0
 40
3.0
 40
4.0
 40
4.0
 40
4.0
 40
5.0
 40
5.0
 40
5.0
 40
6.0
 40
6.0
 40
6.0
 40
7.0
 40
7.0
 40
7.0
 40
8.0
 40
8.0
 40
8.0
 40
9.0
 40
9.0
 40
9.0
 40
10.0
 40
10.0
 40
10.0
 40
11.0
 40
11.0
 40
11.0
 40
12.0
 40
12.0
 40
12.0
 40
13.0
 40
13.0
 40
13.0
 40
14.0
 40
14.0
 40
14.0
 40
15.0
 40
15.0
 40
15.0
 40
16.0
 40
16.0
 40
16.0
 40
17.0
 40
17.0
 40
17.0
 40
18.0
 40
18.0
 40
18.0
 40
19.0
 40
19.0
 40
19.0
 40
20.0
 40
20.0
 40
20.0
 40
20.0
 10
0.0
 20
10.127066502069276
 30
0.0
 10
-1.0723113222185647
 20
10.096854408421697
 30
0.0
 10
-5.7557546149141965
 20
10.215798944143906
 30
0.0
 10
-6.0628088510123295
 20
8.490633122104851
 30
0.0
 10
-6.36986308711046
 20
6.7654673000658
 30
0.0
 10
-5.295848557056382
 20
7.155680659004654
 30
0.0
 10
-5.147449495351879
 20
6.639773610416481
 30
0.0
 10
-4.999050433647378
 20
6.123866561828306
 30
0.0
 10
-10.344119225249651
 20
-12.078245406345129
 30
0.0
 10
-15.61513071234018
 20
-17.234482376041733
 30
0.0
 10
-20.886142199430704
 20
-22.39071934573832
 30
0.0
 10
-49.534992200220806
 20
-22.401569070227083
 30
0.0
 10
-55.574726426115376
 20
-17.855396427440866
 30
0.0
 10
-61.614460652009946
 20
-13.309223784654655
 30
0.0
 10
-64.7969967586916
 20
5.679861277737384
 30
0.0
 10
-66.59262528719866
 20
7.449723985407356
 30
0.0
 10
-68.38825381570568
 20
9.219586693077325
 30
0.0
 10
-70.65433852020924
 20
9.604677601149087
 30
0.0
 10
-72.90888537473664
 20
9.944569101855684
 30
0.0
 10
-72.90888537473664
 20
9.944569101855684
 30
0.0
 10
-72.90888537473664
 20
17.87105979229507
 30
0.0
 10
-72.90888537473664
 20
17.87105979229507
 30
0.0
 10
-46.47778301891493
 20
23.023113310850093
 30
0.0
 10
-27.047739261702638
 20
21.215125912874335
 30
0.0
 10
-19.985883094934564
 20
19.967114540089852
 30
0.0
 10
-12.924026928166487
 20
18.719103167305377
 30
0.0
 10
-9.55288247272132
 20
15.561328881290512
 30
0.0
 10
-7.498314210228093
 20
15.141641046814295
 30
0.0
 10
-5.443745947734864
 20
14.721953212338079
 30
0.0
 10
-3.1696882723349944
 20
15.241619197436307
 30
0.0
 10
0.0
 20
15.27368439026705
 30
0.0
 10
3.169688272334994
 20
15.241619197436307
 30
0.0
 10
5.443745947734864
 20
14.721953212338079
 30
0.0
 10
7.498314210228093
 20
15.141641046814295
 30
0.0
 10
9.55288247272132
 20
15.561328881290512
 30
0.0
 10
12.924026928166487
 20
18.719103167305377
 30
0.0
 10
19.985883094934564
 20
19.967114540089852
 30
0.0
 10
27.047739261702638
 20
21.215125912874335
 30
0.0
 10
46.47778301891493
 20
23.023113310850093
 30
0.0
 10
72.90888537473664
 20
17.87105979229507
 30
0.0
 10
72.90888537473664
 20
17.87105979229507
 30
0.0
 10
72.90888537473664
 20
9.944569101855684
 30
0.0
 10
72.90888537473664
 20
9.944569101855684
 30
0.0
 10
70.65433852020924
 20
9.604677601149087
 30
0.0
 10
68.38825381570568
 20
9.219586693077325
 30
0.0
 10
66.59262528719866
 20
7.449723985407355
 30
0.0
 10
64.7969967586916
 20
5.679861277737385
 30
0.0
 10
61.614460652009946
 20
-13.309223784654655
 30
0.0
 10
55.574726426115376
 20
-17.855396427440866
 30
0.0
 10
49.534992200220806
 20
-22.401569070227083
 30
0.0
 10
20.886142199430708
 20
-22.39071934573832
 30
0.0
 10
15.615130712340182
 20
-17.234482376041733
 30
0.0
 10
10.344119225249651
 20
-12.078245406345129
 30
0.0
 10
4.999050433647378
 20
6.123866561828308
 30
0.0
 10
5.147449495351879
 20
6.63977361041648
 30
0.0
 10
5.295848557056382
 20
7.155680659004654
 30
0.0
 10
6.36986308711046
 20
6.7654673000658
 30
0.0
 10
6.0628088510123295
 20
8.490633122104851
 30
0.0
 10
5.7557546149141965
 20
10.215798944143906
 30
0.0
 10
1.0723113222185647
 20
10.096854408421697
 30
0.0
 10
0.0
 20
10.127066502069276
 30
0.0
  0
ENDSEC
  0
SECTION
  2
OBJECTS
  0
DICTIONARY
  5
A
330
0
100
AcDbDictionary
281
1
  3
ACAD_COLOR
350
B
  3
ACAD_GROUP
350
C
  3
ACAD_LAYOUT
350
D
  3
ACAD_MATERIAL
350
E
  3
ACAD_MLEADERSTYLE
350
F
  3
ACAD_MLINESTYLE
350
10
  3
ACAD_PLOTSETTINGS
350
11
  3
ACAD_PLOTSTYLENAME
350
12
  3
ACAD_SCALELIST
350
14
  3
ACAD_TABLESTYLE
350
15
  3
ACAD_VISUALSTYLE
350
16
  3
EZDXF_META
350
2D
  0
DICTIONARY
  5
B
330
A
100
AcDbDictionary
281
1
  0
DICTIONARY
  5
C
330
A
100
AcDbDictionary
281
1
  0
DICTIONARY
  5
D
330
A
100
AcDbDictionary
281
1
  3
Model
350
1A
  3
Layout1
350
1E
  0
DICTIONARY
  5
E
330
A
100
AcDbDictionary
281
1
  3
ByBlock
350
1F
  3
ByLayer
350
20
  3
Global
350
21
  0
DICTIONARY
  5
F
330
A
100
AcDbDictionary
281
1
  3
Standard
350
2C
  0
DICTIONARY
  5
10
330
A
100
AcDbDictionary
281
1
  3
Standard
350
22
  0
DICTIONARY
  5
11
330
A
100
AcDbDictionary
281
1
  0
ACDBDICTIONARYWDFLT
  5
12
330
A
100
AcDbDictionary
281
1
  3
Normal
350
13
100
AcDbDictionaryWithDefault
340
13
  0
ACDBPLACEHOLDER
  5
13
330
12
  0
DICTIONARY
  5
14
330
A
100
AcDbDictionary
281
1
  0
DICTIONARY
  5
15
330
A
100
AcDbDictionary
281
1
  0
DICTIONARY
  5
16
330
A
100
AcDbDictionary
281
1
  0
LAYOUT
  5
1A
330
D
100
AcDbPlotSettings
  1

  4
A3
  6

 40
7.5
 41
20.0
 42
7.5
 43
20.0
 44
420.0
 45
297.0
 46
0.0
 47
0.0
 48
0.0
 49
0.0
140
0.0
141
0.0
142
1.0
143
1.0
 70
1024
 72
1
 73
0
 74
5
  7

 75
16
 76
0
 77
2
 78
300
147
1.0
148
0.0
149
0.0
100
AcDbLayout
  1
Model
 70
1
 71
0
 10
0.0
 20
0.0
 11
420.0
 21
297.0
 12
0.0
 22
0.0
 32
0.0
 14
1e+20
 24
1e+20
 34
1e+20
 15
-1e+20
 25
-1e+20
 35
-1e+20
146
0.0
 13
0.0
 23
0.0
 33
0.0
 16
1.0
 26
0.0
 36
0.0
 17
0.0
 27
1.0
 37
0.0
 76
1
330
17
  0
LAYOUT
  5
1E
330
D
100
AcDbPlotSettings
  1

  4
A3
  6

 40
7.5
 41
20.0
 42
7.5
 43
20.0
 44
420.0
 45
297.0
 46
0.0
 47
0.0
 48
0.0
 49
0.0
140
0.0
141
0.0
142
1.0
143
1.0
 70
0
 72
1
 73
0
 74
5
  7

 75
16
 76
0
 77
2
 78
300
147
1.0
148
0.0
149
0.0
100
AcDbLayout
  1
Layout1
 70
1
 71
1
 10
0.0
 20
0.0
 11
420.0
 21
297.0
 12
0.0
 22
0.0
 32
0.0
 14
1e+20
 24
1e+20
 34
1e+20
 15
-1e+20
 25
-1e+20
 35
-1e+20
146
0.0
 13
0.0
 23
0.0
 33
0.0
 16
1.0
 26
0.0
 36
0.0
 17
0.0
 27
1.0
 37
0.0
 76
1
330
1B
  0
MATERIAL
  5
1F
102
{ACAD_REACTORS
330
E
102
}
330
E
100
AcDbMaterial
  1
ByBlock
  2

 70
0
 40
1.0
 71
1
 41
1.0
 91
-1023410177
 42
1.0
 72
1
  3

 73
1
 74
1
 75
1
 44
0.5
 73
0
 45
1.0
 46
1.0
 77
1
  4

 78
1
 79
1
170
1
 48
1.0
171
1
  6

172
1
173
1
174
1
140
1.0
141
1.0
175
1
  7

176
1
177
1
178
1
143
1.0
179
1
  8

270
1
271
1
272
1
145
1.0
146
1.0
273
1
  9

274
1
275
1
276
1
 42
1.0
 72
1
  3

 73
1
 74
1
 75
1
 94
63
  0
MATERIAL
  5
20
102
{ACAD_REACTORS
330
E
102
}
330
E
100
AcDbMaterial
  1
ByLayer
  2

 70
0
 40
1.0
 71
1
 41
1.0
 91
-1023410177
 42
1.0
 72
1
  3

 73
1
 74
1
 75
1
 44
0.5
 73
0
 45
1.0
 46
1.0
 77
1
  4

 78
1
 79
1
170
1
 48
1.0
171
1
  6

172
1
173
1
174
1
140
1.0
141
1.0
175
1
  7

176
1
177
1
178
1
143
1.0
179
1
  8

270
1
271
1
272
1
145
1.0
146
1.0
273
1
  9

274
1
275
1
276
1
 42
1.0
 72
1
  3

 73
1
 74
1
 75
1
 94
63
  0
MATERIAL
  5
21
102
{ACAD_REACTORS
330
E
102
}
330
E
100
AcDbMaterial
  1
Global
  2

 70
0
 40
1.0
 71
1
 41
1.0
 91
-1023410177
 42
1.0
 72
1
  3

 73
1
 74
1
 75
1
 44
0.5
 73
0
 45
1.0
 46
1.0
 77
1
  4

 78
1
 79
1
170
1
 48
1.0
171
1
  6

172
1
173
1
174
1
140
1.0
141
1.0
175
1
  7

176
1
177
1
178
1
143
1.0
179
1
  8

270
1
271
1
272
1
145
1.0
146
1.0
273
1
  9

274
1
275
1
276
1
 42
1.0
 72
1
  3

 73
1
 74
1
 75
1
 94
63
  0
MLINESTYLE
  5
22
102
{ACAD_REACTORS
330
10
102
}
330
10
100
AcDbMlineStyle
  2
Standard
 70
0
  3

 62
256
 51
90.0
 52
90.0
 71
2
 49
0.5
 62
256
  6
BYLAYER
 49
-0.5
 62
256
  6
BYLAYER
  0
MLEADERSTYLE
  5
2C
102
{ACAD_REACTORS
330
F
102
}
330
F
100
AcDbMLeaderStyle
179
2
170
2
171
1
172
0
 90
2
 40
0.0
 41
0.0
173
1
 91
-1056964608
 92
-2
290
1
 42
2.0
291
1
 43
8.0
  3
Standard
 44
4.0
300

342
29
174
1
175
1
176
0
178
1
 93
-1056964608
 45
4.0
292
0
297
0
 46
4.0
 94
-1056964608
 47
1.0
 49
1.0
140
1.0
294
1
141
0.0
177
0
142
1.0
295
0
296
0
143
3.75
271
0
272
9
273
9
  0
DICTIONARY
  5
2D
330
A
100
AcDbDictionary
280
1
281
1
  3
CREATED_BY_EZDXF
350
2E
  3
WRITTEN_BY_EZDXF
350
56
  0
DICTIONARYVAR
  5
2E
330
2D
100
DictionaryVariables
280
0
  1
1.4.4 @ 2026-06-30T06:25:21.640704+00:00
  0
DICTIONARYVAR
  5
56
330
2D
100
DictionaryVariables
280
0
  1
1.4.4 @ 2026-06-30T06:25:21.685136+00:00
  0
ENDSEC
  0
EOF
