  0
SECTION
  2
HEADER
  9
$ACADVER
  1
AC1015
  9
$ACADMAINTVER
 70
6
  9
$DWGCODEPAGE
  3
ANSI_1252
  9
$INSBASE
 10
0.0
 20
0.0
 30
0.0
  9
$EXTMIN
 10
1e+20
 20
1e+20
 30
1e+20
  9
$EXTMAX
 10
-1e+20
 20
-1e+20
 30
-1e+20
  9
$LIMMIN
 10
0.0
 20
0.0
  9
$LIMMAX
 10
420.0
 20
297.0
  9
$ORTHOMODE
 70
0
  9
$REGENMODE
 70
1
  9
$FILLMODE
 70
1
  9
$QTEXTMODE
 70
0
  9
$MIRRTEXT
 70
1
  9
$LTSCALE
 40
1.0
  9
$ATTMODE
 70
1
  9
$TEXTSIZE
 40
2.5
  9
$TRACEWID
 40
1.0
  9
$TEXTSTYLE
  7
Standard
  9
$CLAYER
  8
0
  9
$CELTYPE
  6
ByLayer
  9
$CECOLOR
 62
256
  9
$CELTSCALE
 40
1.0
  9
$DISPSILH
 70
0
  9
$DIMSCALE
 40
1.0
  9
$DIMASZ
 40
2.5
  9
$DIMEXO
 40
0.625
  9
$DIMDLI
 40
3.75
  9
$DIMRND
 40
0.0
  9
$DIMDLE
 40
0.0
  9
$DIMEXE
 40
1.25
  9
$DIMTP
 40
0.0
  9
$DIMTM
 40
0.0
  9
$DIMTXT
 40
2.5
  9
$DIMCEN
 40
2.5
  9
$DIMTSZ
 40
0.0
  9
$DIMTOL
 70
0
  9
$DIMLIM
 70
0
  9
$DIMTIH
 70
0
  9
$DIMTOH
 70
0
  9
$DIMSE1
 70
0
  9
$DIMSE2
 70
0
  9
$DIMTAD
 70
1
  9
$DIMZIN
 70
8
  9
$DIMBLK
  1

  9
$DIMASO
 70
1
  9
$DIMSHO
 70
1
  9
$DIMPOST
  1

  9
$DIMAPOST
  1

  9
$DIMALT
 70
0
  9
$DIMALTD
 70
3
  9
$DIMALTF
 40
0.03937007874
  9
$DIMLFAC
 40
1.0
  9
$DIMTOFL
 70
1
  9
$DIMTVP
 40
0.0
  9
$DIMTIX
 70
0
  9
$DIMSOXD
 70
0
  9
$DIMSAH
 70
0
  9
$DIMBLK1
  1

  9
$DIMBLK2
  1

  9
$DIMSTYLE
  2
ISO-25
  9
$DIMCLRD
 70
0
  9
$DIMCLRE
 70
0
  9
$DIMCLRT
 70
0
  9
$DIMTFAC
 40
1.0
  9
$DIMGAP
 40
0.625
  9
$DIMJUST
 70
0
  9
$DIMSD1
 70
0
  9
$DIMSD2
 70
0
  9
$DIMTOLJ
 70
0
  9
$DIMTZIN
 70
8
  9
$DIMALTZ
 70
0
  9
$DIMALTTZ
 70
0
  9
$DIMUPT
 70
0
  9
$DIMDEC
 70
2
  9
$DIMTDEC
 70
2
  9
$DIMALTU
 70
2
  9
$DIMALTTD
 70
3
  9
$DIMTXSTY
  7
Standard
  9
$DIMAUNIT
 70
0
  9
$DIMADEC
 70
0
  9
$DIMALTRND
 40
0.0
  9
$DIMAZIN
 70
0
  9
$DIMDSEP
 70
44
  9
$DIMATFIT
 70
3
  9
$DIMFRAC
 70
0
  9
$DIMLDRBLK
  1

  9
$DIMLUNIT
 70
2
  9
$DIMLWD
 70
-2
  9
$DIMLWE
 70
-2
  9
$DIMTMOVE
 70
0
  9
$LUNITS
 70
2
  9
$LUPREC
 70
4
  9
$SKETCHINC
 40
1.0
  9
$FILLETRAD
 40
10.0
  9
$AUNITS
 70
0
  9
$AUPREC
 70
2
  9
$MENU
  1
.
  9
$ELEVATION
 40
0.0
  9
$PELEVATION
 40
0.0
  9
$THICKNESS
 40
0.0
  9
$LIMCHECK
 70
0
  9
$CHAMFERA
 40
0.0
  9
$CHAMFERB
 40
0.0
  9
$CHAMFERC
 40
0.0
  9
$CHAMFERD
 40
0.0
  9
$SKPOLY
 70
0
  9
$TDCREATE
 40
2461221.0345949074
  9
$TDUCREATE
 40
2458532.153996898
  9
$TDUPDATE
 40
2461221.0345949074
  9
$TDUUPDATE
 40
2458532.1544311
  9
$TDINDWG
 40
0.0
  9
$TDUSRTIMER
 40
0.0
  9
$USRTIMER
 70
1
  9
$ANGBASE
 50
0.0
  9
$ANGDIR
 70
0
  9
$PDMODE
 70
0
  9
$PDSIZE
 40
0.0
  9
$PLINEWID
 40
0.0
  9
$SPLFRAME
 70
0
  9
$SPLINETYPE
 70
6
  9
$SPLINESEGS
 70
8
  9
$HANDSEED
  5
38
  9
$SURFTAB1
 70
6
  9
$SURFTAB2
 70
6
  9
$SURFTYPE
 70
6
  9
$SURFU
 70
6
  9
$SURFV
 70
6
  9
$UCSBASE
  2

  9
$UCSNAME
  2

  9
$UCSORG
 10
0.0
 20
0.0
 30
0.0
  9
$UCSXDIR
 10
1.0
 20
0.0
 30
0.0
  9
$UCSYDIR
 10
0.0
 20
1.0
 30
0.0
  9
$UCSORTHOREF
  2

  9
$UCSORTHOVIEW
 70
0
  9
$UCSORGTOP
 10
0.0
 20
0.0
 30
0.0
  9
$UCSORGBOTTOM
 10
0.0
 20
0.0
 30
0.0
  9
$UCSORGLEFT
 10
0.0
 20
0.0
 30
0.0
  9
$UCSORGRIGHT
 10
0.0
 20
0.0
 30
0.0
  9
$UCSORGFRONT
 10
0.0
 20
0.0
 30
0.0
  9
$UCSORGBACK
 10
0.0
 20
0.0
 30
0.0
  9
$PUCSBASE
  2

  9
$PUCSNAME
  2

  9
$PUCSORG
 10
0.0
 20
0.0
 30
0.0
  9
$PUCSXDIR
 10
1.0
 20
0.0
 30
0.0
  9
$PUCSYDIR
 10
0.0
 20
1.0
 30
0.0
  9
$PUCSORTHOREF
  2

  9
$PUCSORTHOVIEW
 70
0
  9
$PUCSORGTOP
 10
0.0
 20
0.0
 30
0.0
  9
$PUCSORGBOTTOM
 10
0.0
 20
0.0
 30
0.0
  9
$PUCSORGLEFT
 10
0.0
 20
0.0
 30
0.0
  9
$PUCSORGRIGHT
 10
0.0
 20
0.0
 30
0.0
  9
$PUCSORGFRONT
 10
0.0
 20
0.0
 30
0.0
  9
$PUCSORGBACK
 10
0.0
 20
0.0
 30
0.0
  9
$USERI1
 70
0
  9
$USERI2
 70
0
  9
$USERI3
 70
0
  9
$USERI4
 70
0
  9
$USERI5
 70
0
  9
$USERR1
 40
0.0
  9
$USERR2
 40
0.0
  9
$USERR3
 40
0.0
  9
$USERR4
 40
0.0
  9
$USERR5
 40
0.0
  9
$WORLDVIEW
 70
1
  9
$SHADEDGE
 70
3
  9
$SHADEDIF
 70
70
  9
$TILEMODE
 70
1
  9
$MAXACTVP
 70
64
  9
$PINSBASE
 10
0.0
 20
0.0
 30
0.0
  9
$PLIMCHECK
 70
0
  9
$PEXTMIN
 10
1e+20
 20
1e+20
 30
1e+20
  9
$PEXTMAX
 10
-1e+20
 20
-1e+20
 30
-1e+20
  9
$PLIMMIN
 10
0.0
 20
0.0
  9
$PLIMMAX
 10
420.0
 20
297.0
  9
$UNITMODE
 70
0
  9
$VISRETAIN
 70
1
  9
$PLINEGEN
 70
0
  9
$PSLTSCALE
 70
1
  9
$TREEDEPTH
 70
3020
  9
$CMLSTYLE
  2
Standard
  9
$CMLJUST
 70
0
  9
$CMLSCALE
 40
20.0
  9
$PROXYGRAPHICS
 70
1
  9
$MEASUREMENT
 70
1
  9
$CELWEIGHT
370
-1
  9
$ENDCAPS
280
0
  9
$JOINSTYLE
280
0
  9
$LWDISPLAY
290
0
  9
$INSUNITS
 70
4
  9
$HYPERLINKBASE
  1

  9
$STYLESHEET
  1

  9
$XEDIT
290
1
  9
$CEPSNTYPE
380
0
  9
$PSTYLEMODE
290
1
  9
$FINGERPRINTGUID
  2
{B507C9AE-3D40-43B5-876B-80B98DABA3AB}
  9
$VERSIONGUID
  2
{30D146ED-97FC-4976-96FD-072FBB1F0636}
  9
$EXTNAMES
290
1
  9
$PSVPSCALE
 40
0.0
  9
$OLESTARTUP
290
0
  0
ENDSEC
  0
SECTION
  2
CLASSES
  0
CLASS
  1
ACDBDICTIONARYWDFLT
  2
AcDbDictionaryWithDefault
  3
ObjectDBX Classes
 90
0
280
0
281
0
  0
CLASS
  1
SUN
  2
AcDbSun
  3
SCENEOE
 90
1153
280
0
281
0
  0
CLASS
  1
VISUALSTYLE
  2
AcDbVisualStyle
  3
ObjectDBX Classes
 90
4095
280
0
281
0
  0
CLASS
  1
MATERIAL
  2
AcDbMaterial
  3
ObjectDBX Classes
 90
1153
280
0
281
0
  0
CLASS
  1
SCALE
  2
AcDbScale
  3
ObjectDBX Classes
 90
1153
280
0
281
0
  0
CLASS
  1
TABLESTYLE
  2
AcDbTableStyle
  3
ObjectDBX Classes
 90
4095
280
0
281
0
  0
CLASS
  1
MLEADERSTYLE
  2
AcDbMLeaderStyle
  3
ACDB_MLEADERSTYLE_CLASS
 90
4095
280
0
281
0
  0
CLASS
  1
DICTIONARYVAR
  2
AcDbDictionaryVar
  3
ObjectDBX Classes
 90
0
280
0
281
0
  0
CLASS
  1
CELLSTYLEMAP
  2
AcDbCellStyleMap
  3
ObjectDBX Classes
 90
1152
280
0
281
0
  0
CLASS
  1
MENTALRAYRENDERSETTINGS
  2
AcDbMentalRayRenderSettings
  3
SCENEOE
 90
1024
280
0
281
0
  0
CLASS
  1
ACDBDETAILVIEWSTYLE
  2
AcDbDetailViewStyle
  3
ObjectDBX Classes
 90
1025
280
0
281
0
  0
CLASS
  1
ACDBSECTIONVIEWSTYLE
  2
AcDbSectionViewStyle
  3
ObjectDBX Classes
 90
1025
280
0
281
0
  0
CLASS
  1
RASTERVARIABLES
  2
AcDbRasterVariables
  3
ISM
 90
0
280
0
281
0
  0
CLASS
  1
ACDBPLACEHOLDER
  2
AcDbPlaceHolder
  3
ObjectDBX Classes
 90
0
280
0
281
0
  0
CLASS
  1
LAYOUT
  2
AcDbLayout
  3
ObjectDBX Classes
 90
0
280
0
281
0
  0
ENDSEC
  0
SECTION
  2
TABLES
  0
TABLE
  2
VPORT
  5
8
330
0
100
AcDbSymbolTable
 70
1
  0
VPORT
  5
23
330
8
100
AcDbSymbolTableRecord
100
AcDbViewportTableRecord
  2
*Active
 70
0
 10
0.0
 20
0.0
 11
1.0
 21
1.0
 12
0.0
 22
0.0
 13
0.0
 23
0.0
 14
0.5
 24
0.5
 15
0.5
 25
0.5
 16
0.0
 26
0.0
 36
1.0
 17
0.0
 27
0.0
 37
0.0
 40
1000.0
 41
1.34
 42
50.0
 43
0.0
 44
0.0
 50
0.0
 51
0.0
 71
0
 72
1000
 73
1
 74
3
 75
0
 76
0
 77
0
 78
0
281
0
 65
0
146
0.0
  0
ENDTAB
  0
TABLE
  2
LTYPE
  5
2
330
0
100
AcDbSymbolTable
 70
3
  0
LTYPE
  5
24
330
2
100
AcDbSymbolTableRecord
100
AcDbLinetypeTableRecord
  2
ByBlock
 70
0
  3

 72
65
 73
0
 40
0.0
  0
LTYPE
  5
25
330
2
100
AcDbSymbolTableRecord
100
AcDbLinetypeTableRecord
  2
ByLayer
 70
0
  3

 72
65
 73
0
 40
0.0
  0
LTYPE
  5
26
330
2
100
AcDbSymbolTableRecord
100
AcDbLinetypeTableRecord
  2
Continuous
 70
0
  3

 72
65
 73
0
 40
0.0
  0
ENDTAB
  0
TABLE
  2
LAYER
  5
1
330
0
100
AcDbSymbolTable
 70
2
  0
LAYER
  5
27
330
1
100
AcDbSymbolTableRecord
100
AcDbLayerTableRecord
  2
0
 70
0
 62
7
  6
Continuous
370
-3
390
13
  0
LAYER
  5
28
330
1
100
AcDbSymbolTableRecord
100
AcDbLayerTableRecord
  2
Defpoints
 70
0
 62
7
  6
Continuous
290
0
370
-3
390
13
  0
ENDTAB
  0
TABLE
  2
STYLE
  5
5
330
0
100
AcDbSymbolTable
 70
1
  0
STYLE
  5
29
330
5
100
AcDbSymbolTableRecord
100
AcDbTextStyleTableRecord
  2
Standard
 70
0
 40
0.0
 41
1.0
 50
0.0
 71
0
 42
2.5
  3
txt
  4

  0
ENDTAB
  0
TABLE
  2
VIEW
  5
7
330
0
100
AcDbSymbolTable
 70
0
  0
ENDTAB
  0
TABLE
  2
UCS
  5
6
330
0
100
AcDbSymbolTable
 70
0
  0
ENDTAB
  0
TABLE
  2
APPID
  5
3
330
0
100
AcDbSymbolTable
 70
3
  0
APPID
  5
2A
330
3
100
AcDbSymbolTableRecord
100
AcDbRegAppTableRecord
  2
ACAD
 70
0
  0
APPID
  5
35
330
3
100
AcDbSymbolTableRecord
100
AcDbRegAppTableRecord
  2
HATCHBACKGROUNDCOLOR
 70
0
  0
APPID
  5
36
330
3
100
AcDbSymbolTableRecord
100
AcDbRegAppTableRecord
  2
EZDXF
 70
0
  0
ENDTAB
  0
TABLE
  2
DIMSTYLE
  5
4
330
0
100
AcDbSymbolTable
 70
1
100
AcDbDimStyleTable
  0
DIMSTYLE
105
2B
330
4
100
AcDbSymbolTableRecord
100
AcDbDimStyleTableRecord
  2
Standard
 70
0
  3

  4

 40
1.0
 41
2.5
 42
0.625
 43
3.75
 44
1.25
 45
0.0
 46
0.0
 47
0.0
 48
0.0
140
2.5
141
2.5
142
0.0
143
0.03937007874
144
1.0
145
0.0
146
1.0
147
0.625
148
0.0
 71
0
 72
0
 73
0
 74
0
 75
0
 76
0
 77
1
 78
8
 79
3
170
0
171
3
172
1
173
0
174
0
175
0
176
0
177
0
178
0
179
2
271
2
272
2
273
2
274
3
275
0
276
0
277
2
278
44
279
0
280
0
281
0
282
0
283
0
284
8
285
0
286
0
288
0
289
3
371
-2
372
-2
  0
ENDTAB
  0
TABLE
  2
BLOCK_RECORD
  5
9
330
0
100
AcDbSymbolTable
 70
2
  0
BLOCK_RECORD
  5
17
330
9
100
AcDbSymbolTableRecord
100
AcDbBlockTableRecord
  2
*Model_Space
340
1A
  0
BLOCK_RECORD
  5
1B
330
9
100
AcDbSymbolTableRecord
100
AcDbBlockTableRecord
  2
*Paper_Space
340
1E
  0
ENDTAB
  0
ENDSEC
  0
SECTION
  2
BLOCKS
  0
BLOCK
  5
18
330
17
100
AcDbEntity
  8
0
100
AcDbBlockBegin
  2
*Model_Space
 70
0
 10
0.0
 20
0.0
 30
0.0
  3
*Model_Space
  1

  0
ENDBLK
  5
19
330
17
100
AcDbEntity
  8
0
100
AcDbBlockEnd
  0
BLOCK
  5
1C
330
1B
100
AcDbEntity
  8
0
100
AcDbBlockBegin
  2
*Paper_Space
 70
0
 10
0.0
 20
0.0
 30
0.0
  3
*Paper_Space
  1

  0
ENDBLK
  5
1D
330
1B
100
AcDbEntity
  8
0
100
AcDbBlockEnd
  0
ENDSEC
  0
SECTION
  2
ENTITIES
  0
SPLINE
  5
2F
330
17
100
AcDbEntity
  8
OUTLINE
100
AcDbSpline
 70
1
 71
3
 72
35
 73
31
 74
0
 40
0.0
 40
0.0
 40
0.0
 40
0.0
 40
1.0
 40
1.0
 40
1.0
 40
2.0
 40
2.0
 40
2.0
 40
3.0
 40
3.0
 40
3.0
 40
4.0
 40
4.0
 40
4.0
 40
5.0
 40
5.0
 40
5.0
 40
6.0
 40
6.0
 40
6.0
 40
7.0
 40
7.0
 40
7.0
 40
8.0
 40
8.0
 40
8.0
 40
9.0
 40
9.0
 40
9.0
 40
10.0
 40
10.0
 40
10.0
 40
10.0
 10
-79.4395788260819
 20
6.156567359021347
 30
0.0
 10
-79.4395788260819
 20
6.156567359021347
 30
0.0
 10
-77.11244434742655
 20
-7.14134394758066
 30
0.0
 10
-77.11244434742655
 20
-7.14134394758066
 30
0.0
 10
-75.282611851641
 20
-6.745515744578036
 30
0.0
 10
-70.3674204959086
 20
-5.424216719754402
 30
0.0
 10
-53.02272278479377
 20
-5.331893911320044
 30
0.0
 10
-35.67802507367896
 20
-5.239571102885686
 30
0.0
 10
-25.55080305471634
 20
-12.480315932788159
 30
0.0
 10
-25.77076453712476
 20
-7.179839753787849
 30
0.0
 10
-25.990726019533177
 20
-1.8793635747875372
 30
0.0
 10
-21.70514913051396
 20
-3.2505111708295704
 30
0.0
 10
-7.1238260483386995
 20
-2.190195391687716
 30
0.0
 10
7.45749703383656
 20
-1.1298796125458632
 30
0.0
 10
46.60567430609547
 20
-3.524841622666287
 30
0.0
 10
48.28870040149115
 20
-2.9901981539189952
 30
0.0
 10
49.971726496886824
 20
-2.4555546851717036
 30
0.0
 10
54.26348973535867
 20
4.398351778166043
 30
0.0
 10
50.46768184523794
 20
3.4861348241849512
 30
0.0
 10
46.67187395511721
 20
2.57391787020386
 30
0.0
 10
5.872649017179384
 20
1.1091151307700082
 30
0.0
 10
-7.168681840102394
 20
2.00281039256343
 30
0.0
 10
-20.210012697384172
 20
2.8965056543568517
 30
0.0
 10
-19.714599368344935
 20
6.641271403261243
 30
0.0
 10
-25.509311447334934
 20
8.354612514267707
 30
0.0
 10
-31.304023526324933
 20
10.067953625274171
 30
0.0
 10
-24.835540311779617
 20
5.934961140592103
 30
0.0
 10
-34.13659099933337
 20
5.173665176842151
 30
0.0
 10
-43.437641686887126
 20
4.4123692130922
 30
0.0
 10
-71.23082234738676
 20
6.288966657064817
 30
0.0
 10
-79.4395788260819
 20
6.156567359021347
 30
0.0
  0
SPLINE
  5
30
330
17
100
AcDbEntity
  8
ENGRAVING
100
AcDbSpline
 70
1
 71
3
 72
41
 73
37
 74
0
 40
0.0
 40
0.0
 40
0.0
 40
0.0
 40
1.0
 40
1.0
 40
1.0
 40
2.0
 40
2.0
 40
2.0
 40
3.0
 40
3.0
 40
3.0
 40
4.0
 40
4.0
 40
4.0
 40
5.0
 40
5.0
 40
5.0
 40
6.0
 40
6.0
 40
6.0
 40
7.0
 40
7.0
 40
7.0
 40
8.0
 40
8.0
 40
8.0
 40
9.0
 40
9.0
 40
9.0
 40
10.0
 40
10.0
 40
10.0
 40
11.0
 40
11.0
 40
11.0
 40
12.0
 40
12.0
 40
12.0
 40
12.0
 10
-57.273995298858296
 20
-2.392
 30
0.0
 10
-57.273995298858296
 20
-2.392
 30
0.0
 10
-57.93887105439893
 20
-2.392
 30
0.0
 10
-57.93887105439893
 20
-2.392
 30
0.0
 10
-57.93887105439893
 20
-2.392
 30
0.0
 10
-57.93887105439893
 20
0.05595164539959718
 30
0.0
 10
-57.93887105439893
 20
0.05595164539959718
 30
0.0
 10
-57.93887105439893
 20
0.05595164539959718
 30
0.0
 10
-60.239072531900604
 20
0.05595164539959718
 30
0.0
 10
-60.239072531900604
 20
0.05595164539959718
 30
0.0
 10
-60.239072531900604
 20
0.05595164539959718
 30
0.0
 10
-60.239072531900604
 20
-2.392
 30
0.0
 10
-60.239072531900604
 20
-2.392
 30
0.0
 10
-60.239072531900604
 20
-2.392
 30
0.0
 10
-60.90394828744124
 20
-2.392
 30
0.0
 10
-60.90394828744124
 20
-2.392
 30
0.0
 10
-60.90394828744124
 20
-2.392
 30
0.0
 10
-60.90394828744124
 20
2.608
 30
0.0
 10
-60.90394828744124
 20
2.608
 30
0.0
 10
-60.90394828744124
 20
2.608
 30
0.0
 10
-60.239072531900604
 20
2.608
 30
0.0
 10
-60.239072531900604
 20
2.608
 30
0.0
 10
-60.239072531900604
 20
2.608
 30
0.0
 10
-60.239072531900604
 20
0.6469523169912694
 30
0.0
 10
-60.239072531900604
 20
0.6469523169912694
 30
0.0
 10
-60.239072531900604
 20
0.6469523169912694
 30
0.0
 10
-57.93887105439893
 20
0.6469523169912694
 30
0.0
 10
-57.93887105439893
 20
0.6469523169912694
 30
0.0
 10
-57.93887105439893
 20
0.6469523169912694
 30
0.0
 10
-57.93887105439893
 20
2.608
 30
0.0
 10
-57.93887105439893
 20
2.608
 30
0.0
 10
-57.93887105439893
 20
2.608
 30
0.0
 10
-57.273995298858296
 20
2.608
 30
0.0
 10
-57.273995298858296
 20
2.608
 30
0.0
 10
-57.273995298858296
 20
2.608
 30
0.0
 10
-57.273995298858296
 20
-2.392
 30
0.0
 10
-57.273995298858296
 20
-2.392
 30
0.0
  0
SPLINE
  5
31
330
17
100
AcDbEntity
  8
ENGRAVING
100
AcDbSpline
 70
1
 71
3
 72
53
 73
49
 74
0
 40
0.0
 40
0.0
 40
0.0
 40
0.0
 40
1.0
 40
1.0
 40
1.0
 40
2.0
 40
2.0
 40
2.0
 40
3.0
 40
3.0
 40
3.0
 40
4.0
 40
4.0
 40
4.0
 40
5.0
 40
5.0
 40
5.0
 40
6.0
 40
6.0
 40
6.0
 40
7.0
 40
7.0
 40
7.0
 40
8.0
 40
8.0
 40
8.0
 40
9.0
 40
9.0
 40
9.0
 40
10.0
 40
10.0
 40
10.0
 40
11.0
 40
11.0
 40
11.0
 40
12.0
 40
12.0
 40
12.0
 40
13.0
 40
13.0
 40
13.0
 40
14.0
 40
14.0
 40
14.0
 40
15.0
 40
15.0
 40
15.0
 40
16.0
 40
16.0
 40
16.0
 40
16.0
 10
-52.72396171927468
 20
2.033789120214909
 30
0.0
 10
-52.53367795867612
 20
1.8144023706399008
 30
0.0
 10
-52.38592779077821
 20
1.5424077433732792
 30
0.0
 10
-52.28071121558093
 20
1.2178052384150435
 30
0.0
 10
-52.1754954601977
 20
0.8932023235497817
 30
0.0
 10
-52.122887172599064
 20
0.5227076526690522
 30
0.0
 10
-52.122887172599064
 20
0.1063210208193417
 30
0.0
 10
-52.122887172599064
 20
-0.2988726897639986
 30
0.0
 10
-52.17437641401528
 20
-0.6648901511474772
 30
0.0
 10
-52.277353257219616
 20
-0.9917313633310947
 30
0.0
 10
-52.380330920237995
 20
-1.3185726779914686
 30
0.0
 10
-52.52920013431834
 20
-1.5928059100067158
 30
0.0
 10
-52.72396171927468
 20
-1.8144311618535929
 30
0.0
 10
-52.92767813313256
 20
-2.0472495911587316
 30
0.0
 10
-53.16553324378778
 20
-2.2190651443922094
 30
0.0
 10
-53.4375278710544
 20
-2.329877770315648
 30
0.0
 10
-53.70952249832102
 20
-2.440690393036688
 30
0.0
 10
-54.008940725476414
 20
-2.4960967092008057
 30
0.0
 10
-54.335781732706515
 20
-2.4960967092008057
 30
0.0
 10
-54.67381648101704
 20
-2.4960967092008057
 30
0.0
 10
-54.97827164571441
 20
-2.4390114138560297
 30
0.0
 10
-55.24914640698456
 20
-2.3248408327736736
 30
0.0
 10
-55.520021988068756
 20
-2.2106702484889187
 30
0.0
 10
-55.752840161182
 20
-2.040533674436099
 30
0.0
 10
-55.947601746138346
 20
-1.8144311618535929
 30
0.0
 10
-56.14012482882283
 20
-1.5928059100067158
 30
0.0
 10
-56.287874996720745
 20
-1.3196920316041596
 30
0.0
 10
-56.3908522498321
 20
-0.995089321692411
 30
0.0
 10
-56.49382991285049
 20
-0.6704868167341755
 30
0.0
 10
-56.54531833445265
 20
-0.3033498992612489
 30
0.0
 10
-56.54531833445265
 20
0.1063210208193417
 30
0.0
 10
-56.54531833445265
 20
0.5271850671198162
 30
0.0
 10
-56.49326997985225
 20
0.8965604868646113
 30
0.0
 10
-56.38917327065145
 20
1.2144472800537272
 30
0.0
 10
-56.28507697135767
 20
1.5323338682893302
 30
0.0
 10
-56.13676728036854
 20
1.8054479516453994
 30
0.0
 10
-55.94424378777703
 20
2.033789120214909
 30
0.0
 10
-55.75172111499958
 20
2.2554143720617863
 30
0.0
 10
-55.51946205507052
 20
2.423871813218813
 30
0.0
 10
-55.2474674278039
 20
2.5391618535930154
 30
0.0
 10
-54.975472800537275
 20
2.6544514840601914
 30
0.0
 10
-54.671577568838146
 20
2.712096709200806
 30
0.0
 10
-54.335781732706515
 20
2.712096709200806
 30
0.0
 10
-53.99550889203115
 20
2.712096709200806
 30
0.0
 10
-53.68881563496894
 20
2.652772504879533
 30
0.0
 10
-53.415701141705846
 20
2.534124916051041
 30
0.0
 10
-53.1425874682568
 20
2.4154769173155217
 30
0.0
 10
-52.912007387508396
 20
2.2486984553391536
 30
0.0
 10
-52.72396171927468
 20
2.033789120214909
 30
0.0
  0
SPLINE
  5
32
330
17
100
AcDbEntity
  8
ENGRAVING
100
AcDbSpline
 70
1
 71
3
 72
41
 73
37
 74
0
 40
0.0
 40
0.0
 40
0.0
 40
0.0
 40
1.0
 40
1.0
 40
1.0
 40
2.0
 40
2.0
 40
2.0
 40
3.0
 40
3.0
 40
3.0
 40
4.0
 40
4.0
 40
4.0
 40
5.0
 40
5.0
 40
5.0
 40
6.0
 40
6.0
 40
6.0
 40
7.0
 40
7.0
 40
7.0
 40
8.0
 40
8.0
 40
8.0
 40
9.0
 40
9.0
 40
9.0
 40
10.0
 40
10.0
 40
10.0
 40
11.0
 40
11.0
 40
11.0
 40
12.0
 40
12.0
 40
12.0
 40
12.0
 10
-52.81462659503022
 20
0.1063210208193417
 30
0.0
 10
-52.81462659503022
 20
0.4376394425002097
 30
0.0
 10
-52.850445090822284
 20
0.7309012760241775
 30
0.0
 10
-52.92208126259234
 20
0.9861061114842178
 30
0.0
 10
-52.993718254176464
 20
1.241310946944258
 30
0.0
 10
-53.094457005015954
 20
1.452862323707186
 30
0.0
 10
-53.22429751511081
 20
1.6207602417730018
 30
0.0
 10
-53.35637775719862
 20
1.7931351643825555
 30
0.0
 10
-53.51588077936115
 20
1.9224165612932338
 30
0.0
 10
-53.70280658159839
 20
2.0086044325050367
 30
0.0
 10
-53.88973320364968
 20
2.094791893809814
 30
0.0
 10
-54.09960560123195
 20
2.137885829415715
 30
0.0
 10
-54.3324237743452
 20
2.137885829415715
 30
0.0
 10
-54.574196776359976
 20
2.137885829415715
 30
0.0
 10
-54.78518863003169
 20
2.095911349899261
 30
0.0
 10
-54.96539892545333
 20
2.0119623908663535
 30
0.0
 10
-55.14560963078198
 20
1.928013431833445
 30
0.0
 10
-55.30511265294451
 20
1.7976125788333195
 30
0.0
 10
-55.443907991940904
 20
1.6207602417730018
 30
0.0
 10
-55.57598782412168
 20
1.4506234115282908
 30
0.0
 10
-55.677286098052384
 20
1.236833532493494
 30
0.0
 10
-55.74780322364003
 20
0.9793901947615851
 30
0.0
 10
-55.81832034922767
 20
0.7219466520761628
 30
0.0
 10
-55.85357891202149
 20
0.4309235257775774
 30
0.0
 10
-55.85357891202149
 20
0.1063210208193417
 30
0.0
 10
-55.85357891202149
 20
-0.5496003157267881
 30
0.0
 10
-55.715902619207526
 20
-1.051614988266821
 30
0.0
 10
-55.440550033579584
 20
-1.3997233042310273
 30
0.0
 10
-55.16519744795165
 20
-1.747831671433612
 30
0.0
 10
-54.79582202820685
 20
-1.9218858294157153
 30
0.0
 10
-54.3324237743452
 20
-1.9218858294157153
 30
0.0
 10
-53.86902552048355
 20
-1.9218858294157153
 30
0.0
 10
-53.50021003373699
 20
-1.747831671433612
 30
0.0
 10
-53.22597649429147
 20
-1.3997233042310273
 30
0.0
 10
-52.95174377466001
 20
-1.051614988266821
 30
0.0
 10
-52.81462659503022
 20
-0.5496003157267881
 30
0.0
 10
-52.81462659503022
 20
0.1063210208193417
 30
0.0
  0
SPLINE
  5
33
330
17
100
AcDbEntity
  8
ENGRAVING
100
AcDbSpline
 70
1
 71
3
 72
113
 73
109
 74
0
 40
0.0
 40
0.0
 40
0.0
 40
0.0
 40
1.0
 40
1.0
 40
1.0
 40
2.0
 40
2.0
 40
2.0
 40
3.0
 40
3.0
 40
3.0
 40
4.0
 40
4.0
 40
4.0
 40
5.0
 40
5.0
 40
5.0
 40
6.0
 40
6.0
 40
6.0
 40
7.0
 40
7.0
 40
7.0
 40
8.0
 40
8.0
 40
8.0
 40
9.0
 40
9.0
 40
9.0
 40
10.0
 40
10.0
 40
10.0
 40
11.0
 40
11.0
 40
11.0
 40
12.0
 40
12.0
 40
12.0
 40
13.0
 40
13.0
 40
13.0
 40
14.0
 40
14.0
 40
14.0
 40
15.0
 40
15.0
 40
15.0
 40
16.0
 40
16.0
 40
16.0
 40
17.0
 40
17.0
 40
17.0
 40
18.0
 40
18.0
 40
18.0
 40
19.0
 40
19.0
 40
19.0
 40
20.0
 40
20.0
 40
20.0
 40
21.0
 40
21.0
 40
21.0
 40
22.0
 40
22.0
 40
22.0
 40
23.0
 40
23.0
 40
23.0
 40
24.0
 40
24.0
 40
24.0
 40
25.0
 40
25.0
 40
25.0
 40
26.0
 40
26.0
 40
26.0
 40
27.0
 40
27.0
 40
27.0
 40
28.0
 40
28.0
 40
28.0
 40
29.0
 40
29.0
 40
29.0
 40
30.0
 40
30.0
 40
30.0
 40
31.0
 40
31.0
 40
31.0
 40
32.0
 40
32.0
 40
32.0
 40
33.0
 40
33.0
 40
33.0
 40
34.0
 40
34.0
 40
34.0
 40
35.0
 40
35.0
 40
35.0
 40
36.0
 40
36.0
 40
36.0
 40
36.0
 10
-49.439878441907325
 20
-2.4826648757555407
 30
0.0
 10
-49.76672026895148
 20
-2.482664869350743
 30
0.0
 10
-50.06725754228929
 20
-2.4278182139809776
 30
0.0
 10
-50.341490261920754
 20
-2.318124916051041
 30
0.0
 10
-50.61572462118032
 20
-2.208431618121104
 30
0.0
 10
-50.85246068565313
 20
-2.0450109864101065
 30
0.0
 10
-51.05169845533916
 20
-1.827862995298858
 30
0.0
 10
-51.250937864653295
 20
-1.6107150554259886
 30
0.0
 10
-51.40540394927385
 20
-1.3398397817720575
 30
0.0
 10
-51.515096709200805
 20
-1.0152370718603088
 30
0.0
 10
-51.624790288941824
 20
-0.6906345669020735
 30
0.0
 10
-51.6796366689053
 20
-0.31790118879596196
 30
0.0
 10
-51.6796366689053
 20
0.10296306245802578
 30
0.0
 10
-51.6796366689053
 20
0.5215884015331178
 30
0.0
 10
-51.626469268122484
 20
0.886486406827149
 30
0.0
 10
-51.52013364674278
 20
1.1976574882471458
 30
0.0
 10
-51.41379884517713
 20
1.508828159760116
 30
0.0
 10
-51.258772827558346
 20
1.77970333093729
 30
0.0
 10
-51.05505641370047
 20
2.010283411685695
 30
0.0
 10
-50.855817824200386
 20
2.234147165804441
 30
0.0
 10
-50.61964169272582
 20
2.4048435191403628
 30
0.0
 10
-50.34652719946273
 20
2.522372061786434
 30
0.0
 10
-50.073414345827736
 20
2.6399006044325053
 30
0.0
 10
-49.76784013494795
 20
2.6986648757555405
 30
0.0
 10
-49.42980456682337
 20
2.6986648757555405
 30
0.0
 10
-49.26190664875756
 20
2.6986648757555405
 30
0.0
 10
-49.10464253877393
 20
2.6863520884926966
 30
0.0
 10
-48.95801141705843
 20
2.661727333781061
 30
0.0
 10
-48.81138111515699
 20
2.637102169162399
 30
0.0
 10
-48.67538380152368
 20
2.605761087821105
 30
0.0
 10
-48.550019476158496
 20
2.5677044996642038
 30
0.0
 10
-48.44256480859637
 20
2.534124916051041
 30
0.0
 10
-48.33231211567117
 20
2.4921504365345872
 30
0.0
 10
-48.21926057756884
 20
2.4417810611148423
 30
0.0
 10
-48.10620985928056
 20
2.3914116856950973
 30
0.0
 10
-47.99483730035888
 20
2.336005372733378
 30
0.0
 10
-47.88514372061786
 20
2.2755621222296845
 30
0.0
 10
-47.88514372061786
 20
2.2755621222296845
 30
0.0
 10
-47.88514372061786
 20
1.4730100738750838
 30
0.0
 10
-47.88514372061786
 20
1.4730100738750838
 30
0.0
 10
-47.88514372061786
 20
1.4730100738750838
 30
0.0
 10
-47.93887105439893
 20
1.4730100738750838
 30
0.0
 10
-47.93887105439893
 20
1.4730100738750838
 30
0.0
 10
-47.99707621253778
 20
1.526737407656145
 30
0.0
 10
-48.07207034266916
 20
1.5916576627035761
 30
0.0
 10
-48.163854264607124
 20
1.6677716588314309
 30
0.0
 10
-48.25563900635913
 20
1.7438852450522586
 30
0.0
 10
-48.36757067846499
 20
1.8188797850906648
 30
0.0
 10
-48.499650100738755
 20
1.8927548690396239
 30
0.0
 10
-48.62725251846877
 20
1.962152538537819
 30
0.0
 10
-48.766048677279215
 20
2.0192378306801966
 30
0.0
 10
-48.916036937541975
 20
2.064010745466756
 30
0.0
 10
-49.066026837432844
 20
2.1087832503462898
 30
0.0
 10
-49.23952080622482
 20
2.1311699126930823
 30
0.0
 10
-49.436520483546005
 20
2.1311699126930823
 30
0.0
 10
-49.64919172630541
 20
2.1311699126930823
 30
0.0
 10
-49.85066922798438
 20
2.08751645399597
 30
0.0
 10
-50.040952988582944
 20
2.0002095366017465
 30
0.0
 10
-50.23123756899555
 20
1.912902619207522
 30
0.0
 10
-50.39801644087895
 20
1.784180745388054
 30
0.0
 10
-50.54128878441907
 20
1.614044325050369
 30
0.0
 10
-50.68232385540841
 20
1.443907494805658
 30
0.0
 10
-50.79201743514943
 20
1.2301176157708613
 30
0.0
 10
-50.87036870382808
 20
0.9726742780389523
 30
0.0
 10
-50.948721612134825
 20
0.7152307353535301
 30
0.0
 10
-50.98789724647415
 20
0.42532706514439234
 30
0.0
 10
-50.98789724647415
 20
0.10296306245802578
 30
0.0
 10
-50.98789724647415
 20
-0.23954869039623894
 30
0.0
 10
-50.94648269995593
 20
-0.5344895031008645
 30
0.0
 10
-50.863652787105444
 20
-0.7818589657488246
 30
0.0
 10
-50.78082369406901
 20
-1.029228633350298
 30
0.0
 10
-50.667772155966674
 20
-1.2379816773198768
 30
0.0
 10
-50.52449899261249
 20
-1.4081182001343182
 30
0.0
 10
-50.385703653616105
 20
-1.573777513451509
 30
0.0
 10
-50.22228274009402
 20
-1.6985816496265582
 30
0.0
 10
-50.03423707186031
 20
-1.782530557421088
 30
0.0
 10
-49.8461914036266
 20
-1.866479516453996
 30
0.0
 10
-49.646952814126514
 20
-1.9084539959704498
 30
0.0
 10
-49.436520483546005
 20
-1.9084539959704498
 30
0.0
 10
-49.243997810768555
 20
-1.9084539959704498
 30
0.0
 10
-49.06602601761879
 20
-1.8849482874412358
 30
0.0
 10
-48.90260510409671
 20
-1.8379368703828072
 30
0.0
 10
-48.73918501038868
 20
-1.7909254533243786
 30
0.0
 10
-48.593673754669666
 20
-1.7316015564333758
 30
0.0
 10
-48.46607051712559
 20
-1.6599650772330423
 30
0.0
 10
-48.34294592375336
 20
-1.5905673052580904
 30
0.0
 10
-48.23661030237366
 20
-1.5194905541024806
 30
0.0
 10
-48.14706447280054
 20
-1.446734721289456
 30
0.0
 10
-48.05751946304147
 20
-1.3739789909531879
 30
0.0
 10
-47.98700233745383
 20
-1.3118567612688359
 30
0.0
 10
-47.93551309603761
 20
-1.2603680322364001
 30
0.0
 10
-47.93551309603761
 20
-1.2603680322364001
 30
0.0
 10
-47.88514372061786
 20
-1.2603680322364001
 30
0.0
 10
-47.88514372061786
 20
-1.2603680322364001
 30
0.0
 10
-47.88514372061786
 20
-1.2603680322364001
 30
0.0
 10
-47.88514372061786
 20
-2.0528462055070515
 30
0.0
 10
-47.88514372061786
 20
-2.0528462055070515
 30
0.0
 10
-47.99483730035888
 20
-2.1043349089202983
 30
0.0
 10
-48.098374076561456
 20
-2.153584956346541
 30
0.0
 10
-48.195754869039625
 20
-2.2005963734049696
 30
0.0
 10
-48.293135661517795
 20
-2.247607790463398
 30
0.0
 10
-48.41122413716211
 20
-2.2934998923379193
 30
0.0
 10
-48.550019476158496
 20
-2.3382726662189386
 30
0.0
 10
-48.69553155169157
 20
-2.385284081676168
 30
0.0
 10
-48.83040981914246
 20
-2.421102303663142
 30
0.0
 10
-48.954653458697116
 20
-2.445727333781061
 30
0.0
 10
-49.07889873787987
 20
-2.4703523574941824
 30
0.0
 10
-49.24064067222129
 20
-2.482664869350743
 30
0.0
 10
-49.439878441907325
 20
-2.4826648757555407
 30
0.0
  0
SPLINE
  5
34
330
17
100
AcDbEntity
  8
ENGRAVING
100
AcDbSpline
 70
1
 71
3
 72
113
 73
109
 74
0
 40
0.0
 40
0.0
 40
0.0
 40
0.0
 40
1.0
 40
1.0
 40
1.0
 40
2.0
 40
2.0
 40
2.0
 40
3.0
 40
3.0
 40
3.0
 40
4.0
 40
4.0
 40
4.0
 40
5.0
 40
5.0
 40
5.0
 40
6.0
 40
6.0
 40
6.0
 40
7.0
 40
7.0
 40
7.0
 40
8.0
 40
8.0
 40
8.0
 40
9.0
 40
9.0
 40
9.0
 40
10.0
 40
10.0
 40
10.0
 40
11.0
 40
11.0
 40
11.0
 40
12.0
 40
12.0
 40
12.0
 40
13.0
 40
13.0
 40
13.0
 40
14.0
 40
14.0
 40
14.0
 40
15.0
 40
15.0
 40
15.0
 40
16.0
 40
16.0
 40
16.0
 40
17.0
 40
17.0
 40
17.0
 40
18.0
 40
18.0
 40
18.0
 40
19.0
 40
19.0
 40
19.0
 40
20.0
 40
20.0
 40
20.0
 40
21.0
 40
21.0
 40
21.0
 40
22.0
 40
22.0
 40
22.0
 40
23.0
 40
23.0
 40
23.0
 40
24.0
 40
24.0
 40
24.0
 40
25.0
 40
25.0
 40
25.0
 40
26.0
 40
26.0
 40
26.0
 40
27.0
 40
27.0
 40
27.0
 40
28.0
 40
28.0
 40
28.0
 40
29.0
 40
29.0
 40
29.0
 40
30.0
 40
30.0
 40
30.0
 40
31.0
 40
31.0
 40
31.0
 40
32.0
 40
32.0
 40
32.0
 40
33.0
 40
33.0
 40
33.0
 40
34.0
 40
34.0
 40
34.0
 40
35.0
 40
35.0
 40
35.0
 40
36.0
 40
36.0
 40
36.0
 40
36.0
 10
-45.87036870382808
 20
-2.4826648757555407
 30
0.0
 10
-46.233028206850236
 20
-2.482664869350743
 30
0.0
 10
-46.54140126290716
 20
-2.4451676665819115
 30
0.0
 10
-46.79548623237072
 20
-2.370173270651444
 30
0.0
 10
-47.04957284146239
 20
-2.295178877923375
 30
0.0
 10
-47.288546998300035
 20
-2.202835016582379
 30
0.0
 10
-47.51241034251176
 20
-2.0931417058428474
 30
0.0
 10
-47.51241034251176
 20
-2.0931417058428474
 30
0.0
 10
-47.51241034251176
 20
-1.2603680322364001
 30
0.0
 10
-47.51241034251176
 20
-1.2603680322364001
 30
0.0
 10
-47.51241034251176
 20
-1.2603680322364001
 30
0.0
 10
-47.46539892545333
 20
-1.2603680322364001
 30
0.0
 10
-47.46539892545333
 20
-1.2603680322364001
 30
0.0
 10
-47.2460134055994
 20
-1.4663228458893867
 30
0.0
 10
-46.99752448686199
 20
-1.625825868051912
 30
0.0
 10
-46.719932169241105
 20
-1.7388770987239757
 30
0.0
 10
-46.44234149124832
 20
-1.8519283806344178
 30
0.0
 10
-46.17482468833949
 20
-1.9084539959704498
 30
0.0
 10
-45.917380120886506
 20
-1.9084539959704498
 30
0.0
 10
-45.55024443313466
 20
-1.9084539959704498
 30
0.0
 10
-45.272652115513765
 20
-1.83178063046652
 30
0.0
 10
-45.08460644728005
 20
-1.678433848220282
 30
0.0
 10
-44.89656077904634
 20
-1.5250871172124223
 30
0.0
 10
-44.80253794492948
 20
-1.323049989965476
 30
0.0
 10
-44.80253794492948
 20
-1.0723223640026862
 30
0.0
 10
-44.80253794492948
 20
-0.8730835695490891
 30
0.0
 10
-44.85178909398086
 20
-0.7107822145932148
 30
0.0
 10
-44.9502881128274
 20
-0.58541840161182
 30
0.0
 10
-45.04878877130205
 20
-0.46005469110718167
 30
0.0
 10
-45.20549294828744
 20
-0.3671511081262593
 30
0.0
 10
-45.42040228341169
 20
-0.30670785762256525
 30
0.0
 10
-45.57486836803224
 20
-0.2619351477895191
 30
0.0
 10
-45.715902619207526
 20
-0.22499760581503958
 30
0.0
 10
-45.84350503693754
 20
-0.1958952316991267
 30
0.0
 10
-45.97110745466756
 20
-0.16679306253672754
 30
0.0
 10
-46.131171229642376
 20
-0.12761681333686603
 30
0.0
 10
-46.32369308260578
 20
-0.07836668905305588
 30
0.0
 10
-46.49606882502938
 20
-0.033593979220009285
 30
0.0
 10
-46.650534909649934
 20
0.02349131292236839
 30
0.0
 10
-46.78709133646743
 20
0.0928891873740767
 30
0.0
 10
-46.92364940291303
 20
0.16228685687227173
 30
0.0
 10
-47.04453590392042
 20
0.2529517326278121
 30
0.0
 10
-47.14975083948959
 20
0.3648838146406983
 30
0.0
 10
-47.252729322322025
 20
0.4745769844746892
 30
0.0
 10
-47.33275957018133
 20
0.6038583813853675
 30
0.0
 10
-47.38984486232371
 20
0.7527280053727332
 30
0.0
 10
-47.44693015446609
 20
0.9015974244065856
 30
0.0
 10
-47.475472800537275
 20
1.0734130288784418
 30
0.0
 10
-47.475472800537275
 20
1.2681746138347885
 30
0.0
 10
-47.475472800537275
 20
1.6733681194646155
 30
0.0
 10
-47.31764875755541
 20
2.013081437048774
 30
0.0
 10
-47.002000671591674
 20
2.2873149764942915
 30
0.0
 10
-46.686352585627944
 20
2.5615481060327823
 30
0.0
 10
-46.283397582269984
 20
2.6986648757555405
 30
0.0
 10
-45.793135661517795
 20
2.6986648757555405
 30
0.0
 10
-45.51330689116018
 20
2.6986648757555405
 30
0.0
 10
-45.24858729380037
 20
2.6706817527755624
 30
0.0
 10
-44.99897850906649
 20
2.614715916722633
 30
0.0
 10
-44.74937136396071
 20
2.5587496707626767
 30
0.0
 10
-44.51823135021407
 20
2.479278126180532
 30
0.0
 10
-44.30556010745467
 20
2.3763008730691744
 30
0.0
 10
-44.30556010745467
 20
2.3763008730691744
 30
0.0
 10
-44.30556010745467
 20
1.5804647414372064
 30
0.0
 10
-44.30556010745467
 20
1.5804647414372064
 30
0.0
 10
-44.30556010745467
 20
1.5804647414372064
 30
0.0
 10
-44.355929482874416
 20
1.5804647414372064
 30
0.0
 10
-44.355929482874416
 20
1.5804647414372064
 30
0.0
 10
-44.51487339185276
 20
1.7259759971562292
 30
0.0
 10
-44.718588985896574
 20
1.8530188917950388
 30
0.0
 10
-44.96707790463398
 20
1.9615930154466086
 30
0.0
 10
-45.21556682337139
 20
2.070166729191152
 30
0.0
 10
-45.476369349185696
 20
2.1244539959704496
 30
0.0
 10
-45.74948220282069
 20
2.1244539959704496
 30
0.0
 10
-46.05841437206179
 20
2.1244539959704496
 30
0.0
 10
-46.30802315679567
 20
2.052257891202149
 30
0.0
 10
-46.498306917394224
 20
1.9078656816655477
 30
0.0
 10
-46.68859231762089
 20
1.7634734721289456
 30
0.0
 10
-46.78373337810611
 20
1.5737488247145737
 30
0.0
 10
-46.78373337810611
 20
1.3386917394224311
 30
0.0
 10
-46.78373337810611
 20
1.1260209065700555
 30
0.0
 10
-46.72776795196021
 20
0.9570037373683049
 30
0.0
 10
-46.6158354600403
 20
0.831640026863667
 30
0.0
 10
-46.50390460774849
 20
0.7062761114055154
 30
0.0
 10
-46.34160274040883
 20
0.6144919845140406
 30
0.0
 10
-46.12893149764943
 20
0.5562874412357286
 30
0.0
 10
-45.98789724647415
 20
0.5182304431718014
 30
0.0
 10
-45.81552314367865
 20
0.4751365075659
 30
0.0
 10
-45.611805910006716
 20
0.4270060443250503
 30
0.0
 10
-45.408090315962895
 20
0.3788751711771745
 30
0.0
 10
-45.239072531900604
 20
0.3346621893888515
 30
0.0
 10
-45.10475419744795
 20
0.29436668905305563
 30
0.0
 10
-44.76000435222885
 20
0.18915052376280217
 30
0.0
 10
-44.50815747513012
 20
0.030207229645000666
 30
0.0
 10
-44.34921356615178
 20
-0.1824633982538617
 30
0.0
 10
-44.19027129680155
 20
-0.39513423110623735
 30
0.0
 10
-44.11079852249832
 20
-0.6570549832889103
 30
0.0
 10
-44.11079852249832
 20
-0.9682256548018804
 30
0.0
 10
-44.11079852249832
 20
-1.1629872397582268
 30
0.0
 10
-44.150534909649934
 20
-1.3555102199659481
 30
0.0
 10
-44.23000604432505
 20
-1.5457944929482874
 30
0.0
 10
-44.30947881862828
 20
-1.736078817169005
 30
0.0
 10
-44.4208505577359
 20
-1.8972608185121882
 30
0.0
 10
-44.56412290127602
 20
-2.0293404969778375
 30
0.0
 10
-44.725304902619214
 20
-2.174852034507941
 30
0.0
 10
-44.90719540694258
 20
-2.286783982020084
 30
0.0
 10
-45.109791134989926
 20
-2.3651363331094695
 30
0.0
 10
-45.312388502665385
 20
-2.443488687401253
 30
0.0
 10
-45.56591435894477
 20
-2.482664869350743
 30
0.0
 10
-45.87036870382808
 20
-2.4826648757555407
 30
0.0
  0
ENDSEC
  0
SECTION
  2
OBJECTS
  0
DICTIONARY
  5
A
330
0
100
AcDbDictionary
281
1
  3
ACAD_COLOR
350
B
  3
ACAD_GROUP
350
C
  3
ACAD_LAYOUT
350
D
  3
ACAD_MATERIAL
350
E
  3
ACAD_MLEADERSTYLE
350
F
  3
ACAD_MLINESTYLE
350
10
  3
ACAD_PLOTSETTINGS
350
11
  3
ACAD_PLOTSTYLENAME
350
12
  3
ACAD_SCALELIST
350
14
  3
ACAD_TABLESTYLE
350
15
  3
ACAD_VISUALSTYLE
350
16
  3
EZDXF_META
350
2D
  0
DICTIONARY
  5
B
330
A
100
AcDbDictionary
281
1
  0
DICTIONARY
  5
C
330
A
100
AcDbDictionary
281
1
  0
DICTIONARY
  5
D
330
A
100
AcDbDictionary
281
1
  3
Model
350
1A
  3
Layout1
350
1E
  0
DICTIONARY
  5
E
330
A
100
AcDbDictionary
281
1
  3
ByBlock
350
1F
  3
ByLayer
350
20
  3
Global
350
21
  0
DICTIONARY
  5
F
330
A
100
AcDbDictionary
281
1
  3
Standard
350
2C
  0
DICTIONARY
  5
10
330
A
100
AcDbDictionary
281
1
  3
Standard
350
22
  0
DICTIONARY
  5
11
330
A
100
AcDbDictionary
281
1
  0
ACDBDICTIONARYWDFLT
  5
12
330
A
100
AcDbDictionary
281
1
  3
Normal
350
13
100
AcDbDictionaryWithDefault
340
13
  0
ACDBPLACEHOLDER
  5
13
330
12
  0
DICTIONARY
  5
14
330
A
100
AcDbDictionary
281
1
  0
DICTIONARY
  5
15
330
A
100
AcDbDictionary
281
1
  0
DICTIONARY
  5
16
330
A
100
AcDbDictionary
281
1
  0
LAYOUT
  5
1A
330
D
100
AcDbPlotSettings
  1

  4
A3
  6

 40
7.5
 41
20.0
 42
7.5
 43
20.0
 44
420.0
 45
297.0
 46
0.0
 47
0.0
 48
0.0
 49
0.0
140
0.0
141
0.0
142
1.0
143
1.0
 70
1024
 72
1
 73
0
 74
5
  7

 75
16
 76
0
 77
2
 78
300
147
1.0
148
0.0
149
0.0
100
AcDbLayout
  1
Model
 70
1
 71
0
 10
0.0
 20
0.0
 11
420.0
 21
297.0
 12
0.0
 22
0.0
 32
0.0
 14
1e+20
 24
1e+20
 34
1e+20
 15
-1e+20
 25
-1e+20
 35
-1e+20
146
0.0
 13
0.0
 23
0.0
 33
0.0
 16
1.0
 26
0.0
 36
0.0
 17
0.0
 27
1.0
 37
0.0
 76
1
330
17
  0
LAYOUT
  5
1E
330
D
100
AcDbPlotSettings
  1

  4
A3
  6

 40
7.5
 41
20.0
 42
7.5
 43
20.0
 44
420.0
 45
297.0
 46
0.0
 47
0.0
 48
0.0
 49
0.0
140
0.0
141
0.0
142
1.0
143
1.0
 70
0
 72
1
 73
0
 74
5
  7

 75
16
 76
0
 77
2
 78
300
147
1.0
148
0.0
149
0.0
100
AcDbLayout
  1
Layout1
 70
1
 71
1
 10
0.0
 20
0.0
 11
420.0
 21
297.0
 12
0.0
 22
0.0
 32
0.0
 14
1e+20
 24
1e+20
 34
1e+20
 15
-1e+20
 25
-1e+20
 35
-1e+20
146
0.0
 13
0.0
 23
0.0
 33
0.0
 16
1.0
 26
0.0
 36
0.0
 17
0.0
 27
1.0
 37
0.0
 76
1
330
1B
  0
MATERIAL
  5
1F
102
{ACAD_REACTORS
330
E
102
}
330
E
100
AcDbMaterial
  1
ByBlock
  2

 70
0
 40
1.0
 71
1
 41
1.0
 91
-1023410177
 42
1.0
 72
1
  3

 73
1
 74
1
 75
1
 44
0.5
 73
0
 45
1.0
 46
1.0
 77
1
  4

 78
1
 79
1
170
1
 48
1.0
171
1
  6

172
1
173
1
174
1
140
1.0
141
1.0
175
1
  7

176
1
177
1
178
1
143
1.0
179
1
  8

270
1
271
1
272
1
145
1.0
146
1.0
273
1
  9

274
1
275
1
276
1
 42
1.0
 72
1
  3

 73
1
 74
1
 75
1
 94
63
  0
MATERIAL
  5
20
102
{ACAD_REACTORS
330
E
102
}
330
E
100
AcDbMaterial
  1
ByLayer
  2

 70
0
 40
1.0
 71
1
 41
1.0
 91
-1023410177
 42
1.0
 72
1
  3

 73
1
 74
1
 75
1
 44
0.5
 73
0
 45
1.0
 46
1.0
 77
1
  4

 78
1
 79
1
170
1
 48
1.0
171
1
  6

172
1
173
1
174
1
140
1.0
141
1.0
175
1
  7

176
1
177
1
178
1
143
1.0
179
1
  8

270
1
271
1
272
1
145
1.0
146
1.0
273
1
  9

274
1
275
1
276
1
 42
1.0
 72
1
  3

 73
1
 74
1
 75
1
 94
63
  0
MATERIAL
  5
21
102
{ACAD_REACTORS
330
E
102
}
330
E
100
AcDbMaterial
  1
Global
  2

 70
0
 40
1.0
 71
1
 41
1.0
 91
-1023410177
 42
1.0
 72
1
  3

 73
1
 74
1
 75
1
 44
0.5
 73
0
 45
1.0
 46
1.0
 77
1
  4

 78
1
 79
1
170
1
 48
1.0
171
1
  6

172
1
173
1
174
1
140
1.0
141
1.0
175
1
  7

176
1
177
1
178
1
143
1.0
179
1
  8

270
1
271
1
272
1
145
1.0
146
1.0
273
1
  9

274
1
275
1
276
1
 42
1.0
 72
1
  3

 73
1
 74
1
 75
1
 94
63
  0
MLINESTYLE
  5
22
102
{ACAD_REACTORS
330
10
102
}
330
10
100
AcDbMlineStyle
  2
Standard
 70
0
  3

 62
256
 51
90.0
 52
90.0
 71
2
 49
0.5
 62
256
  6
BYLAYER
 49
-0.5
 62
256
  6
BYLAYER
  0
MLEADERSTYLE
  5
2C
102
{ACAD_REACTORS
330
F
102
}
330
F
100
AcDbMLeaderStyle
179
2
170
2
171
1
172
0
 90
2
 40
0.0
 41
0.0
173
1
 91
-1056964608
 92
-2
290
1
 42
2.0
291
1
 43
8.0
  3
Standard
 44
4.0
300

342
29
174
1
175
1
176
0
178
1
 93
-1056964608
 45
4.0
292
0
297
0
 46
4.0
 94
-1056964608
 47
1.0
 49
1.0
140
1.0
294
1
141
0.0
177
0
142
1.0
295
0
296
0
143
3.75
271
0
272
9
273
9
  0
DICTIONARY
  5
2D
330
A
100
AcDbDictionary
280
1
281
1
  3
CREATED_BY_EZDXF
350
2E
  3
WRITTEN_BY_EZDXF
350
37
  0
DICTIONARYVAR
  5
2E
330
2D
100
DictionaryVariables
280
0
  1
1.4.4 @ 2026-06-29T04:49:49.975377+00:00
  0
DICTIONARYVAR
  5
37
330
2D
100
DictionaryVariables
280
0
  1
1.4.4 @ 2026-06-29T04:49:49.978464+00:00
  0
ENDSEC
  0
EOF
