  0
SECTION
  2
HEADER
  9
$ACADVER
  1
AC1015
  9
$ACADMAINTVER
 70
6
  9
$DWGCODEPAGE
  3
ANSI_1252
  9
$INSBASE
 10
0.0
 20
0.0
 30
0.0
  9
$EXTMIN
 10
1e+20
 20
1e+20
 30
1e+20
  9
$EXTMAX
 10
-1e+20
 20
-1e+20
 30
-1e+20
  9
$LIMMIN
 10
0.0
 20
0.0
  9
$LIMMAX
 10
420.0
 20
297.0
  9
$ORTHOMODE
 70
0
  9
$REGENMODE
 70
1
  9
$FILLMODE
 70
1
  9
$QTEXTMODE
 70
0
  9
$MIRRTEXT
 70
1
  9
$LTSCALE
 40
1.0
  9
$ATTMODE
 70
1
  9
$TEXTSIZE
 40
2.5
  9
$TRACEWID
 40
1.0
  9
$TEXTSTYLE
  7
Standard
  9
$CLAYER
  8
0
  9
$CELTYPE
  6
ByLayer
  9
$CECOLOR
 62
256
  9
$CELTSCALE
 40
1.0
  9
$DISPSILH
 70
0
  9
$DIMSCALE
 40
1.0
  9
$DIMASZ
 40
2.5
  9
$DIMEXO
 40
0.625
  9
$DIMDLI
 40
3.75
  9
$DIMRND
 40
0.0
  9
$DIMDLE
 40
0.0
  9
$DIMEXE
 40
1.25
  9
$DIMTP
 40
0.0
  9
$DIMTM
 40
0.0
  9
$DIMTXT
 40
2.5
  9
$DIMCEN
 40
2.5
  9
$DIMTSZ
 40
0.0
  9
$DIMTOL
 70
0
  9
$DIMLIM
 70
0
  9
$DIMTIH
 70
0
  9
$DIMTOH
 70
0
  9
$DIMSE1
 70
0
  9
$DIMSE2
 70
0
  9
$DIMTAD
 70
1
  9
$DIMZIN
 70
8
  9
$DIMBLK
  1

  9
$DIMASO
 70
1
  9
$DIMSHO
 70
1
  9
$DIMPOST
  1

  9
$DIMAPOST
  1

  9
$DIMALT
 70
0
  9
$DIMALTD
 70
3
  9
$DIMALTF
 40
0.03937007874
  9
$DIMLFAC
 40
1.0
  9
$DIMTOFL
 70
1
  9
$DIMTVP
 40
0.0
  9
$DIMTIX
 70
0
  9
$DIMSOXD
 70
0
  9
$DIMSAH
 70
0
  9
$DIMBLK1
  1

  9
$DIMBLK2
  1

  9
$DIMSTYLE
  2
ISO-25
  9
$DIMCLRD
 70
0
  9
$DIMCLRE
 70
0
  9
$DIMCLRT
 70
0
  9
$DIMTFAC
 40
1.0
  9
$DIMGAP
 40
0.625
  9
$DIMJUST
 70
0
  9
$DIMSD1
 70
0
  9
$DIMSD2
 70
0
  9
$DIMTOLJ
 70
0
  9
$DIMTZIN
 70
8
  9
$DIMALTZ
 70
0
  9
$DIMALTTZ
 70
0
  9
$DIMUPT
 70
0
  9
$DIMDEC
 70
2
  9
$DIMTDEC
 70
2
  9
$DIMALTU
 70
2
  9
$DIMALTTD
 70
3
  9
$DIMTXSTY
  7
Standard
  9
$DIMAUNIT
 70
0
  9
$DIMADEC
 70
0
  9
$DIMALTRND
 40
0.0
  9
$DIMAZIN
 70
0
  9
$DIMDSEP
 70
44
  9
$DIMATFIT
 70
3
  9
$DIMFRAC
 70
0
  9
$DIMLDRBLK
  1

  9
$DIMLUNIT
 70
2
  9
$DIMLWD
 70
-2
  9
$DIMLWE
 70
-2
  9
$DIMTMOVE
 70
0
  9
$LUNITS
 70
2
  9
$LUPREC
 70
4
  9
$SKETCHINC
 40
1.0
  9
$FILLETRAD
 40
10.0
  9
$AUNITS
 70
0
  9
$AUPREC
 70
2
  9
$MENU
  1
.
  9
$ELEVATION
 40
0.0
  9
$PELEVATION
 40
0.0
  9
$THICKNESS
 40
0.0
  9
$LIMCHECK
 70
0
  9
$CHAMFERA
 40
0.0
  9
$CHAMFERB
 40
0.0
  9
$CHAMFERC
 40
0.0
  9
$CHAMFERD
 40
0.0
  9
$SKPOLY
 70
0
  9
$TDCREATE
 40
2461202.9635532405
  9
$TDUCREATE
 40
2458532.153996898
  9
$TDUPDATE
 40
2461202.9635532405
  9
$TDUUPDATE
 40
2458532.1544311
  9
$TDINDWG
 40
0.0
  9
$TDUSRTIMER
 40
0.0
  9
$USRTIMER
 70
1
  9
$ANGBASE
 50
0.0
  9
$ANGDIR
 70
0
  9
$PDMODE
 70
0
  9
$PDSIZE
 40
0.0
  9
$PLINEWID
 40
0.0
  9
$SPLFRAME
 70
0
  9
$SPLINETYPE
 70
6
  9
$SPLINESEGS
 70
8
  9
$HANDSEED
  5
35
  9
$SURFTAB1
 70
6
  9
$SURFTAB2
 70
6
  9
$SURFTYPE
 70
6
  9
$SURFU
 70
6
  9
$SURFV
 70
6
  9
$UCSBASE
  2

  9
$UCSNAME
  2

  9
$UCSORG
 10
0.0
 20
0.0
 30
0.0
  9
$UCSXDIR
 10
1.0
 20
0.0
 30
0.0
  9
$UCSYDIR
 10
0.0
 20
1.0
 30
0.0
  9
$UCSORTHOREF
  2

  9
$UCSORTHOVIEW
 70
0
  9
$UCSORGTOP
 10
0.0
 20
0.0
 30
0.0
  9
$UCSORGBOTTOM
 10
0.0
 20
0.0
 30
0.0
  9
$UCSORGLEFT
 10
0.0
 20
0.0
 30
0.0
  9
$UCSORGRIGHT
 10
0.0
 20
0.0
 30
0.0
  9
$UCSORGFRONT
 10
0.0
 20
0.0
 30
0.0
  9
$UCSORGBACK
 10
0.0
 20
0.0
 30
0.0
  9
$PUCSBASE
  2

  9
$PUCSNAME
  2

  9
$PUCSORG
 10
0.0
 20
0.0
 30
0.0
  9
$PUCSXDIR
 10
1.0
 20
0.0
 30
0.0
  9
$PUCSYDIR
 10
0.0
 20
1.0
 30
0.0
  9
$PUCSORTHOREF
  2

  9
$PUCSORTHOVIEW
 70
0
  9
$PUCSORGTOP
 10
0.0
 20
0.0
 30
0.0
  9
$PUCSORGBOTTOM
 10
0.0
 20
0.0
 30
0.0
  9
$PUCSORGLEFT
 10
0.0
 20
0.0
 30
0.0
  9
$PUCSORGRIGHT
 10
0.0
 20
0.0
 30
0.0
  9
$PUCSORGFRONT
 10
0.0
 20
0.0
 30
0.0
  9
$PUCSORGBACK
 10
0.0
 20
0.0
 30
0.0
  9
$USERI1
 70
0
  9
$USERI2
 70
0
  9
$USERI3
 70
0
  9
$USERI4
 70
0
  9
$USERI5
 70
0
  9
$USERR1
 40
0.0
  9
$USERR2
 40
0.0
  9
$USERR3
 40
0.0
  9
$USERR4
 40
0.0
  9
$USERR5
 40
0.0
  9
$WORLDVIEW
 70
1
  9
$SHADEDGE
 70
3
  9
$SHADEDIF
 70
70
  9
$TILEMODE
 70
1
  9
$MAXACTVP
 70
64
  9
$PINSBASE
 10
0.0
 20
0.0
 30
0.0
  9
$PLIMCHECK
 70
0
  9
$PEXTMIN
 10
1e+20
 20
1e+20
 30
1e+20
  9
$PEXTMAX
 10
-1e+20
 20
-1e+20
 30
-1e+20
  9
$PLIMMIN
 10
0.0
 20
0.0
  9
$PLIMMAX
 10
420.0
 20
297.0
  9
$UNITMODE
 70
0
  9
$VISRETAIN
 70
1
  9
$PLINEGEN
 70
0
  9
$PSLTSCALE
 70
1
  9
$TREEDEPTH
 70
3020
  9
$CMLSTYLE
  2
Standard
  9
$CMLJUST
 70
0
  9
$CMLSCALE
 40
20.0
  9
$PROXYGRAPHICS
 70
1
  9
$MEASUREMENT
 70
1
  9
$CELWEIGHT
370
-1
  9
$ENDCAPS
280
0
  9
$JOINSTYLE
280
0
  9
$LWDISPLAY
290
0
  9
$INSUNITS
 70
4
  9
$HYPERLINKBASE
  1

  9
$STYLESHEET
  1

  9
$XEDIT
290
1
  9
$CEPSNTYPE
380
0
  9
$PSTYLEMODE
290
1
  9
$FINGERPRINTGUID
  2
{43CD0703-B68F-44A2-9345-2EA1710250DA}
  9
$VERSIONGUID
  2
{CAF53D26-16DB-48A7-976C-F81B47908B87}
  9
$EXTNAMES
290
1
  9
$PSVPSCALE
 40
0.0
  9
$OLESTARTUP
290
0
  0
ENDSEC
  0
SECTION
  2
CLASSES
  0
CLASS
  1
ACDBDICTIONARYWDFLT
  2
AcDbDictionaryWithDefault
  3
ObjectDBX Classes
 90
0
280
0
281
0
  0
CLASS
  1
SUN
  2
AcDbSun
  3
SCENEOE
 90
1153
280
0
281
0
  0
CLASS
  1
VISUALSTYLE
  2
AcDbVisualStyle
  3
ObjectDBX Classes
 90
4095
280
0
281
0
  0
CLASS
  1
MATERIAL
  2
AcDbMaterial
  3
ObjectDBX Classes
 90
1153
280
0
281
0
  0
CLASS
  1
SCALE
  2
AcDbScale
  3
ObjectDBX Classes
 90
1153
280
0
281
0
  0
CLASS
  1
TABLESTYLE
  2
AcDbTableStyle
  3
ObjectDBX Classes
 90
4095
280
0
281
0
  0
CLASS
  1
MLEADERSTYLE
  2
AcDbMLeaderStyle
  3
ACDB_MLEADERSTYLE_CLASS
 90
4095
280
0
281
0
  0
CLASS
  1
DICTIONARYVAR
  2
AcDbDictionaryVar
  3
ObjectDBX Classes
 90
0
280
0
281
0
  0
CLASS
  1
CELLSTYLEMAP
  2
AcDbCellStyleMap
  3
ObjectDBX Classes
 90
1152
280
0
281
0
  0
CLASS
  1
MENTALRAYRENDERSETTINGS
  2
AcDbMentalRayRenderSettings
  3
SCENEOE
 90
1024
280
0
281
0
  0
CLASS
  1
ACDBDETAILVIEWSTYLE
  2
AcDbDetailViewStyle
  3
ObjectDBX Classes
 90
1025
280
0
281
0
  0
CLASS
  1
ACDBSECTIONVIEWSTYLE
  2
AcDbSectionViewStyle
  3
ObjectDBX Classes
 90
1025
280
0
281
0
  0
CLASS
  1
RASTERVARIABLES
  2
AcDbRasterVariables
  3
ISM
 90
0
280
0
281
0
  0
CLASS
  1
ACDBPLACEHOLDER
  2
AcDbPlaceHolder
  3
ObjectDBX Classes
 90
0
280
0
281
0
  0
CLASS
  1
LAYOUT
  2
AcDbLayout
  3
ObjectDBX Classes
 90
0
280
0
281
0
  0
ENDSEC
  0
SECTION
  2
TABLES
  0
TABLE
  2
VPORT
  5
8
330
0
100
AcDbSymbolTable
 70
1
  0
VPORT
  5
23
330
8
100
AcDbSymbolTableRecord
100
AcDbViewportTableRecord
  2
*Active
 70
0
 10
0.0
 20
0.0
 11
1.0
 21
1.0
 12
0.0
 22
0.0
 13
0.0
 23
0.0
 14
0.5
 24
0.5
 15
0.5
 25
0.5
 16
0.0
 26
0.0
 36
1.0
 17
0.0
 27
0.0
 37
0.0
 40
1000.0
 41
1.34
 42
50.0
 43
0.0
 44
0.0
 50
0.0
 51
0.0
 71
0
 72
1000
 73
1
 74
3
 75
0
 76
0
 77
0
 78
0
281
0
 65
0
146
0.0
  0
ENDTAB
  0
TABLE
  2
LTYPE
  5
2
330
0
100
AcDbSymbolTable
 70
3
  0
LTYPE
  5
24
330
2
100
AcDbSymbolTableRecord
100
AcDbLinetypeTableRecord
  2
ByBlock
 70
0
  3

 72
65
 73
0
 40
0.0
  0
LTYPE
  5
25
330
2
100
AcDbSymbolTableRecord
100
AcDbLinetypeTableRecord
  2
ByLayer
 70
0
  3

 72
65
 73
0
 40
0.0
  0
LTYPE
  5
26
330
2
100
AcDbSymbolTableRecord
100
AcDbLinetypeTableRecord
  2
Continuous
 70
0
  3

 72
65
 73
0
 40
0.0
  0
ENDTAB
  0
TABLE
  2
LAYER
  5
1
330
0
100
AcDbSymbolTable
 70
2
  0
LAYER
  5
27
330
1
100
AcDbSymbolTableRecord
100
AcDbLayerTableRecord
  2
0
 70
0
 62
7
  6
Continuous
370
-3
390
13
  0
LAYER
  5
28
330
1
100
AcDbSymbolTableRecord
100
AcDbLayerTableRecord
  2
Defpoints
 70
0
 62
7
  6
Continuous
290
0
370
-3
390
13
  0
ENDTAB
  0
TABLE
  2
STYLE
  5
5
330
0
100
AcDbSymbolTable
 70
1
  0
STYLE
  5
29
330
5
100
AcDbSymbolTableRecord
100
AcDbTextStyleTableRecord
  2
Standard
 70
0
 40
0.0
 41
1.0
 50
0.0
 71
0
 42
2.5
  3
txt
  4

  0
ENDTAB
  0
TABLE
  2
VIEW
  5
7
330
0
100
AcDbSymbolTable
 70
0
  0
ENDTAB
  0
TABLE
  2
UCS
  5
6
330
0
100
AcDbSymbolTable
 70
0
  0
ENDTAB
  0
TABLE
  2
APPID
  5
3
330
0
100
AcDbSymbolTable
 70
3
  0
APPID
  5
2A
330
3
100
AcDbSymbolTableRecord
100
AcDbRegAppTableRecord
  2
ACAD
 70
0
  0
APPID
  5
32
330
3
100
AcDbSymbolTableRecord
100
AcDbRegAppTableRecord
  2
HATCHBACKGROUNDCOLOR
 70
0
  0
APPID
  5
33
330
3
100
AcDbSymbolTableRecord
100
AcDbRegAppTableRecord
  2
EZDXF
 70
0
  0
ENDTAB
  0
TABLE
  2
DIMSTYLE
  5
4
330
0
100
AcDbSymbolTable
 70
1
100
AcDbDimStyleTable
  0
DIMSTYLE
105
2B
330
4
100
AcDbSymbolTableRecord
100
AcDbDimStyleTableRecord
  2
Standard
 70
0
  3

  4

 40
1.0
 41
2.5
 42
0.625
 43
3.75
 44
1.25
 45
0.0
 46
0.0
 47
0.0
 48
0.0
140
2.5
141
2.5
142
0.0
143
0.03937007874
144
1.0
145
0.0
146
1.0
147
0.625
148
0.0
 71
0
 72
0
 73
0
 74
0
 75
0
 76
0
 77
1
 78
8
 79
3
170
0
171
3
172
1
173
0
174
0
175
0
176
0
177
0
178
0
179
2
271
2
272
2
273
2
274
3
275
0
276
0
277
2
278
44
279
0
280
0
281
0
282
0
283
0
284
8
285
0
286
0
288
0
289
3
371
-2
372
-2
  0
ENDTAB
  0
TABLE
  2
BLOCK_RECORD
  5
9
330
0
100
AcDbSymbolTable
 70
2
  0
BLOCK_RECORD
  5
17
330
9
100
AcDbSymbolTableRecord
100
AcDbBlockTableRecord
  2
*Model_Space
340
1A
  0
BLOCK_RECORD
  5
1B
330
9
100
AcDbSymbolTableRecord
100
AcDbBlockTableRecord
  2
*Paper_Space
340
1E
  0
ENDTAB
  0
ENDSEC
  0
SECTION
  2
BLOCKS
  0
BLOCK
  5
18
330
17
100
AcDbEntity
  8
0
100
AcDbBlockBegin
  2
*Model_Space
 70
0
 10
0.0
 20
0.0
 30
0.0
  3
*Model_Space
  1

  0
ENDBLK
  5
19
330
17
100
AcDbEntity
  8
0
100
AcDbBlockEnd
  0
BLOCK
  5
1C
330
1B
100
AcDbEntity
  8
0
100
AcDbBlockBegin
  2
*Paper_Space
 70
0
 10
0.0
 20
0.0
 30
0.0
  3
*Paper_Space
  1

  0
ENDBLK
  5
1D
330
1B
100
AcDbEntity
  8
0
100
AcDbBlockEnd
  0
ENDSEC
  0
SECTION
  2
ENTITIES
  0
SPLINE
  5
2F
330
17
100
AcDbEntity
  8
OUTLINE
100
AcDbSpline
 70
1
 71
3
 72
236
 73
232
 74
0
 40
0.0
 40
0.0
 40
0.0
 40
0.0
 40
1.0
 40
1.0
 40
1.0
 40
2.0
 40
2.0
 40
2.0
 40
3.0
 40
3.0
 40
3.0
 40
4.0
 40
4.0
 40
4.0
 40
5.0
 40
5.0
 40
5.0
 40
6.0
 40
6.0
 40
6.0
 40
7.0
 40
7.0
 40
7.0
 40
8.0
 40
8.0
 40
8.0
 40
9.0
 40
9.0
 40
9.0
 40
10.0
 40
10.0
 40
10.0
 40
11.0
 40
11.0
 40
11.0
 40
12.0
 40
12.0
 40
12.0
 40
13.0
 40
13.0
 40
13.0
 40
14.0
 40
14.0
 40
14.0
 40
15.0
 40
15.0
 40
15.0
 40
16.0
 40
16.0
 40
16.0
 40
17.0
 40
17.0
 40
17.0
 40
18.0
 40
18.0
 40
18.0
 40
19.0
 40
19.0
 40
19.0
 40
20.0
 40
20.0
 40
20.0
 40
21.0
 40
21.0
 40
21.0
 40
22.0
 40
22.0
 40
22.0
 40
23.0
 40
23.0
 40
23.0
 40
24.0
 40
24.0
 40
24.0
 40
25.0
 40
25.0
 40
25.0
 40
26.0
 40
26.0
 40
26.0
 40
27.0
 40
27.0
 40
27.0
 40
28.0
 40
28.0
 40
28.0
 40
29.0
 40
29.0
 40
29.0
 40
30.0
 40
30.0
 40
30.0
 40
31.0
 40
31.0
 40
31.0
 40
32.0
 40
32.0
 40
32.0
 40
33.0
 40
33.0
 40
33.0
 40
34.0
 40
34.0
 40
34.0
 40
35.0
 40
35.0
 40
35.0
 40
36.0
 40
36.0
 40
36.0
 40
37.0
 40
37.0
 40
37.0
 40
38.0
 40
38.0
 40
38.0
 40
39.0
 40
39.0
 40
39.0
 40
40.0
 40
40.0
 40
40.0
 40
41.0
 40
41.0
 40
41.0
 40
42.0
 40
42.0
 40
42.0
 40
43.0
 40
43.0
 40
43.0
 40
44.0
 40
44.0
 40
44.0
 40
45.0
 40
45.0
 40
45.0
 40
46.0
 40
46.0
 40
46.0
 40
47.0
 40
47.0
 40
47.0
 40
48.0
 40
48.0
 40
48.0
 40
49.0
 40
49.0
 40
49.0
 40
50.0
 40
50.0
 40
50.0
 40
51.0
 40
51.0
 40
51.0
 40
52.0
 40
52.0
 40
52.0
 40
53.0
 40
53.0
 40
53.0
 40
54.0
 40
54.0
 40
54.0
 40
55.0
 40
55.0
 40
55.0
 40
56.0
 40
56.0
 40
56.0
 40
57.0
 40
57.0
 40
57.0
 40
58.0
 40
58.0
 40
58.0
 40
59.0
 40
59.0
 40
59.0
 40
60.0
 40
60.0
 40
60.0
 40
61.0
 40
61.0
 40
61.0
 40
62.0
 40
62.0
 40
62.0
 40
63.0
 40
63.0
 40
63.0
 40
64.0
 40
64.0
 40
64.0
 40
65.0
 40
65.0
 40
65.0
 40
66.0
 40
66.0
 40
66.0
 40
67.0
 40
67.0
 40
67.0
 40
68.0
 40
68.0
 40
68.0
 40
69.0
 40
69.0
 40
69.0
 40
70.0
 40
70.0
 40
70.0
 40
71.0
 40
71.0
 40
71.0
 40
72.0
 40
72.0
 40
72.0
 40
73.0
 40
73.0
 40
73.0
 40
74.0
 40
74.0
 40
74.0
 40
75.0
 40
75.0
 40
75.0
 40
76.0
 40
76.0
 40
76.0
 40
77.0
 40
77.0
 40
77.0
 40
77.0
 10
61.40778926465017
 20
15.0
 30
0.0
 10
61.537277253112585
 20
15.35641232144998
 30
0.0
 10
60.30102825504454
 20
16.469970178373785
 30
0.0
 10
59.675395187851244
 20
17.13847392869988
 30
0.0
 10
59.049762120657945
 20
17.806977679025977
 30
0.0
 10
58.39104004110318
 20
18.41543003855614
 30
0.0
 10
57.65399086149039
 20
19.01102250195658
 30
0.0
 10
56.9169416818776
 20
19.606614965357025
 30
0.0
 10
56.07407636202655
 20
20.19496267251239
 30
0.0
 10
55.25310011017449
 20
20.712028709102547
 30
0.0
 10
54.432123858322434
 20
21.229094745692706
 30
0.0
 10
53.61151411793264
 20
21.682431460912444
 30
0.0
 10
52.72813335037805
 20
22.113418721497535
 30
0.0
 10
51.84475258282346
 20
22.544405982082626
 30
0.0
 10
50.91941653143882
 20
22.94617452955694
 30
0.0
 10
49.95281550484694
 20
23.29795227261309
 30
0.0
 10
48.98621447825506
 20
23.649730015669242
 30
0.0
 10
48.42414815898023
 20
23.905415365391796
 30
0.0
 10
46.92852719082678
 20
24.224085179834447
 30
0.0
 10
45.432906222673324
 20
24.542754994277097
 30
0.0
 10
43.369131566057796
 20
24.99998722939473
 30
0.0
 10
40.97908969592624
 20
25.209971159269
 30
0.0
 10
38.58904782579469
 20
25.41995508914327
 30
0.0
 10
35.14986276886177
 20
25.50923398790074
 30
0.0
 10
32.588275970037465
 20
25.48398875908007
 30
0.0
 10
30.026689171213157
 20
25.4587435302594
 30
0.0
 10
27.704206217062495
 20
25.315702050598595
 30
0.0
 10
25.609568902980392
 20
25.058499786344978
 30
0.0
 10
23.51493158889829
 20
24.80129752209136
 30
0.0
 10
21.415319717403587
 20
24.285640966180615
 30
0.0
 10
20.02045208554484
 20
23.940775173558357
 30
0.0
 10
18.62558445368609
 20
23.5959093809361
 30
0.0
 10
18.16284572116504
 20
23.36082042179838
 30
0.0
 10
17.240363111827904
 20
22.989305030611426
 30
0.0
 10
16.317880502490766
 20
22.617789639424473
 30
0.0
 10
15.192283614826671
 20
21.876566998205195
 30
0.0
 10
14.48555642952202
 20
21.711682826436626
 30
0.0
 10
13.77882924421737
 20
21.546798654668056
 30
0.0
 10
17.580926071587005
 20
21.951947137739438
 30
0.0
 10
13.0
 20
22.0
 30
0.0
 10
8.419073928412995
 20
22.048052862260562
 30
0.0
 10
-8.419073928412995
 20
22.048052862260562
 30
0.0
 10
-13.0
 20
22.0
 30
0.0
 10
-17.580926071587005
 20
21.951947137739438
 30
0.0
 10
-13.77882924421737
 20
21.546798654668056
 30
0.0
 10
-14.48555642952202
 20
21.711682826436626
 30
0.0
 10
-15.192283614826671
 20
21.876566998205195
 30
0.0
 10
-16.317880502490766
 20
22.617789639424473
 30
0.0
 10
-17.240363111827904
 20
22.989305030611426
 30
0.0
 10
-18.16284572116504
 20
23.36082042179838
 30
0.0
 10
-18.594213065225286
 20
23.59210263008878
 30
0.0
 10
-20.02045208554484
 20
23.940775173558357
 30
0.0
 10
-21.446691105864392
 20
24.289447717027933
 30
0.0
 10
-23.23258524300895
 20
24.82413802717526
 30
0.0
 10
-25.797797233745218
 20
25.08134029142888
 30
0.0
 10
-28.363009224481488
 20
25.3385425556825
 30
0.0
 10
-32.44840864302915
 20
25.51519095417781
 30
0.0
 10
-35.41172402996246
 20
25.483988759080077
 30
0.0
 10
-38.37503941689577
 20
25.452786563982343
 30
0.0
 10
-41.313182647853395
 20
25.20351336190234
 30
0.0
 10
-43.577689555345074
 20
24.894127120842487
 30
0.0
 10
-45.84219646283675
 20
24.584740879782636
 30
0.0
 10
-47.21619206261997
 20
24.227554622890075
 30
0.0
 10
-48.99876547491254
 20
23.627671312720977
 30
0.0
 10
-50.78133888720511
 20
23.02778800255188
 30
0.0
 10
-52.73030411805322
 20
22.14852391479933
 30
0.0
 10
-54.273130029100486
 20
21.29482725982791
 30
0.0
 10
-55.81595594014775
 20
20.441130604856486
 30
0.0
 10
-57.06661106860451
 20
19.554629259530437
 30
0.0
 10
-58.255720941196124
 20
18.50549138289245
 30
0.0
 10
-59.44483081378774
 20
17.456353506254466
 30
0.0
 10
-61.30066487867006
 20
15.58424856381541
 30
0.0
 10
-61.40778926465017
 20
15.0
 30
0.0
 10
-61.51491365063028
 20
14.41575143618459
 30
0.0
 10
-59.112585102932066
 20
15.278135512772801
 30
0.0
 10
-58.89846725707676
 20
15.0
 30
0.0
 10
-58.684349411221454
 20
14.721864487227199
 30
0.0
 10
-59.707320112823446
 20
14.003516514838083
 30
0.0
 10
-60.12308218951835
 20
13.331186923363196
 30
0.0
 10
-60.53884426621325
 20
12.65885733188831
 30
0.0
 10
-60.93181461109411
 20
12.177777511985278
 30
0.0
 10
-61.39303971724619
 20
10.966022451150685
 30
0.0
 10
-61.85426482339827
 20
9.754267390316093
 30
0.0
 10
-62.541774320259066
 20
7.73792445402476
 30
0.0
 10
-62.890432826430796
 20
6.060656558355642
 30
0.0
 10
-63.23909133260253
 20
4.383388662686525
 30
0.0
 10
-63.45039756172501
 20
2.7307289401453003
 30
0.0
 10
-63.484990754276566
 20
0.9024150771359825
 30
0.0
 10
-63.51958394682812
 20
-0.9258987858733352
 30
0.0
 10
-63.38186688904587
 20
-3.0902470886080566
 30
0.0
 10
-63.0979919817401
 20
-4.909226619700262
 30
0.0
 10
-62.814117074434336
 20
-6.7282061507924675
 30
0.0
 10
-62.13813820867131
 20
-8.849960893257567
 30
0.0
 10
-61.78174131044197
 20
-10.011462109417248
 30
0.0
 10
-61.42534441221264
 20
-11.17296332557693
 30
0.0
 10
-61.32526263752078
 20
-11.194418837246541
 30
0.0
 10
-60.9596105923641
 20
-11.878233916658356
 30
0.0
 10
-60.59395854720742
 20
-12.562048996070171
 30
0.0
 10
-60.04068882116996
 20
-13.470184655955817
 30
0.0
 10
-59.58782903950191
 20
-14.114352585888135
 30
0.0
 10
-59.134969257833866
 20
-14.758520515820452
 30
0.0
 10
-58.77327414342611
 20
-15.187191835615495
 30
0.0
 10
-58.24245190235583
 20
-15.74324149625226
 30
0.0
 10
-57.711629661285556
 20
-16.299291156889026
 30
0.0
 10
-57.3563755719999
 20
-16.745457706937437
 30
0.0
 10
-56.40289559308025
 20
-17.450650549708726
 30
0.0
 10
-55.44941561416061
 20
-18.155843392480016
 30
0.0
 10
-53.8886931731757
 20
-19.252156867042807
 30
0.0
 10
-52.52157202883796
 20
-19.97439855287999
 30
0.0
 10
-51.154450884500214
 20
-20.696640238717173
 30
0.0
 10
-49.766529521524156
 20
-21.28979529925358
 30
0.0
 10
-48.20016872705377
 20
-21.78410066473183
 30
0.0
 10
-46.63380793258339
 20
-22.278406030210082
 30
0.0
 10
-45.02177942814627
 20
-22.662320910776163
 30
0.0
 10
-43.12340726201566
 20
-22.940230745749492
 30
0.0
 10
-41.225035095885055
 20
-23.21814058072282
 30
0.0
 10
-39.26702940885102
 20
-23.38946305966355
 30
0.0
 10
-36.80993573027012
 20
-23.451559674571804
 30
0.0
 10
-34.352842051689215
 20
-23.513656289480057
 30
0.0
 10
-30.72510493816509
 20
-23.461670098718113
 30
0.0
 10
-28.38084519053024
 20
-23.312810435199
 30
0.0
 10
-26.036585442895394
 20
-23.16395077167989
 30
0.0
 10
-24.476466841834405
 20
-22.921465892458635
 30
0.0
 10
-22.744377244461024
 20
-22.558401693457142
 30
0.0
 10
-21.012287647087643
 20
-22.19533749445565
 30
0.0
 10
-19.479078342420124
 20
-21.725560958998443
 30
0.0
 10
-17.988307606289954
 20
-21.13442524119005
 30
0.0
 10
-16.497536870159784
 20
-20.54328952338166
 30
0.0
 10
-15.092068666062625
 20
-19.82849245308399
 30
0.0
 10
-13.799752827680015
 20
-19.01158738660678
 30
0.0
 10
-12.507436989297405
 20
-18.194682320129573
 30
0.0
 10
-11.221551745527325
 20
-17.179728252867385
 30
0.0
 10
-10.234412575994291
 20
-16.232994842326796
 30
0.0
 10
-9.247273406461257
 20
-15.286261431786208
 30
0.0
 10
-8.559041921923367
 20
-14.40250246418109
 30
0.0
 10
-7.876917810481814
 20
-13.331186923363248
 30
0.0
 10
-7.194793699040261
 20
-12.259871382545406
 30
0.0
 10
-6.633567352221556
 20
-11.184776146297338
 30
0.0
 10
-6.141667907344974
 20
-9.80510159741974
 30
0.0
 10
-5.649768462468392
 20
-8.425427048542144
 30
0.0
 10
-5.199019133695075
 20
-6.687323229667616
 30
0.0
 10
-4.925521141222323
 20
-5.053139630097659
 30
0.0
 10
-4.652023148749572
 20
-3.4189560305277027
 30
0.0
 10
-6.07171346813026
 20
-0.8421899383496099
 30
0.0
 10
-4.500679952508462
 20
0.0
 30
0.0
 10
-2.9296464368866646
 20
0.8421899383496099
 30
0.0
 10
2.8989720981621705
 20
1.010109426393001
 30
0.0
 10
4.500679952508462
 20
0.0
 30
0.0
 10
6.102387806854754
 20
-1.010109426393001
 30
0.0
 10
4.879791815911467
 20
-4.553734125866224
 30
0.0
 10
5.109567173569288
 20
-6.060656558358007
 30
0.0
 10
5.339342531227109
 20
-7.56757899084979
 30
0.0
 10
5.55752839277759
 20
-8.071938368567249
 30
0.0
 10
5.879332098455388
 20
-9.041534594950697
 30
0.0
 10
6.201135804133186
 20
-10.011130821334145
 30
0.0
 10
6.61824959729562
 20
-11.032764251502488
 30
0.0
 10
7.040389407636079
 20
-11.8782339166587
 30
0.0
 10
7.462529217976538
 20
-12.723703581814913
 30
0.0
 10
7.879833765771776
 20
-13.388559098276625
 30
0.0
 10
8.412170960498145
 20
-14.114352585887975
 30
0.0
 10
8.944508155224513
 20
-14.840146073499325
 30
0.0
 10
9.584296078708967
 20
-15.58470433038052
 30
0.0
 10
10.234412575994291
 20
-16.232994842326796
 30
0.0
 10
10.884529073279616
 20
-16.881285354273075
 30
0.0
 10
11.590783334692086
 20
-17.46436689401535
 30
0.0
 10
12.312869944210098
 20
-18.00409565756564
 30
0.0
 10
13.03495655372811
 20
-18.54382442111593
 30
0.0
 10
13.764930635351941
 20
-19.01016945960094
 30
0.0
 10
14.566932233102367
 20
-19.471367423628532
 30
0.0
 10
15.368933830852793
 20
-19.932565387656123
 30
0.0
 10
16.25272969073866
 20
-20.3858279015473
 30
0.0
 10
17.124879530712647
 20
-20.77128344173119
 30
0.0
 10
17.997029370686633
 20
-21.156738981915076
 30
0.0
 10
18.86324832065488
 20
-21.48624762277752
 30
0.0
 10
19.799831272946275
 20
-21.784100664731845
 30
0.0
 10
20.73641422523767
 20
-22.08195370668617
 30
0.0
 10
21.709393207357667
 20
-22.34031822898466
 30
0.0
 10
22.744377244461024
 20
-22.558401693457142
 30
0.0
 10
23.77936128156438
 20
-22.776485157929624
 30
0.0
 10
23.901072322475926
 20
-22.938327100165722
 30
0.0
 10
26.009735495566407
 20
-23.092601451566736
 30
0.0
 10
28.118398668656887
 20
-23.24687580296775
 30
0.0
 10
32.52279754502675
 20
-23.512652298389938
 30
0.0
 10
35.39635628300392
 20
-23.484047801863227
 30
0.0
 10
38.26991502098109
 20
-23.455443305336516
 30
0.0
 10
40.963758670664504
 20
-23.256261485616314
 30
0.0
 10
43.25108792342944
 20
-22.920974472406478
 30
0.0
 10
45.53841717619437
 20
-22.58568745919664
 30
0.0
 10
47.710272004137465
 20
-21.895136916381475
 30
0.0
 10
49.120331799593515
 20
-21.472325722604218
 30
0.0
 10
50.530391595049565
 20
-21.04951452882696
 30
0.0
 10
50.86479413404469
 20
-20.7942303657425
 30
0.0
 10
51.711446696165744
 20
-20.384107309742944
 30
0.0
 10
52.558099258286795
 20
-19.97398425374339
 30
0.0
 10
53.418339022834076
 20
-19.500496846612595
 30
0.0
 10
54.20024717231983
 20
-19.01158738660689
 30
0.0
 10
54.98215532180558
 20
-18.522677926601187
 30
0.0
 10
55.72919480474092
 20
-17.995374864767832
 30
0.0
 10
56.40289559308025
 20
-17.450650549708726
 30
0.0
 10
57.076596381419584
 20
-16.90592623464962
 30
0.0
 10
57.645576075051366
 20
-16.39438856630056
 30
0.0
 10
58.24245190235583
 20
-15.74324149625226
 30
0.0
 10
58.8393277296603
 20
-15.09209442620396
 30
0.0
 10
59.51152759993662
 20
-14.227304642567734
 30
0.0
 10
59.98415055690704
 20
-13.543768129418932
 30
0.0
 10
60.45677351387746
 20
-12.86023161627013
 30
0.0
 10
60.722103420072045
 20
-12.392394673104395
 30
0.0
 10
61.07818964417834
 20
-11.642022417359454
 30
0.0
 10
61.43427586828463
 20
-10.891650161614514
 30
0.0
 10
61.8186273711694
 20
-9.9717622381166
 30
0.0
 10
62.12066790154481
 20
-9.041534594949292
 30
0.0
 10
62.42270843192023
 20
-8.111306951781984
 30
0.0
 10
62.66065746877302
 20
-7.55454153386869
 30
0.0
 10
62.8904328264308
 20
-6.060656558355609
 30
0.0
 10
63.12020818408859
 20
-4.566771582842527
 30
0.0
 10
63.46472685493998
 20
-1.906538604880092
 30
0.0
 10
63.49932004749154
 20
-0.07822474187080442
 30
0.0
 10
63.53391324004309
 20
1.750089121138483
 30
0.0
 10
63.31785180183607
 20
3.420305801834024
 30
0.0
 10
63.09799198174015
 20
4.909226619700117
 30
0.0
 10
62.87813216164423
 20
6.398147437566211
 30
0.0
 10
62.536558025145354
 20
7.693798949166045
 30
0.0
 10
62.18016112691601
 20
8.855300165325755
 30
0.0
 10
61.82376422868667
 20
10.016801381485465
 30
0.0
 10
61.506559570670646
 20
10.854117277546
 30
0.0
 10
60.9596105923641
 20
11.878233916658376
 30
0.0
 10
60.412661614057555
 20
12.90235055577075
 30
0.0
 10
58.82377081169575
 20
14.479705652776396
 30
0.0
 10
58.89846725707676
 20
15.0
 30
0.0
 10
58.97316370245777
 20
15.520294347223604
 30
0.0
 10
61.278301276187754
 20
14.64358767855002
 30
0.0
 10
61.40778926465017
 20
15.0
 30
0.0
  0
SPLINE
  5
30
330
17
100
AcDbEntity
  8
LENS
100
AcDbSpline
 70
1
 71
3
 72
47
 73
43
 74
0
 40
0.0
 40
0.0
 40
0.0
 40
0.0
 40
1.0
 40
1.0
 40
1.0
 40
2.0
 40
2.0
 40
2.0
 40
3.0
 40
3.0
 40
3.0
 40
4.0
 40
4.0
 40
4.0
 40
5.0
 40
5.0
 40
5.0
 40
6.0
 40
6.0
 40
6.0
 40
7.0
 40
7.0
 40
7.0
 40
8.0
 40
8.0
 40
8.0
 40
9.0
 40
9.0
 40
9.0
 40
10.0
 40
10.0
 40
10.0
 40
11.0
 40
11.0
 40
11.0
 40
12.0
 40
12.0
 40
12.0
 40
13.0
 40
13.0
 40
13.0
 40
14.0
 40
14.0
 40
14.0
 40
14.0
 10
59.0
 20
-0.0
 30
0.0
 10
59.0
 20
-3.2473645513753677
 30
0.0
 10
58.310304256691886
 20
-7.141377985906347
 30
0.0
 10
56.99894085369759
 20
-9.742093654126109
 30
0.0
 10
55.687577450703294
 20
-12.34280932234587
 30
0.0
 10
53.71274248842786
 20
-14.124986441360095
 30
0.0
 10
51.13181958203424
 20
-15.604294009318565
 30
0.0
 10
48.55089667564062
 20
-17.083601577277033
 30
0.0
 10
45.620940581564234
 20
-18.11566488645053
 30
0.0
 10
41.51340341533588
 20
-18.617939061876925
 30
0.0
 10
37.405866249107525
 20
-19.120213237303318
 30
0.0
 10
30.594133750892475
 20
-19.120213237303318
 30
0.0
 10
26.48659658466412
 20
-18.617939061876925
 30
0.0
 10
22.379059418435766
 20
-18.11566488645053
 30
0.0
 10
19.449103324359385
 20
-17.083601577277037
 30
0.0
 10
16.868180417965764
 20
-15.604294009318567
 30
0.0
 10
14.287257511572145
 20
-14.124986441360097
 30
0.0
 10
12.3124225492967
 20
-12.342809322345282
 30
0.0
 10
11.001059146302406
 20
-9.74209365412611
 30
0.0
 10
9.689695743308112
 20
-7.1413779859069395
 30
0.0
 10
9.0
 20
-3.2473645513789107
 30
0.0
 10
9.0
 20
-3.5420555377640994e-12
 30
0.0
 10
9.0
 20
3.2473645513718283
 30
0.0
 10
9.689695743308112
 20
7.141377985905754
 30
0.0
 10
11.001059146302406
 20
9.742093654126105
 30
0.0
 10
12.3124225492967
 20
12.342809322346456
 30
0.0
 10
14.287257511572143
 20
14.124986441360091
 30
0.0
 10
16.86818041796576
 20
15.604294009318561
 30
0.0
 10
19.449103324359378
 20
17.08360157727703
 30
0.0
 10
22.379059418435766
 20
18.11566488645053
 30
0.0
 10
26.486596584664113
 20
18.617939061876925
 30
0.0
 10
30.59413375089246
 20
19.120213237303318
 30
0.0
 10
37.4058662491075
 20
19.12021323730332
 30
0.0
 10
41.51340341533585
 20
18.61793906187693
 30
0.0
 10
45.620940581564206
 20
18.115664886450535
 30
0.0
 10
48.55089667564061
 20
17.083601577277037
 30
0.0
 10
51.13181958203423
 20
15.604294009318567
 30
0.0
 10
53.71274248842786
 20
14.124986441360095
 30
0.0
 10
55.68757745070331
 20
12.34280932234586
 30
0.0
 10
56.998940853697604
 20
9.742093654126098
 30
0.0
 10
58.3103042566919
 20
7.141377985906336
 30
0.0
 10
59.0
 20
3.2473645513753677
 30
0.0
 10
59.0
 20
0.0
 30
0.0
  0
SPLINE
  5
31
330
17
100
AcDbEntity
  8
LENS
100
AcDbSpline
 70
1
 71
3
 72
47
 73
43
 74
0
 40
0.0
 40
0.0
 40
0.0
 40
0.0
 40
1.0
 40
1.0
 40
1.0
 40
2.0
 40
2.0
 40
2.0
 40
3.0
 40
3.0
 40
3.0
 40
4.0
 40
4.0
 40
4.0
 40
5.0
 40
5.0
 40
5.0
 40
6.0
 40
6.0
 40
6.0
 40
7.0
 40
7.0
 40
7.0
 40
8.0
 40
8.0
 40
8.0
 40
9.0
 40
9.0
 40
9.0
 40
10.0
 40
10.0
 40
10.0
 40
11.0
 40
11.0
 40
11.0
 40
12.0
 40
12.0
 40
12.0
 40
13.0
 40
13.0
 40
13.0
 40
14.0
 40
14.0
 40
14.0
 40
14.0
 10
-59.0
 20
-0.0
 30
0.0
 10
-59.0
 20
-3.2473645513753677
 30
0.0
 10
-58.310304256691886
 20
-7.141377985906347
 30
0.0
 10
-56.99894085369759
 20
-9.742093654126109
 30
0.0
 10
-55.687577450703294
 20
-12.34280932234587
 30
0.0
 10
-53.71274248842786
 20
-14.124986441360095
 30
0.0
 10
-51.13181958203424
 20
-15.604294009318565
 30
0.0
 10
-48.55089667564062
 20
-17.083601577277033
 30
0.0
 10
-45.620940581564234
 20
-18.11566488645053
 30
0.0
 10
-41.51340341533588
 20
-18.617939061876925
 30
0.0
 10
-37.405866249107525
 20
-19.120213237303318
 30
0.0
 10
-30.594133750892475
 20
-19.120213237303318
 30
0.0
 10
-26.48659658466412
 20
-18.617939061876925
 30
0.0
 10
-22.379059418435766
 20
-18.11566488645053
 30
0.0
 10
-19.449103324359385
 20
-17.083601577277037
 30
0.0
 10
-16.868180417965764
 20
-15.604294009318567
 30
0.0
 10
-14.287257511572145
 20
-14.124986441360097
 30
0.0
 10
-12.3124225492967
 20
-12.342809322345282
 30
0.0
 10
-11.001059146302406
 20
-9.74209365412611
 30
0.0
 10
-9.689695743308112
 20
-7.1413779859069395
 30
0.0
 10
-9.0
 20
-3.2473645513789107
 30
0.0
 10
-9.0
 20
-3.5420555377640994e-12
 30
0.0
 10
-9.0
 20
3.2473645513718283
 30
0.0
 10
-9.689695743308112
 20
7.141377985905754
 30
0.0
 10
-11.001059146302406
 20
9.742093654126105
 30
0.0
 10
-12.3124225492967
 20
12.342809322346456
 30
0.0
 10
-14.287257511572143
 20
14.124986441360091
 30
0.0
 10
-16.86818041796576
 20
15.604294009318561
 30
0.0
 10
-19.449103324359378
 20
17.08360157727703
 30
0.0
 10
-22.379059418435766
 20
18.11566488645053
 30
0.0
 10
-26.486596584664113
 20
18.617939061876925
 30
0.0
 10
-30.59413375089246
 20
19.120213237303318
 30
0.0
 10
-37.4058662491075
 20
19.12021323730332
 30
0.0
 10
-41.51340341533585
 20
18.61793906187693
 30
0.0
 10
-45.620940581564206
 20
18.115664886450535
 30
0.0
 10
-48.55089667564061
 20
17.083601577277037
 30
0.0
 10
-51.13181958203423
 20
15.604294009318567
 30
0.0
 10
-53.71274248842786
 20
14.124986441360095
 30
0.0
 10
-55.68757745070331
 20
12.34280932234586
 30
0.0
 10
-56.998940853697604
 20
9.742093654126098
 30
0.0
 10
-58.3103042566919
 20
7.141377985906336
 30
0.0
 10
-59.0
 20
3.2473645513753677
 30
0.0
 10
-59.0
 20
0.0
 30
0.0
  0
ENDSEC
  0
SECTION
  2
OBJECTS
  0
DICTIONARY
  5
A
330
0
100
AcDbDictionary
281
1
  3
ACAD_COLOR
350
B
  3
ACAD_GROUP
350
C
  3
ACAD_LAYOUT
350
D
  3
ACAD_MATERIAL
350
E
  3
ACAD_MLEADERSTYLE
350
F
  3
ACAD_MLINESTYLE
350
10
  3
ACAD_PLOTSETTINGS
350
11
  3
ACAD_PLOTSTYLENAME
350
12
  3
ACAD_SCALELIST
350
14
  3
ACAD_TABLESTYLE
350
15
  3
ACAD_VISUALSTYLE
350
16
  3
EZDXF_META
350
2D
  0
DICTIONARY
  5
B
330
A
100
AcDbDictionary
281
1
  0
DICTIONARY
  5
C
330
A
100
AcDbDictionary
281
1
  0
DICTIONARY
  5
D
330
A
100
AcDbDictionary
281
1
  3
Model
350
1A
  3
Layout1
350
1E
  0
DICTIONARY
  5
E
330
A
100
AcDbDictionary
281
1
  3
ByBlock
350
1F
  3
ByLayer
350
20
  3
Global
350
21
  0
DICTIONARY
  5
F
330
A
100
AcDbDictionary
281
1
  3
Standard
350
2C
  0
DICTIONARY
  5
10
330
A
100
AcDbDictionary
281
1
  3
Standard
350
22
  0
DICTIONARY
  5
11
330
A
100
AcDbDictionary
281
1
  0
ACDBDICTIONARYWDFLT
  5
12
330
A
100
AcDbDictionary
281
1
  3
Normal
350
13
100
AcDbDictionaryWithDefault
340
13
  0
ACDBPLACEHOLDER
  5
13
330
12
  0
DICTIONARY
  5
14
330
A
100
AcDbDictionary
281
1
  0
DICTIONARY
  5
15
330
A
100
AcDbDictionary
281
1
  0
DICTIONARY
  5
16
330
A
100
AcDbDictionary
281
1
  0
LAYOUT
  5
1A
330
D
100
AcDbPlotSettings
  1

  4
A3
  6

 40
7.5
 41
20.0
 42
7.5
 43
20.0
 44
420.0
 45
297.0
 46
0.0
 47
0.0
 48
0.0
 49
0.0
140
0.0
141
0.0
142
1.0
143
1.0
 70
1024
 72
1
 73
0
 74
5
  7

 75
16
 76
0
 77
2
 78
300
147
1.0
148
0.0
149
0.0
100
AcDbLayout
  1
Model
 70
1
 71
0
 10
0.0
 20
0.0
 11
420.0
 21
297.0
 12
0.0
 22
0.0
 32
0.0
 14
1e+20
 24
1e+20
 34
1e+20
 15
-1e+20
 25
-1e+20
 35
-1e+20
146
0.0
 13
0.0
 23
0.0
 33
0.0
 16
1.0
 26
0.0
 36
0.0
 17
0.0
 27
1.0
 37
0.0
 76
1
330
17
  0
LAYOUT
  5
1E
330
D
100
AcDbPlotSettings
  1

  4
A3
  6

 40
7.5
 41
20.0
 42
7.5
 43
20.0
 44
420.0
 45
297.0
 46
0.0
 47
0.0
 48
0.0
 49
0.0
140
0.0
141
0.0
142
1.0
143
1.0
 70
0
 72
1
 73
0
 74
5
  7

 75
16
 76
0
 77
2
 78
300
147
1.0
148
0.0
149
0.0
100
AcDbLayout
  1
Layout1
 70
1
 71
1
 10
0.0
 20
0.0
 11
420.0
 21
297.0
 12
0.0
 22
0.0
 32
0.0
 14
1e+20
 24
1e+20
 34
1e+20
 15
-1e+20
 25
-1e+20
 35
-1e+20
146
0.0
 13
0.0
 23
0.0
 33
0.0
 16
1.0
 26
0.0
 36
0.0
 17
0.0
 27
1.0
 37
0.0
 76
1
330
1B
  0
MATERIAL
  5
1F
102
{ACAD_REACTORS
330
E
102
}
330
E
100
AcDbMaterial
  1
ByBlock
  2

 70
0
 40
1.0
 71
1
 41
1.0
 91
-1023410177
 42
1.0
 72
1
  3

 73
1
 74
1
 75
1
 44
0.5
 73
0
 45
1.0
 46
1.0
 77
1
  4

 78
1
 79
1
170
1
 48
1.0
171
1
  6

172
1
173
1
174
1
140
1.0
141
1.0
175
1
  7

176
1
177
1
178
1
143
1.0
179
1
  8

270
1
271
1
272
1
145
1.0
146
1.0
273
1
  9

274
1
275
1
276
1
 42
1.0
 72
1
  3

 73
1
 74
1
 75
1
 94
63
  0
MATERIAL
  5
20
102
{ACAD_REACTORS
330
E
102
}
330
E
100
AcDbMaterial
  1
ByLayer
  2

 70
0
 40
1.0
 71
1
 41
1.0
 91
-1023410177
 42
1.0
 72
1
  3

 73
1
 74
1
 75
1
 44
0.5
 73
0
 45
1.0
 46
1.0
 77
1
  4

 78
1
 79
1
170
1
 48
1.0
171
1
  6

172
1
173
1
174
1
140
1.0
141
1.0
175
1
  7

176
1
177
1
178
1
143
1.0
179
1
  8

270
1
271
1
272
1
145
1.0
146
1.0
273
1
  9

274
1
275
1
276
1
 42
1.0
 72
1
  3

 73
1
 74
1
 75
1
 94
63
  0
MATERIAL
  5
21
102
{ACAD_REACTORS
330
E
102
}
330
E
100
AcDbMaterial
  1
Global
  2

 70
0
 40
1.0
 71
1
 41
1.0
 91
-1023410177
 42
1.0
 72
1
  3

 73
1
 74
1
 75
1
 44
0.5
 73
0
 45
1.0
 46
1.0
 77
1
  4

 78
1
 79
1
170
1
 48
1.0
171
1
  6

172
1
173
1
174
1
140
1.0
141
1.0
175
1
  7

176
1
177
1
178
1
143
1.0
179
1
  8

270
1
271
1
272
1
145
1.0
146
1.0
273
1
  9

274
1
275
1
276
1
 42
1.0
 72
1
  3

 73
1
 74
1
 75
1
 94
63
  0
MLINESTYLE
  5
22
102
{ACAD_REACTORS
330
10
102
}
330
10
100
AcDbMlineStyle
  2
Standard
 70
0
  3

 62
256
 51
90.0
 52
90.0
 71
2
 49
0.5
 62
256
  6
BYLAYER
 49
-0.5
 62
256
  6
BYLAYER
  0
MLEADERSTYLE
  5
2C
102
{ACAD_REACTORS
330
F
102
}
330
F
100
AcDbMLeaderStyle
179
2
170
2
171
1
172
0
 90
2
 40
0.0
 41
0.0
173
1
 91
-1056964608
 92
-2
290
1
 42
2.0
291
1
 43
8.0
  3
Standard
 44
4.0
300

342
29
174
1
175
1
176
0
178
1
 93
-1056964608
 45
4.0
292
0
297
0
 46
4.0
 94
-1056964608
 47
1.0
 49
1.0
140
1.0
294
1
141
0.0
177
0
142
1.0
295
0
296
0
143
3.75
271
0
272
9
273
9
  0
DICTIONARY
  5
2D
330
A
100
AcDbDictionary
280
1
281
1
  3
CREATED_BY_EZDXF
350
2E
  3
WRITTEN_BY_EZDXF
350
34
  0
DICTIONARYVAR
  5
2E
330
2D
100
DictionaryVariables
280
0
  1
1.4.4 @ 2026-06-11T03:07:31.781567+00:00
  0
DICTIONARYVAR
  5
34
330
2D
100
DictionaryVariables
280
0
  1
1.4.4 @ 2026-06-11T03:07:31.795928+00:00
  0
ENDSEC
  0
EOF
